<?xml version="1.0" encoding="utf-8"?><svg xmlns="http://www.w3.org/2000/svg" xmlns:xlink="http://www.w3.org/1999/xlink"><symbol viewBox="0 0 14 14" id="arrow-right" xmlns="http://www.w3.org/2000/svg">
    <path d="M0.600391 6.19979H10.3364L5.86439 1.72779L7.00039 0.599792L13.4004 6.99979L7.00039 13.3998L5.87239 12.2718L10.3364 7.79979H0.600391V6.19979Z"/>
</symbol><symbol viewBox="0 0 17 24" id="arrow-right-nav" xmlns="http://www.w3.org/2000/svg">
    <path fill-rule="evenodd" clip-rule="evenodd" d="M9.96967 7.46967C10.2626 7.17678 10.7374 7.17678 11.0303 7.46967L15.0303 11.4697C15.3232 11.7626 15.3232 12.2374 15.0303 12.5303L11.0303 16.5303C10.7374 16.8232 10.2626 16.8232 9.96967 16.5303C9.67678 16.2374 9.67678 15.7626 9.96967 15.4697L13.4393 12L9.96967 8.53033C9.67678 8.23744 9.67678 7.76256 9.96967 7.46967Z"/>
</symbol><symbol viewBox="0 0 24 24" id="download" xmlns="http://www.w3.org/2000/svg">
    <path fill-rule="evenodd" clip-rule="evenodd" d="M10.6154 1.9726C10.5559 1.9726 10.5077 2.02167 10.5077 2.08219V8.54795C10.5077 9.69791 9.5916 10.6301 8.46154 10.6301H6.90897C7.28927 11.3049 7.94354 12.2604 9.05795 13.4592C10.7555 15.2853 11.9009 16.0444 12.4218 16.3307C12.978 16.0002 14.2128 15.1324 15.918 13.1572C16.8614 12.0646 17.4852 11.2335 17.8939 10.6301H16.3231C15.193 10.6301 14.2769 9.69791 14.2769 8.54795V2.08219C14.2769 2.02167 14.2287 1.9726 14.1692 1.9726H10.6154ZM8.56923 2.08219C8.56923 0.932229 9.48533 0 10.6154 0H14.1692C15.2993 0 16.2154 0.932229 16.2154 2.08219V8.54795C16.2154 8.60847 16.2636 8.65753 16.3231 8.65753H19.2696C20.0305 8.65753 20.7257 9.46215 20.3228 10.331C20.0421 10.9363 19.3007 12.2279 17.3743 14.4592C15.1463 17.0398 13.5647 17.9745 13 18.2525C12.6698 18.415 12.2833 18.4315 11.9329 18.2803C11.368 18.0367 9.89818 17.2335 7.64974 14.8148C5.51752 12.5211 4.81369 10.9129 4.58731 10.1913C4.32309 9.34893 4.99208 8.65753 5.69882 8.65753H8.46154C8.52102 8.65753 8.56923 8.60847 8.56923 8.54795V2.08219ZM2.96923 17.6438C3.50452 17.6438 3.93846 18.0854 3.93846 18.6301V21.4795C3.93846 21.7821 4.17954 22.0274 4.47692 22.0274H20.5231C20.8205 22.0274 21.0615 21.7821 21.0615 21.4795V18.6301C21.0615 18.0854 21.4955 17.6438 22.0308 17.6438C22.5661 17.6438 23 18.0854 23 18.6301V21.4795C23 22.8715 21.891 24 20.5231 24H4.47692C3.10896 24 2 22.8715 2 21.4795V18.6301C2 18.0854 2.43394 17.6438 2.96923 17.6438Z"/>
</symbol><symbol viewBox="0 0 32 33" id="email" xmlns="http://www.w3.org/2000/svg">
    <path d="M0 6.88327L1.52353 8.00098L14.21 17.2501C15.2817 18.0248 16.7183 18.0307 17.79 17.2501L30.4765 8.00098L32 6.88327C31.5076 5.49354 30.1984 4.5 28.6691 4.5H3.33092C1.80159 4.5 0.492386 5.49354 0 6.88327Z"/>
    <path d="M18.76 19.2915C17.9372 19.8802 16.9657 20.1773 16 20.1773C15.0343 20.1773 14.0629 19.8802 13.24 19.2915L1.71429 11.062L0 9.83337V23.6635C0 25.5951 1.57143 27.1667 3.50286 27.1667H28.4971C30.4286 27.1667 32 25.5951 32 23.6635V9.83337L30.2857 11.062L18.76 19.2915Z"/>
</symbol><symbol viewBox="0 0 24 25" id="heart" xmlns="http://www.w3.org/2000/svg">
    <path fill-rule="evenodd" clip-rule="evenodd" d="M12.6924 7.58373C12.3055 7.95505 11.6945 7.95505 11.3076 7.58373L10.6152 6.91927C9.80477 6.14154 8.70994 5.66667 7.5 5.66667C5.01472 5.66667 3 7.68139 3 10.1667C3 12.5493 4.28979 14.5167 6.15176 16.1332C8.01532 17.7511 10.2434 18.8241 11.5746 19.3717C11.853 19.4862 12.147 19.4862 12.4254 19.3717C13.7566 18.8241 15.9847 17.7511 17.8482 16.1332C19.7102 14.5167 21 12.5493 21 10.1667C21 7.68139 18.9853 5.66667 16.5 5.66667C15.2901 5.66667 14.1952 6.14154 13.3848 6.91927L12.6924 7.58373ZM12 5.47624C10.8321 4.35548 9.24649 3.66667 7.5 3.66667C3.91015 3.66667 1 6.57682 1 10.1667C1 16.5349 7.97034 20.0517 10.8138 21.2214C11.5796 21.5364 12.4204 21.5364 13.1862 21.2214C16.0297 20.0517 23 16.5349 23 10.1667C23 6.57682 20.0899 3.66667 16.5 3.66667C14.7535 3.66667 13.1679 4.35548 12 5.47624Z"/>
</symbol><symbol viewBox="0 0 24 24" id="heart-line" xmlns="http://www.w3.org/2000/svg">
    <path d="M12.001 4.52853C14.35 2.42 17.98 2.49 20.2426 4.75736C22.5053 7.02472 22.583 10.637 20.4786 12.993L11.9999 21.485L3.52138 12.993C1.41705 10.637 1.49571 7.01901 3.75736 4.75736C6.02157 2.49315 9.64519 2.41687 12.001 4.52853ZM18.827 6.1701C17.3279 4.66794 14.9076 4.60701 13.337 6.01687L12.0019 7.21524L10.6661 6.01781C9.09098 4.60597 6.67506 4.66808 5.17157 6.17157C3.68183 7.66131 3.60704 10.0473 4.97993 11.6232L11.9999 18.6543L19.0201 11.6232C20.3935 10.0467 20.319 7.66525 18.827 6.1701Z"/>
</symbol><symbol viewBox="0 0 24 24" id="id-card-line" xmlns="http://www.w3.org/2000/svg">
    <path d="M3 6H21V18H3V6ZM2 4C1.44772 4 1 4.44772 1 5V19C1 19.5523 1.44772 20 2 20H22C22.5523 20 23 19.5523 23 19V5C23 4.44772 22.5523 4 22 4H2ZM13 8H19V10H13V8ZM18 12H13V14H18V12ZM10.5 10C10.5 11.3807 9.38071 12.5 8 12.5C6.61929 12.5 5.5 11.3807 5.5 10C5.5 8.61929 6.61929 7.5 8 7.5C9.38071 7.5 10.5 8.61929 10.5 10ZM8 13.5C6.067 13.5 4.5 15.067 4.5 17H11.5C11.5 15.067 9.933 13.5 8 13.5Z"/>
</symbol><symbol viewBox="0 0 33 16" id="invest-standart-arrow" xmlns="http://www.w3.org/2000/svg">
    <path d="M32.7071 8.70711C33.0976 8.31658 33.0976 7.68342 32.7071 7.29289L26.3431 0.928932C25.9526 0.538408 25.3195 0.538408 24.9289 0.928932C24.5384 1.31946 24.5384 1.95262 24.9289 2.34315L30.5858 8L24.9289 13.6569C24.5384 14.0474 24.5384 14.6805 24.9289 15.0711C25.3195 15.4616 25.9526 15.4616 26.3431 15.0711L32.7071 8.70711ZM0 9H32V7H0V9Z"/>
</symbol><symbol viewBox="0 0 100 96" id="invest-standart-committee" xmlns="http://www.w3.org/2000/svg">
    <path d="M6.40039 11.6C6.40039 18 11.6004 23.2 18.0004 23.2C24.4004 23.2 29.6004 18 29.6004 11.6C29.6004 5.2 24.4004 0 18.0004 0C11.6004 0 6.40039 5.2 6.40039 11.6Z"/>
    <path d="M50.0004 23.2C56.4004 23.2 61.6004 18 61.6004 11.6C61.6004 5.2 56.4004 0 50.0004 0C43.6004 0 38.4004 5.2 38.4004 11.6C38.4004 18 43.6004 23.2 50.0004 23.2Z"/>
    <path d="M34.0005 38V44H66.0005V38C66.0005 32.8 63.6005 27.6 58.4005 24.4C56.0005 26 52.8005 27.2 50.0005 27.2C46.8005 27.2 44.0005 26.4 41.6005 24.8C36.8005 27.6 34.0005 32.4 34.0005 38Z"/>
    <path d="M30 38C30 35.2 30.8 32.4 31.6 30C30.4 27.6 28.8 26 26.4 24.4C24 26.4 21.2 27.2 18 27.2C14.8 27.2 12 26.4 9.6 24.8C4.8 27.6 2 32.4 2 38V44H30V38Z"/>
    <path d="M98 44V38C98 32.8 95.6 27.6 90.4 24.4C85.2 28 78.4 28 73.2 24.4C71.2 25.6 69.2 27.6 68 30C69.2 32.4 69.6 35.2 69.6 38V44H98Z"/>
    <path d="M70.3999 11.6C70.3999 18 75.5999 23.2 81.9999 23.2C88.3999 23.2 93.5999 18 93.5999 11.6C93.5999 5.2 88.3999 0 81.9999 0C75.5999 0 70.3999 5.2 70.3999 11.6Z"/>
    <path d="M86.8002 96C90.0002 96 92.8002 93.2 92.8002 90V64H7.2002V90C7.2002 93.2 10.0002 96 13.2002 96H86.8002Z"/>
    <path d="M94 48H6C2.8 48 0 50.8 0 54C0 57.2 2.8 60 6 60H94C97.2 60 100 57.2 100 54C100 50.8 97.2 48 94 48Z"/>
</symbol><symbol viewBox="0 0 73 100" id="invest-standart-license" xmlns="http://www.w3.org/2000/svg">
    <path d="M72.7139 17C72.6922 16.9619 72.6688 16.9248 72.6452 16.8878C72.6355 16.8724 72.6271 16.8563 72.6169 16.8412C72.5885 16.7989 72.5572 16.7591 72.5262 16.719C72.5119 16.7004 72.4992 16.681 72.4842 16.6629C72.45 16.6215 72.413 16.5828 72.3761 16.5439C72.3623 16.5294 72.35 16.5138 72.336 16.4995L56.4664 0.66244C56.4521 0.64819 56.4365 0.63597 56.422 0.6224C56.383 0.58552 56.3442 0.54864 56.3027 0.51448C56.2846 0.49977 56.2651 0.48688 56.2467 0.47262C56.2066 0.44163 56.1665 0.41041 56.1243 0.38213C56.1091 0.37217 56.093 0.36357 56.0778 0.35385C56.052 0.337452 56.0262 0.321187 56 0.305496V13C56 15.2091 57.7909 17 60 17H72.7139ZM55 0.00408113C54.9546 0.00139378 54.909 0 54.8633 0H2.26708C1.01497 0 0 1.01312 0 2.26244V97.7376C0 98.9869 1.01497 100 2.26708 100H70.7329C71.9848 100 73 98.9869 73 97.7376V18.0996C73 18.0663 72.9993 18.0331 72.9978 18H59C56.7909 18 55 16.2091 55 14V0.00408113ZM52.305 36H34.0828C32.7021 36 31.5828 34.8807 31.5828 33.5C31.5828 32.1193 32.7021 31 34.0828 31H52.305C53.6857 31 54.805 32.1193 54.805 33.5C54.805 34.8807 53.6857 36 52.305 36ZM31.7222 62H13.5C12.1193 62 11 60.8807 11 59.5C11 58.1193 12.1193 57 13.5 57H31.7222C33.1029 57 34.2222 58.1193 34.2222 59.5C34.2222 60.8807 33.1029 62 31.7222 62ZM13.6712 44H53.6712C55.0998 44 56.2222 45.0204 56.2222 46.449C56.2222 47.8775 55.0998 49 53.6712 49H13.6712C12.2426 49 11.2222 47.8775 11.2222 46.449C11.2222 45.0204 12.2426 44 13.6712 44ZM14.7285 30.7158H15.043C15.8965 30.7158 16.6639 31.0415 17.3452 31.6929C18.0265 32.3442 18.3672 33.1566 18.3672 34.1299C18.3672 35.0882 18.0265 35.8781 17.3452 36.4995C16.6639 37.1209 15.8216 37.4316 14.8184 37.4316C13.7253 37.4316 12.8156 36.9937 12.0894 36.1177C11.3631 35.2417 11 33.9951 11 32.3779C11 30.8955 11.3182 29.5067 11.9546 28.2114C12.591 26.9162 13.3696 25.8905 14.2905 25.1343C15.2114 24.3781 16.0312 24 16.75 24C17.2292 24 17.6035 24.1423 17.8731 24.4268C18.1426 24.7113 18.2773 25.0781 18.2773 25.5273C18.2773 26.1862 17.9853 26.6729 17.4014 26.9873C16.6077 27.4216 15.9788 27.9307 15.5147 28.5147C15.0505 29.0986 14.7884 29.8323 14.7285 30.7158ZM24.6562 30.7158H24.9482C25.7868 30.7158 26.5467 31.0415 27.228 31.6929C27.9093 32.3442 28.25 33.1566 28.25 34.1299C28.25 35.0732 27.9093 35.8669 27.228 36.5107C26.5467 37.1546 25.7044 37.4766 24.7012 37.4766C23.5931 37.4766 22.6797 37.0274 21.9609 36.1289C21.2422 35.2305 20.8828 33.9801 20.8828 32.3779C20.8828 31.2249 21.07 30.1393 21.4443 29.1211C21.8187 28.1029 22.3016 27.2157 22.8931 26.4595C23.4845 25.7033 24.1209 25.1043 24.8022 24.6626C25.4836 24.2209 26.0938 24 26.6328 24C27.127 24 27.505 24.1385 27.7671 24.4155C28.0291 24.6925 28.1602 25.0632 28.1602 25.5273C28.1602 26.2012 27.8682 26.6878 27.2842 26.9873C26.4606 27.4515 25.8392 27.9644 25.4199 28.5259C25.0007 29.0874 24.7461 29.8174 24.6562 30.7158ZM53.387 72.99C54.112 76.054 58.045 82.216 61.027 85.965L55.531 84.631L52.969 90.074C52.968 90.073 51.855 90.401 49.966 82.628C49.013 88.049 47.2 89.334 47.199 89.334L45.973 83.615L40.057 85.482C42.636 82.132 44.847 76.262 45.32 73.283L45.195 72.954L43.78 72.869L43.711 71.453L42.392 70.935L42.765 69.566L41.67 68.666L42.448 67.48L41.685 66.285L42.791 65.398L42.434 64.026L43.76 63.523L43.846 62.108L45.262 62.041L45.781 60.722L47.148 61.095L48.049 60L49.235 60.777L50.429 60.015L51.317 61.121L52.689 60.765L53.191 62.09L54.606 62.175L54.673 63.591L55.994 64.108L55.619 65.477L56.715 66.377L55.938 67.563L56.701 68.758L55.594 69.645L55.951 71.018L54.624 71.52L54.539 72.935L53.387 72.99ZM49.0962 64.395C47.397 64.395 46.0144 65.777 46.015 67.4786C46.015 68.4313 46.4589 69.273 47.1399 69.8388C47.474 70.1165 47.8646 70.3239 48.2957 70.441C48.5528 70.5107 48.8179 70.5598 49.0968 70.5598C49.5838 70.5598 50.0386 70.4355 50.4485 70.2336C50.6486 70.1341 50.8342 70.014 51.0076 69.8758C51.7153 69.3106 52.178 68.4507 52.178 67.4768C52.178 65.7776 50.7954 64.395 49.0962 64.395Z"/>
</symbol><symbol viewBox="0 0 101 101" id="invest-standart-map" xmlns="http://www.w3.org/2000/svg">
    <path d="M82.6085 58.4321C79.3978 58.6886 76.111 58.8341 72.9742 58.7654C71.15 58.725 69.3957 58.5614 67.6763 58.3331C67.5982 61.4742 67.5181 64.7304 67.438 68.0493L73.9294 67.9968C73.9294 67.9968 81.3801 67.2999 81.6903 68.7502C81.9799 70.1077 82.058 73.1033 84.0588 73.7659C84.2006 73.8124 84.3238 73.881 84.4841 73.8992C85.2523 74.0043 85.7618 74.3921 86.0987 74.9294C86.4007 74.8991 89.3012 74.2244 89.597 74.1881L88.0153 58.1755C87.0929 58.2725 83.5535 58.3573 82.6085 58.4321Z"/>
    <path d="M53.9927 63.642L51.7701 68.0234L49.5474 63.642L44.1077 52.9219C42.0576 52.5563 39.9418 52.2735 37.7252 52.1401C37.6246 53.6551 37.5219 55.2085 37.415 56.8023C43.5983 59.6303 43.2799 62.1957 42.0987 66.7245C41.8974 67.4921 41.6817 68.3688 41.4824 69.3142C46.3982 69.9424 50.8621 71.1463 55.215 72.3361C55.7861 72.4916 56.3448 72.6371 56.9098 72.7886C57.4192 71.621 58.0992 70.5706 59.0256 69.906C62.1583 67.6578 64.8843 67.981 65.3198 68.0517C65.404 64.6015 65.4862 61.2241 65.5684 57.984C62.8712 57.5255 60.2664 56.9336 57.7335 56.265L53.9927 63.642Z"/>
    <path d="M48.4671 79.8323C50.1393 80.7716 52.8673 80.8645 55.4454 80.6524C55.4269 80.4383 55.4289 80.212 55.4577 79.9716C55.4577 79.9716 55.5152 77.3961 56.2321 74.758C55.7083 74.6186 55.1742 74.4793 54.6545 74.3379C50.3755 73.1703 45.9856 71.9846 41.189 71.3745C40.9137 75.6448 43.7383 77.2406 47.2818 79.1758L48.4671 79.8323Z"/>
    <path d="M21.4926 54.3663C21.3591 54.4108 21.2276 54.4532 21.0962 54.4976C20.0567 54.8511 19.0543 55.2208 18.1134 55.6046C17.0329 56.045 16.0325 56.4934 15.1019 56.9358L12.8032 74.6108C13.7235 74.1442 14.728 73.6594 15.8312 73.1725C16.7679 72.7625 17.7765 72.3564 18.8283 71.9646C23.286 70.2981 28.6948 68.9265 34.5042 68.876C34.7363 65.3228 34.9664 61.8403 35.1862 58.4993C27.9799 55.4895 21.5584 54.3987 21.4926 54.3886V54.3663Z"/>
    <path d="M39.6914 66.1183C40.6322 62.5126 40.9239 61.2623 37.2407 59.4281C37.0373 62.5025 36.8278 65.6861 36.6162 68.9181C37.4235 68.9463 38.2165 68.9928 38.9991 69.0574C39.221 67.9767 39.4654 66.989 39.6914 66.1183Z"/>
    <path d="M26.4663 52.9989C28.8574 53.6211 31.9799 54.5624 35.3529 55.9198C35.4392 54.6129 35.5255 53.3221 35.6097 52.0697C35.3406 52.0657 35.0797 52.0475 34.8086 52.0475C31.9162 52.0495 29.1142 52.4212 26.4663 52.9989Z"/>
    <path d="M68.1733 39.289C68.1528 40.0243 68.1322 40.7879 68.1096 41.5797C68.1096 41.6585 68.1055 41.7332 68.1035 41.812C68.0788 42.7049 68.0542 43.626 68.0275 44.5814C67.935 48.1104 67.8323 52.0453 67.7275 56.2449C69.4408 56.4772 71.1889 56.6489 73.0213 56.6893C76.076 56.76 79.2806 56.6186 82.4133 56.3722C83.3562 56.2974 84.2929 56.2126 85.2173 56.1217C86.1664 56.0268 87.1031 55.9237 88.0172 55.8146L86.4293 39.0466H68.1795C68.1774 39.1234 68.1754 39.2042 68.1733 39.289Z"/>
    <path d="M65.0676 41.8104L63.6625 44.5798L58.6953 54.3687C60.9817 54.9687 63.2804 55.4818 65.6222 55.8938C65.7249 51.8256 65.8256 48.0098 65.918 44.5798C65.9427 43.6244 65.9694 42.7012 65.994 41.8104C66.0002 41.5498 66.0084 41.2791 66.0146 41.0226C66.0248 40.6267 66.0372 40.257 66.0474 39.8752L65.54 40.8751L65.0676 41.8104Z"/>
    <path d="M89.9768 76.538C89.0667 76.6571 88.1341 76.7723 87.1809 76.8793C86.9858 76.9016 86.7947 76.9238 86.5996 76.946C86.5955 77.8894 86.3859 78.9478 86.0367 79.974C85.2993 82.1515 87.2713 84.7048 85.1986 85.8259C84.6563 86.1209 83.8469 86.3228 82.6205 86.3855C76.7228 86.6905 77.033 86.3855 74.2372 89.1327C73.4237 89.9326 72.9451 90.7729 72.5219 91.5243C71.692 93.001 71.0675 94.1281 68.5778 93.9241C68.0786 93.8837 67.4931 93.7847 66.8255 93.6252C66.805 94.5725 66.7824 95.5098 66.7598 96.435C68.9373 96.845 71.1106 97.0915 73.3066 97.0915H91.9201L89.9768 76.538Z"/>
    <path d="M38.4688 41.8104L38.4257 41.7256C38.4236 41.7539 38.4215 41.7821 38.4195 41.8104C38.3579 42.7033 38.2962 43.6224 38.2326 44.5798C38.1134 46.315 37.9902 48.1492 37.8628 50.0682C39.6109 50.1732 41.2975 50.3591 42.9347 50.6095L39.8759 44.5819L38.4688 41.8104Z"/>
    <path d="M15.5066 75.6447C14.3768 76.1719 13.3599 76.685 12.4704 77.1637L9.5 99.9938L14.6397 96.6265C14.7321 96.5659 22.9224 91.2755 33.1258 90.0291C33.1854 89.0999 33.2449 88.1687 33.3066 87.2294C33.3661 86.3022 33.4278 85.367 33.4873 84.4297C33.779 79.9433 34.0707 75.4124 34.3624 70.9603C28.4832 71.0351 22.9511 72.5743 18.516 74.3398C17.4376 74.77 16.4433 75.2084 15.5066 75.6447Z"/>
    <path d="M21.3984 52.1811C21.5648 52.1286 21.725 52.07 21.8955 52.0175L21.9017 51.9831C21.9099 51.9851 21.9449 51.9912 21.9654 51.9952C25.8212 50.8196 30.1988 49.9732 34.8126 49.9732C35.1331 49.9732 35.4371 49.9934 35.7534 49.9995C35.8808 48.1067 36.002 46.2968 36.1211 44.5818C36.1848 43.6264 36.2506 42.7032 36.3101 41.8124C36.3759 40.8913 36.4354 39.9964 36.4971 39.1501C36.4991 39.1157 36.5012 39.0773 36.5032 39.043C36.5279 38.7077 36.5505 38.3905 36.5731 38.0673L34.2025 33.3931C25.4781 34.191 17.8775 38.8329 17.5406 39.043H17.4317L15.4268 54.4617C16.3614 54.0415 17.3701 53.6274 18.4259 53.2234C19.3729 52.8578 20.361 52.5083 21.3984 52.1811Z"/>
    <path d="M59.3402 88.7789C59.4183 88.5042 59.5005 88.2295 59.6484 87.9083C60.6878 85.658 58.2494 84.6116 56.6636 82.9916C55.6159 83.1088 54.4963 83.1896 53.3624 83.1896C51.1356 83.1896 48.8944 82.8825 47.2325 81.9493L46.0719 81.311C42.3846 79.295 38.3028 76.9861 38.7321 71.118C37.9926 71.0595 37.2407 71.0191 36.4807 70.9928C36.191 75.4085 35.8993 79.8869 35.6138 84.2905C35.5542 85.2176 35.4926 86.1388 35.4351 87.0579C35.3755 87.9891 35.3139 88.9122 35.2563 89.8333C35.9281 89.7909 36.608 89.7626 37.2921 89.7626C43.6335 89.7626 49.8435 91.6695 55.8501 93.5138C58.8493 94.4329 61.7663 95.3298 64.6586 95.9943C64.6812 95.055 64.7018 94.1097 64.7264 93.1562C64.7264 93.132 64.7264 93.1098 64.7264 93.0855C60.4495 91.9402 58.6747 91.0918 59.3402 88.7789Z"/>
    <path d="M68.4751 29.684C69.0071 28.7932 69.4817 27.868 69.8638 26.8924L69.8966 26.8257H69.8884C70.6978 24.7249 71.1641 22.4524 71.1641 20.0708C71.1641 9.53854 62.4829 1 51.77 1C41.0592 1 32.376 9.53854 32.376 20.0708C32.376 22.4524 32.8402 24.7249 33.6517 26.8257H33.6414L33.6763 26.8924C34.1241 28.0397 34.6788 29.1305 35.3341 30.1587L36.9138 33.2715V33.2735L38.7585 36.9095L39.8411 39.0406L39.9027 39.1618L41.2462 41.8101L42.6513 44.5795L45.9874 51.1546L47.1973 53.5382L51.7721 62.5514L55.293 55.6107L56.2544 53.7159L60.8888 44.5795L62.2939 41.8101L63.1567 40.1092L63.5839 39.2669L63.699 39.0406L66.2257 34.0613L68.206 30.1587C68.3025 30.0032 68.3806 29.8395 68.4751 29.684ZM51.77 29.886C46.468 29.886 42.1685 25.6622 42.1685 20.4486C42.1685 15.2329 46.468 11.0051 51.77 11.0051C57.07 11.0051 61.3715 15.2329 61.3715 20.4486C61.3695 25.6622 57.07 29.886 51.77 29.886Z"/>
</symbol><symbol viewBox="0 0 100 100" id="invest-standart-tasks" xmlns="http://www.w3.org/2000/svg">
    <g clip-path="url(#lclip0_124_2319)">
        <path d="M95.3569 13.6932H91.944V83.0736C91.944 86.5712 89.0822 89.433 85.5846 89.433H13.9786C10.481 89.433 7.61923 86.5712 7.61923 83.0736V13.6932H4.20631C1.87464 13.6932 -0.0332031 15.5799 -0.0332031 17.9328V93.0577C-0.0332031 95.4106 1.87464 97.2973 4.20631 97.2973H95.3569C97.6886 97.2973 99.5964 95.4106 99.5964 93.0577V17.9328C99.5964 15.5799 97.6886 13.6932 95.3569 13.6932Z"/>
        <path d="M13.9869 85.1931H47.6619V3.60358H13.9869C12.8162 3.60358 11.8672 4.55274 11.8672 5.7234V83.0732C11.8672 84.2439 12.8162 85.1931 13.9869 85.1931ZM42.4071 72.0559H31.1891C30.0186 72.0559 29.0694 71.1067 29.0694 69.936C29.0694 68.7655 30.0186 67.8163 31.1891 67.8163H42.4071C43.5777 67.8163 44.5268 68.7655 44.5268 69.936C44.5268 71.1067 43.5777 72.0559 42.4071 72.0559ZM42.4071 55.9805H31.1891C30.0186 55.9805 29.0694 55.0313 29.0694 53.8607C29.0694 52.6902 30.0186 51.741 31.1891 51.741H42.4071C43.5777 51.741 44.5268 52.6902 44.5268 53.8607C44.5268 55.0313 43.5777 55.9805 42.4071 55.9805ZM44.5268 37.7864C44.5268 38.9571 43.5777 39.9063 42.4071 39.9063H31.1891C30.0186 39.9063 29.0694 38.9571 29.0694 37.7864C29.0694 36.6158 30.0186 35.6666 31.1891 35.6666H42.4071C43.5777 35.6666 44.5268 36.6158 44.5268 37.7864ZM23.6541 17.0234C24.5244 16.2377 25.8639 16.3081 26.6474 17.1786L30.5567 21.5165L39.3123 12.4237C40.1247 11.5821 41.4651 11.5563 42.3098 12.3677C43.1523 13.1792 43.1781 14.5216 42.3656 15.3652L32.0318 26.0966C31.6322 26.5117 31.0805 26.7455 30.5051 26.7455C30.4937 26.7455 30.4812 26.7455 30.4699 26.7455C29.8819 26.7352 29.3241 26.4817 28.9307 26.0449L23.4988 20.0167C22.7142 19.1473 22.7846 17.8069 23.6541 17.0234ZM20.2374 35.6666H24.389C25.5595 35.6666 26.5087 36.6158 26.5087 37.7864C26.5087 38.9571 25.5595 39.9063 24.389 39.9063H20.2374C19.0667 39.9063 18.1175 38.9571 18.1175 37.7864C18.1175 36.6158 19.0667 35.6666 20.2374 35.6666ZM20.2374 51.741H24.389C25.5595 51.741 26.5087 52.6902 26.5087 53.8607C26.5087 55.0313 25.5595 55.9805 24.389 55.9805H20.2374C19.0667 55.9805 18.1175 55.0313 18.1175 53.8607C18.1175 52.6902 19.0667 51.741 20.2374 51.741ZM20.2374 67.8163H24.389C25.5595 67.8163 26.5087 68.7655 26.5087 69.936C26.5087 71.1067 25.5595 72.0559 24.389 72.0559H20.2374C19.0667 72.0559 18.1175 71.1067 18.1175 69.936C18.1175 68.7655 19.0667 67.8163 20.2374 67.8163Z"/>
        <path d="M87.6961 83.0732V5.7234C87.6961 4.55274 86.7471 3.60358 85.5764 3.60358H51.9014V85.1931H85.5764C86.7471 85.1931 87.6961 84.2439 87.6961 83.0732ZM68.3742 72.0559H57.1562C55.9856 72.0559 55.0365 71.1067 55.0365 69.936C55.0365 68.7655 55.9856 67.8163 57.1562 67.8163H68.3742C69.5447 67.8163 70.4939 68.7655 70.4939 69.936C70.4939 71.1067 69.5447 72.0559 68.3742 72.0559ZM68.3742 55.9805H57.1562C55.9856 55.9805 55.0365 55.0313 55.0365 53.8607C55.0365 52.6902 55.9856 51.741 57.1562 51.741H68.3742C69.5447 51.741 70.4939 52.6902 70.4939 53.8607C70.4939 55.0313 69.5447 55.9805 68.3742 55.9805ZM68.3742 39.9063H57.1562C55.9856 39.9063 55.0365 38.9571 55.0365 37.7864C55.0365 36.6158 55.9856 35.6666 57.1562 35.6666H68.3742C69.5447 35.6666 70.4939 36.6158 70.4939 37.7864C70.4939 38.9571 69.5447 39.9063 68.3742 39.9063ZM68.8596 21.2199L65.0971 24.9819C64.6831 25.3959 64.1408 25.6029 63.5985 25.6029C63.056 25.6029 62.5137 25.3959 62.0996 24.9819C61.2717 24.1538 61.2717 22.8125 62.0996 21.9844L65.8619 18.2225L62.0996 14.4606C61.2717 13.6325 61.2717 12.2912 62.0996 11.4631C62.9277 10.635 64.2691 10.635 65.0971 11.4631L68.8596 15.2251L72.622 11.4631C73.4499 10.635 74.7914 10.635 75.6195 11.4631C76.4474 12.2912 76.4474 13.6325 75.6195 14.4606L71.8572 18.2225L75.6195 21.9844C76.4474 22.8125 76.4474 24.1538 75.6195 24.9819C75.2054 25.3959 74.6631 25.6029 74.1207 25.6029C73.5783 25.6029 73.036 25.3959 72.622 24.9819L68.8596 21.2199ZM79.3259 72.0559H75.1743C74.0038 72.0559 73.0546 71.1067 73.0546 69.936C73.0546 68.7655 74.0038 67.8163 75.1743 67.8163H79.3259C80.4966 67.8163 81.4458 68.7655 81.4458 69.936C81.4458 71.1067 80.4966 72.0559 79.3259 72.0559ZM79.3259 55.9805H75.1743C74.0038 55.9805 73.0546 55.0313 73.0546 53.8607C73.0546 52.6902 74.0038 51.741 75.1743 51.741H79.3259C80.4966 51.741 81.4458 52.6902 81.4458 53.8607C81.4458 55.0313 80.4966 55.9805 79.3259 55.9805ZM79.3259 39.9063H75.1743C74.0038 39.9063 73.0546 38.9571 73.0546 37.7864C73.0546 36.6158 74.0038 35.6666 75.1743 35.6666H79.3259C80.4966 35.6666 81.4458 36.6158 81.4458 37.7864C81.4458 38.9571 80.4966 39.9063 79.3259 39.9063Z"/>
    </g>
    <defs>
        <clipPath id="lclip0_124_2319">
            <rect width="100" height="100"/>
        </clipPath>
    </defs>
</symbol><symbol viewBox="0 0 100 62" id="invest-standart-team" xmlns="http://www.w3.org/2000/svg">
    <path d="M75 59.0144V61.7895H25V59.0144C25 52.3903 27.6339 46.0375 32.3223 41.3536C37.0107 36.6697 43.3696 34.0383 50 34.0383C56.6304 34.0383 62.9893 36.6697 67.6777 41.3536C72.3661 46.0375 75 52.3903 75 59.0144ZM50 28.4881C52.747 28.4881 55.4322 27.6743 57.7163 26.1496C60.0003 24.6249 61.7804 22.4578 62.8317 19.9224C63.8829 17.387 64.1579 14.5971 63.622 11.9055C63.0861 9.21385 61.7633 6.74146 59.8209 4.80092C57.8785 2.86038 55.4038 1.53886 52.7096 1.00347C50.0154 0.468076 47.2228 0.742859 44.6849 1.79307C42.1471 2.84328 39.9779 4.62175 38.4518 6.90358C36.9257 9.18541 36.1111 11.8681 36.1111 14.6125C36.1111 18.2925 37.5744 21.8218 40.1791 24.424C42.7837 27.0262 46.3164 28.4881 50 28.4881ZM19.4444 39.5885C14.2875 39.5885 9.34169 41.6352 5.69515 45.2782C2.0486 48.9213 0 53.8623 0 59.0144L0 61.7895H19.4444V59.0144C19.4363 52.3651 21.6016 45.8949 25.6111 40.5876C23.6221 39.928 21.5402 39.5907 19.4444 39.5885ZM19.4444 34.0383C21.642 34.0383 23.7902 33.3873 25.6174 32.1675C27.4447 30.9478 28.8688 29.2141 29.7098 27.1858C30.5507 25.1574 30.7708 22.9255 30.3421 20.7722C29.9133 18.6189 28.8551 16.641 27.3012 15.0886C25.7473 13.5362 23.7675 12.4789 21.6121 12.0506C19.4568 11.6223 17.2227 11.8421 15.1924 12.6823C13.1621 13.5225 11.4268 14.9453 10.2059 16.7707C8.98499 18.5962 8.33333 20.7423 8.33333 22.9378C8.33333 25.8818 9.50396 28.7053 11.5877 30.787C13.6714 32.8688 16.4976 34.0383 19.4444 34.0383ZM80.5555 39.5885C78.4598 39.5907 76.3779 39.928 74.3889 40.5876C78.3984 45.8949 80.5637 52.3651 80.5555 59.0144V61.7895H100V59.0144C100 53.8623 97.9514 48.9213 94.3049 45.2782C90.6583 41.6352 85.7125 39.5885 80.5555 39.5885ZM80.5555 34.0383C82.7531 34.0383 84.9013 33.3873 86.7286 32.1675C88.5558 30.9478 89.9799 29.2141 90.8209 27.1858C91.6619 25.1574 91.8819 22.9255 91.4532 20.7722C91.0244 18.6189 89.9662 16.641 88.4123 15.0886C86.8584 13.5362 84.8786 12.4789 82.7232 12.0506C80.5679 11.6223 78.3338 11.8421 76.3035 12.6823C74.2732 13.5225 72.5379 14.9453 71.317 16.7707C70.0961 18.5962 69.4444 20.7423 69.4444 22.9378C69.4444 25.8818 70.6151 28.7053 72.6988 30.787C74.7825 32.8688 77.6087 34.0383 80.5555 34.0383Z"/>
</symbol><symbol viewBox="0 0 28 31" id="location" xmlns="http://www.w3.org/2000/svg">
    <path fill-rule="evenodd" clip-rule="evenodd" d="M13.244 26.0847C10.3781 22.5849 4.06636 15.0774 4.06636 9.63436C4.06636 4.3136 8.37962 0 13.7004 0C19.0211 0 23.3344 4.3136 23.3344 9.63402C23.3344 15.0915 17.0183 22.5789 14.1514 26.0915C13.9156 26.3801 13.4723 26.3744 13.244 26.0847ZM21.0159 23.4671C24.7906 24.2092 29.5879 26.1403 22.8163 28.0748C17.7994 29.508 9.60135 29.508 4.58442 28.0748C-2.18981 26.1393 2.60884 24.2061 6.38451 23.4671C7.13768 23.3196 6.91335 22.1767 6.16152 22.3239C4.00876 22.7453 0 23.8164 0 25.985C0 27.3125 1.63032 28.4423 4.26577 29.1955C9.49389 30.6893 17.9072 30.6893 23.1353 29.1955C25.7708 28.4426 27.4008 27.3128 27.4008 25.985C27.4008 23.8168 23.392 22.7456 21.2392 22.3239C20.4871 22.1767 20.2634 23.3206 21.0159 23.4671ZM13.7004 4.77709C11.0178 4.77709 8.84312 6.95175 8.84312 9.63436C8.84312 13.9476 14.0827 16.1209 17.1348 13.0688C20.1869 10.0167 18.014 4.77709 13.7004 4.77709ZM16.3106 7.02417C13.9914 4.70501 10.0093 6.35554 10.0093 9.63436C10.0093 12.9125 13.9911 14.5637 16.3106 12.2445C17.7519 10.8029 17.7519 8.46552 16.3106 7.02417ZM13.5912 24.6703L13.7004 24.8034C13.7275 24.7702 13.755 24.7366 13.7829 24.7026C16.4601 21.4323 22.1686 14.4593 22.1686 9.63436C22.1686 2.11436 13.0341 -1.67478 7.71267 3.64665C6.18004 5.17895 5.23251 7.296 5.23251 9.63436C5.23217 14.4643 10.9689 21.4686 13.5901 24.6689C13.5905 24.6694 13.5909 24.6698 13.5912 24.6703Z"/>
    <path fill-rule="evenodd" clip-rule="evenodd" d="M13.5912 24.6703L13.7004 24.8034L13.7829 24.7026C16.4601 21.4323 22.1686 14.4593 22.1686 9.63436C22.1686 2.11436 13.0341 -1.67478 7.71267 3.64665C6.18004 5.17895 5.23251 7.296 5.23251 9.63436C5.23217 14.4643 10.9689 21.4686 13.5901 24.6689L13.5912 24.6703ZM8.84312 9.63436C8.84312 6.95175 11.0178 4.77709 13.7004 4.77709C18.014 4.77709 20.1869 10.0167 17.1348 13.0688C14.0827 16.1209 8.84312 13.9476 8.84312 9.63436Z"/>
</symbol><symbol viewBox="0 0 33 32" id="nav-profile" xmlns="http://www.w3.org/2000/svg">
    <path d="M16.7941 16.5817C21.3723 16.5817 25.0843 12.8698 25.0843 8.29087C25.0843 3.71325 21.3723 0 16.7941 0C12.2152 0 8.50391 3.71325 8.50391 8.29087C8.50391 12.8698 12.2152 16.5817 16.7941 16.5817Z"/>
    <path d="M27.4116 24.569C27.0415 22.3519 25.1616 19.2872 23.8146 17.8524C23.4503 17.4642 22.8178 17.6257 22.5956 17.7632C20.9056 18.8052 18.9217 19.4132 16.7944 19.4132C14.6671 19.4132 12.6833 18.8052 10.9933 17.7632C10.7711 17.6257 10.1386 17.4642 9.77421 17.8524C8.42733 19.2872 6.54746 22.3519 6.17727 24.569C5.26777 30.0277 11.0993 32 16.7945 32C22.4896 32 28.3211 30.0277 27.4116 24.569Z"/>
</symbol><symbol viewBox="0 0 33 32" id="nav-search" xmlns="http://www.w3.org/2000/svg">
    <path d="M27.3568 24.9733L23.0328 20.6493C24.3513 18.9304 25.0648 16.8238 25.0621 14.6573C25.0621 12.0107 24.0314 9.52333 22.1601 7.652C21.2423 6.7291 20.1506 5.99741 18.9481 5.49928C17.7457 5.00115 16.4563 4.74647 15.1548 4.75C12.5088 4.75 10.0214 5.78066 8.14943 7.652C4.28743 11.5147 4.28743 17.8 8.14943 21.6627C9.06719 22.5856 10.1589 23.3173 11.3614 23.8154C12.5639 24.3136 13.8532 24.5682 15.1548 24.5647C17.3508 24.5647 19.4314 23.8453 21.1474 22.5347L25.4714 26.8593C25.7314 27.1193 26.0728 27.25 26.4141 27.25C26.7554 27.25 27.0968 27.1193 27.3568 26.8593C27.4806 26.7355 27.5789 26.5885 27.6459 26.4267C27.713 26.2649 27.7475 26.0915 27.7475 25.9163C27.7475 25.7412 27.713 25.5678 27.6459 25.406C27.5789 25.2442 27.4806 25.0971 27.3568 24.9733ZM10.0354 19.7773C7.2121 16.954 7.21276 12.3607 10.0354 9.53733C10.7063 8.86305 11.5043 8.3285 12.3831 7.96461C13.262 7.60072 14.2042 7.4147 15.1554 7.41733C16.1065 7.41472 17.0487 7.60074 17.9274 7.96464C18.8061 8.32853 19.604 8.86307 20.2748 9.53733C20.9492 10.2081 21.4839 11.0061 21.8479 11.8849C22.212 12.7638 22.398 13.7061 22.3954 14.6573C22.3954 16.5913 21.6421 18.4093 20.2748 19.7773C18.9074 21.1453 17.0894 21.8973 15.1548 21.8973C13.2214 21.8973 11.4028 21.144 10.0348 19.7773H10.0354Z"/>
</symbol><symbol viewBox="0 0 32 33" id="non-website" xmlns="http://www.w3.org/2000/svg">
    <g clip-path="url(#qclip0_124_2954)">
        <path d="M27.9998 5.92331C27.963 5.86996 27.9205 5.82078 27.8731 5.77664C26.3754 4.11547 24.5454 2.78736 22.5018 1.8783C20.4582 0.969246 18.2465 0.499512 16.0098 0.499512C13.7731 0.499512 11.5613 0.969246 9.51773 1.8783C7.47411 2.78736 5.64419 4.11547 4.14644 5.77664C4.09901 5.82078 4.05653 5.86996 4.01978 5.92331C1.43616 8.84076 0.00976562 12.603 0.00976562 16.5C0.00976562 20.397 1.43616 24.1592 4.01978 27.0766C4.05653 27.13 4.09901 27.1792 4.14644 27.2233C5.64417 28.8839 7.47389 30.2116 9.5172 31.1203C11.5605 32.029 13.7718 32.4986 16.0081 32.4986C18.2444 32.4986 20.4557 32.029 22.499 31.1203C24.5423 30.2116 26.3721 28.8839 27.8698 27.2233C27.9034 27.1901 27.9346 27.1544 27.9631 27.1166C30.5621 24.2008 32.0013 20.4329 32.0081 16.5269C32.0148 12.6209 30.5887 8.84813 27.9998 5.92331ZM11.0598 3.40331C10.2222 4.54112 9.54892 5.79116 9.05978 7.11664C8.18467 6.88047 7.32795 6.58078 6.49644 6.21998C7.82184 4.99581 9.37138 4.03938 11.0598 3.40331ZM5.07644 7.75665C6.16213 8.2793 7.29356 8.70108 8.45644 9.01665C7.8888 11.1332 7.57328 13.3094 7.51644 15.5H2.03978C2.23982 12.6699 3.29928 9.96828 5.07644 7.75665ZM2.03978 17.5H7.51644C7.57328 19.6906 7.8888 21.8668 8.45644 23.9833C7.29356 24.2989 6.16213 24.7207 5.07644 25.2433C3.29928 23.0317 2.23982 20.3301 2.03978 17.5ZM6.50978 26.78C7.34129 26.4192 8.198 26.1195 9.07311 25.8833C9.56225 27.2088 10.2355 28.4588 11.0731 29.5966C9.38471 28.9606 7.83518 28.0041 6.50978 26.78ZM14.9998 30.3266C13.4364 29.78 12.0398 27.9933 11.0431 25.44C12.3501 25.2043 13.6724 25.0639 14.9998 25.02V30.3266ZM14.9998 23.0166C13.4589 23.0653 11.9242 23.2347 10.4098 23.5233C9.87853 21.5573 9.57982 19.5357 9.51978 17.5H14.9998V23.0166ZM14.9998 15.5H9.51978C9.57982 13.4643 9.87853 11.4427 10.4098 9.47665C11.9242 9.76528 13.4589 9.93469 14.9998 9.98331V15.5ZM14.9998 7.97998C13.6724 7.93607 12.3501 7.7957 11.0431 7.55998C12.0431 5.01998 13.4364 3.22664 14.9998 2.67331V7.97998ZM29.9598 15.5H24.4831C24.4263 13.3094 24.1107 11.1332 23.5431 9.01665C24.706 8.70108 25.8374 8.2793 26.9231 7.75665C28.7003 9.96828 29.7597 12.6699 29.9598 15.5ZM25.4898 6.21998C24.6583 6.58078 23.8015 6.88047 22.9264 7.11664C22.4373 5.79116 21.764 4.54112 20.9264 3.40331C22.6148 4.03938 24.1644 4.99581 25.4898 6.21998ZM16.9998 2.67331C18.5631 3.21998 19.9598 5.00665 20.9564 7.55998C19.6495 7.7957 18.3271 7.93607 16.9998 7.97998V2.67331ZM16.9998 9.98331C18.5407 9.93469 20.0754 9.76528 21.5898 9.47665C22.121 11.4427 22.4197 13.4643 22.4798 15.5H16.9998V9.98331ZM16.9998 17.5H22.4798C22.4197 19.5357 22.121 21.5573 21.5898 23.5233C20.0754 23.2347 18.5407 23.0653 16.9998 23.0166V17.5ZM16.9998 30.3266V25.02C18.3271 25.0639 19.6495 25.2043 20.9564 25.44C19.9598 27.98 18.5631 29.78 16.9998 30.3266ZM20.9398 29.5966C21.7774 28.4588 22.4506 27.2088 22.9398 25.8833C23.8149 26.1195 24.6716 26.4192 25.5031 26.78C24.1777 28.0041 22.6282 28.9606 20.9398 29.5966ZM26.9398 25.2433C25.8541 24.7207 24.7227 24.2989 23.5598 23.9833C24.1218 21.8661 24.4317 19.6899 24.4831 17.5H29.9598C29.7597 20.3301 28.7003 23.0317 26.9231 25.2433H26.9398Z"/>
    </g>
    <defs>
        <clipPath id="qclip0_124_2954">
            <rect width="32" height="32" transform="translate(0 0.5)"/>
        </clipPath>
    </defs>
</symbol><symbol viewBox="0 0 32 33" id="phone" xmlns="http://www.w3.org/2000/svg">
    <path d="M31.8351 25.4389C30.3956 22.4339 27.9405 20.4732 24.4331 19.5982C23.9063 19.4668 23.3465 19.5973 22.926 19.9409L20.0131 22.321C19.4444 22.7857 18.6406 22.8455 18.0155 22.4599C14.9343 20.5592 12.4412 18.0662 10.5405 14.985C10.155 14.3599 10.2147 13.5561 10.6795 12.9874L13.0596 10.0746C13.4032 9.65407 13.5337 9.09443 13.4023 8.56737C12.5273 5.06023 10.5665 2.60522 7.56157 1.16549C7.07674 0.933235 6.50475 0.946242 6.03066 1.19949C4.51962 2.00644 3.07382 2.91974 1.70423 3.94641C1.17971 4.33952 0.91504 4.98973 1.02432 5.63612C2.009 11.4677 5.15982 17.6001 10.2801 22.7201C15.4005 27.8405 21.5327 30.991 27.3641 31.9758C28.0104 32.0848 28.6604 31.8202 29.0538 31.2959C30.0807 29.9263 30.9938 28.4805 31.8007 26.9694C32.0537 26.4951 32.0667 25.9231 31.8345 25.4383L31.8351 25.4389Z"/>
</symbol><symbol viewBox="0 0 24 24" id="search" xmlns="http://www.w3.org/2000/svg">
    <path d="M18.5 18.5L22 22M21 11.5C21 6.25329 16.7467 2 11.5 2C6.25329 2 2 6.25329 2 11.5C2 16.7467 6.25329 21 11.5 21C16.7467 21 21 16.7467 21 11.5Z" stroke-width="1.5" stroke-linecap="round" stroke-linejoin="round"/>
</symbol><symbol viewBox="0 0 24 24" id="search-line" xmlns="http://www.w3.org/2000/svg">
    <path d="M18.031 16.6168L22.3137 20.8995L20.8995 22.3137L16.6168 18.031C15.0769 19.263 13.124 20 11 20C6.032 20 2 15.968 2 11C2 6.032 6.032 2 11 2C15.968 2 20 6.032 20 11C20 13.124 19.263 15.0769 18.031 16.6168ZM16.0247 15.8748C17.2475 14.6146 18 12.8956 18 11C18 7.1325 14.8675 4 11 4C7.1325 4 4 7.1325 4 11C4 14.8675 7.1325 18 11 18C12.8956 18 14.6146 17.2475 15.8748 16.0247L16.0247 15.8748Z"/>
</symbol><symbol viewBox="0 0 14 24" id="slider-arrow-next" xmlns="http://www.w3.org/2000/svg">
    <path d="M13.0607 13.0607C13.6464 12.4749 13.6464 11.5251 13.0607 10.9393L3.51472 1.3934C2.92893 0.807611 1.97919 0.807611 1.3934 1.3934C0.807611 1.97919 0.807611 2.92893 1.3934 3.51472L9.87868 12L1.3934 20.4853C0.807611 21.0711 0.807611 22.0208 1.3934 22.6066C1.97919 23.1924 2.92893 23.1924 3.51472 22.6066L13.0607 13.0607ZM11 13.5H12V10.5H11V13.5Z"/>
</symbol><symbol viewBox="0 0 14 24" id="slider-arrow-prev" xmlns="http://www.w3.org/2000/svg">
    <path d="M0.93934 10.9393C0.353553 11.5251 0.353553 12.4749 0.93934 13.0607L10.4853 22.6066C11.0711 23.1924 12.0208 23.1924 12.6066 22.6066C13.1924 22.0208 13.1924 21.0711 12.6066 20.4853L4.12132 12L12.6066 3.51472C13.1924 2.92893 13.1924 1.97919 12.6066 1.3934C12.0208 0.807611 11.0711 0.807611 10.4853 1.3934L0.93934 10.9393ZM3 10.5H2L2 13.5H3V10.5Z"/>
</symbol><symbol viewBox="0 0 16 16" id="tab-arrow" xmlns="http://www.w3.org/2000/svg">
    <path d="M5.70711 1.29289L12.0711 7.65685C12.4616 8.04738 12.4616 8.68054 12.0711 9.07107L5.70711 15.435C5.31658 15.8256 4.68342 15.8256 4.29289 15.435C3.90237 15.0445 3.90237 14.4113 4.29289 14.0208L9.86396 8.36401L4.29289 2.70711C3.90237 2.31658 3.90237 1.68342 4.29289 1.29289C4.68342 0.902369 5.31658 0.902369 5.70711 1.29289Z"/>
</symbol><symbol viewBox="0 0 24 24" id="user" xmlns="http://www.w3.org/2000/svg">
    <path d="M18.5588 19.5488C17.5654 16.8918 15.0036 15 12 15C8.99638 15 6.4346 16.8918 5.44117 19.5488M18.5588 19.5488C20.6672 17.7154 22 15.0134 22 12C22 6.47715 17.5228 2 12 2C6.47715 2 2 6.47715 2 12C2 15.0134 3.33285 17.7154 5.44117 19.5488M18.5588 19.5488C16.8031 21.0756 14.5095 22 12 22C9.49052 22 7.19694 21.0756 5.44117 19.5488M15 9C15 10.6569 13.6569 12 12 12C10.3431 12 9 10.6569 9 9C9 7.34315 10.3431 6 12 6C13.6569 6 15 7.34315 15 9Z" stroke-width="1.5" stroke-linejoin="round"/>
</symbol><symbol viewBox="0 0 24 24" id="user-star-line" xmlns="http://www.w3.org/2000/svg">
    <path d="M12 14V16C8.68629 16 6 18.6863 6 22H4C4 17.5817 7.58172 14 12 14ZM12 13C8.685 13 6 10.315 6 7C6 3.685 8.685 1 12 1C15.315 1 18 3.685 18 7C18 10.315 15.315 13 12 13ZM12 11C14.21 11 16 9.21 16 7C16 4.79 14.21 3 12 3C9.79 3 8 4.79 8 7C8 9.21 9.79 11 12 11ZM18 21.5L15.0611 23.0451L15.6224 19.7725L13.2447 17.4549L16.5305 16.9775L18 14L19.4695 16.9775L22.7553 17.4549L20.3776 19.7725L20.9389 23.0451L18 21.5Z"/>
</symbol><symbol id="website" enable-background="new 0 0 497 497" viewBox="0 0 497 497" xmlns="http://www.w3.org/2000/svg">
    <g>
        <path d="m497 128.5v312c0 11.046-8.954 20-20 20h-457c-11.046 0-20-8.954-20-20v-312z"/>
        <g>
            <path d="m290.498 294.5c0-23.196-18.804-42-42-42-7.031 0-13.659 1.728-19.482 4.782-13.386 7.021-19.327 21.053-19.327 37.218 0 23.196 15.613 36.457 38.809 36.457 16.214 0 30.282-3.645 37.282-17.099 3.014-5.792 4.718-12.376 4.718-19.358z"/>
            <path d="m286.468 312.47c-6.73 14.21-21.2 24.03-37.97 24.03-23.2 0-42-18.8-42-42 0-16.77 9.82-31.24 24.03-37.97-2.59 5.45-4.03 11.54-4.03 17.97 0 23.2 18.8 42 42 42 6.43 0 12.52-1.44 17.97-4.03z"/>
        </g>
        <g>
            <path d="m429.496 294.5c0-23.196-18.804-42-42-42-7.031 0-13.659 1.728-19.482 4.782-13.386 7.021-19.327 21.053-19.327 37.218 0 23.196 15.613 36.457 38.809 36.457 16.214 0 30.282-3.645 37.282-17.099 3.014-5.792 4.718-12.376 4.718-19.358z"/>
            <path d="m425.466 312.47c-6.73 14.21-21.2 24.03-37.97 24.03-23.2 0-42-18.8-42-42 0-16.77 9.82-31.24 24.03-37.97-2.59 5.45-4.03 11.54-4.03 17.97 0 23.2 18.8 42 42 42 6.43 0 12.52-1.44 17.97-4.03z"/>
        </g>
        <path d="m497 148.5v-20l-276.011-12.798-220.989 12.798v20 292c0 11.046 8.954 20 20 20h15c-8.28 0-15-6.72-15-15v-291c0-3.314 2.686-6 6-6z"/>
        <g>
            <path d="m497 56.5v72.5h-497v-72.5c0-11.046 8.954-20 20-20h457c11.046 0 20 8.954 20 20z"/>
            <g>
                <path d="m227.758 108.5c-8.255 0-14.947-6.716-14.947-15s6.692-15 14.947-15h208.315c8.255 0 14.947 6.716 14.947 15s-6.692 15-14.947 15z"/>
                <ellipse cx="160.869" cy="93.5" rx="14.947" ry="15"/>
                <path d="m171.361 104.184 12.874-12.869-13.139 1.179z"/>
                <path d="m150.592 82.608 12.562-12.516-2.693 10.408z"/>
                <ellipse cx="98.034" cy="93.5" rx="14.947" ry="15"/>
                <path d="m108.553 104.157 12.382-12.499-12.674.836z"/>
                <path d="m87.757 82.608 12.371-12.459-2.502 10.351z"/>
                <ellipse cx="32.947" cy="93.5" rx="14.947" ry="15"/>
                <path d="m43.769 103.846 12.721-13.186-13.139 1.381z"/>
                <path d="m22.67 82.608 11.622-12.038-1.753 9.93z"/>
            </g>
            <ellipse cx="173.849" cy="80.5" rx="14.947" ry="15"/>
            <path d="m217.514 82.577 12.971-12.991-3.025 14.276z"/>
            <path d="m446.83 103.915 13.149-13.179-10.185 3.381z"/>
            <ellipse cx="110.946" cy="80.5" rx="14.947" ry="15"/>
            <ellipse cx="45.495" cy="80.5" rx="14.947" ry="15"/>
            <path d="m240.737 95.5c-8.255 0-14.947-6.716-14.947-15s6.692-15 14.947-15h208.315c8.255 0 14.947 6.716 14.947 15s-6.692 15-14.947 15z"/>
        </g>
        <path d="m135.893 215 226.628 2c5.523 0 10-4.477 10-10l3.479-7v-30c0-5.523-4.477-10-10-10h-224l-6.107 5c-5.523 0-10 4.477-10 10v30c0 5.523 4.477 10 10 10z"/>
        <path d="m376 200v10c0 5.523-4.477 10-10 10h-234c-5.523 0-10-4.477-10-10v-40c0-5.523 4.477-10 10-10h10v33c0 3.866 3.134 7 7 7z"/>
        <g>
            <path d="m151.5 294.5c0-23.196-18.804-42-42-42-7.031 0-13.659 1.728-19.482 4.782-13.386 7.021-19.327 21.053-19.327 37.218 0 23.196 15.613 36.457 38.809 36.457 16.214 0 30.282-3.645 37.282-17.099 3.014-5.792 4.718-12.376 4.718-19.358z"/>
            <path d="m147.47 312.47c-6.73 14.21-21.2 24.03-37.97 24.03-23.2 0-42-18.8-42-42 0-16.77 9.82-31.24 24.03-37.97-2.59 5.45-4.03 11.54-4.03 17.97 0 23.2 18.8 42 42 42 6.43 0 12.52-1.44 17.97-4.03z"/>
        </g>
        <g>
            <g>
                <path d="m149.5 374h-70c-4.142 0-7.5-3.358-7.5-7.5s3.358-7.5 7.5-7.5h70c4.142 0 7.5 3.358 7.5 7.5s-3.358 7.5-7.5 7.5z"/>
            </g>
            <g>
                <path d="m149.5 404h-80c-4.142 0-7.5-3.358-7.5-7.5s3.358-7.5 7.5-7.5h80c4.142 0 7.5 3.358 7.5 7.5s-3.358 7.5-7.5 7.5z"/>
            </g>
            <g>
                <path d="m149.5 434h-80c-4.142 0-7.5-3.358-7.5-7.5s3.358-7.5 7.5-7.5h80c4.142 0 7.5 3.358 7.5 7.5s-3.358 7.5-7.5 7.5z"/>
            </g>
        </g>
        <g>
            <g>
                <path d="m288.5 374h-70c-4.142 0-7.5-3.358-7.5-7.5s3.358-7.5 7.5-7.5h70c4.143 0 7.5 3.358 7.5 7.5s-3.357 7.5-7.5 7.5z"/>
            </g>
            <g>
                <path d="m288.5 404h-80c-4.142 0-7.5-3.358-7.5-7.5s3.358-7.5 7.5-7.5h80c4.143 0 7.5 3.358 7.5 7.5s-3.357 7.5-7.5 7.5z"/>
            </g>
            <g>
                <path d="m288.5 434h-80c-4.142 0-7.5-3.358-7.5-7.5s3.358-7.5 7.5-7.5h80c4.143 0 7.5 3.358 7.5 7.5s-3.357 7.5-7.5 7.5z"/>
            </g>
        </g>
        <g>
            <g>
                <path d="m427.5 374h-70c-4.143 0-7.5-3.358-7.5-7.5s3.357-7.5 7.5-7.5h70c4.143 0 7.5 3.358 7.5 7.5s-3.357 7.5-7.5 7.5z"/>
            </g>
            <g>
                <path d="m427.5 404h-80c-4.143 0-7.5-3.358-7.5-7.5s3.357-7.5 7.5-7.5h80c4.143 0 7.5 3.358 7.5 7.5s-3.357 7.5-7.5 7.5z"/>
            </g>
            <g>
                <path d="m427.5 434h-80c-4.143 0-7.5-3.358-7.5-7.5s3.357-7.5 7.5-7.5h80c4.143 0 7.5 3.358 7.5 7.5s-3.357 7.5-7.5 7.5z"/>
            </g>
        </g>
    </g>
</symbol></svg>