<?xml version="1.0" encoding="utf-8"?><svg xmlns="http://www.w3.org/2000/svg" xmlns:xlink="http://www.w3.org/1999/xlink"><symbol viewBox="0 0 14 14" id="arrow-right" xmlns="http://www.w3.org/2000/svg">
    <path d="M0.600391 6.19979H10.3364L5.86439 1.72779L7.00039 0.599792L13.4004 6.99979L7.00039 13.3998L5.87239 12.2718L10.3364 7.79979H0.600391V6.19979Z"/>
</symbol><symbol viewBox="0 0 32 33" id="email" xmlns="http://www.w3.org/2000/svg">
    <path d="M0 6.88327L1.52353 8.00098L14.21 17.2501C15.2817 18.0248 16.7183 18.0307 17.79 17.2501L30.4765 8.00098L32 6.88327C31.5076 5.49354 30.1984 4.5 28.6691 4.5H3.33092C1.80159 4.5 0.492386 5.49354 0 6.88327Z"/>
    <path d="M18.76 19.2915C17.9372 19.8802 16.9657 20.1773 16 20.1773C15.0343 20.1773 14.0629 19.8802 13.24 19.2915L1.71429 11.062L0 9.83337V23.6635C0 25.5951 1.57143 27.1667 3.50286 27.1667H28.4971C30.4286 27.1667 32 25.5951 32 23.6635V9.83337L30.2857 11.062L18.76 19.2915Z"/>
</symbol><symbol viewBox="0 0 24 25" id="heart" xmlns="http://www.w3.org/2000/svg">
    <path fill-rule="evenodd" clip-rule="evenodd" d="M12.6924 7.58373C12.3055 7.95505 11.6945 7.95505 11.3076 7.58373L10.6152 6.91927C9.80477 6.14154 8.70994 5.66667 7.5 5.66667C5.01472 5.66667 3 7.68139 3 10.1667C3 12.5493 4.28979 14.5167 6.15176 16.1332C8.01532 17.7511 10.2434 18.8241 11.5746 19.3717C11.853 19.4862 12.147 19.4862 12.4254 19.3717C13.7566 18.8241 15.9847 17.7511 17.8482 16.1332C19.7102 14.5167 21 12.5493 21 10.1667C21 7.68139 18.9853 5.66667 16.5 5.66667C15.2901 5.66667 14.1952 6.14154 13.3848 6.91927L12.6924 7.58373ZM12 5.47624C10.8321 4.35548 9.24649 3.66667 7.5 3.66667C3.91015 3.66667 1 6.57682 1 10.1667C1 16.5349 7.97034 20.0517 10.8138 21.2214C11.5796 21.5364 12.4204 21.5364 13.1862 21.2214C16.0297 20.0517 23 16.5349 23 10.1667C23 6.57682 20.0899 3.66667 16.5 3.66667C14.7535 3.66667 13.1679 4.35548 12 5.47624Z"/>
</symbol><symbol viewBox="0 0 24 24" id="heart-line" xmlns="http://www.w3.org/2000/svg">
    <path d="M12.001 4.52853C14.35 2.42 17.98 2.49 20.2426 4.75736C22.5053 7.02472 22.583 10.637 20.4786 12.993L11.9999 21.485L3.52138 12.993C1.41705 10.637 1.49571 7.01901 3.75736 4.75736C6.02157 2.49315 9.64519 2.41687 12.001 4.52853ZM18.827 6.1701C17.3279 4.66794 14.9076 4.60701 13.337 6.01687L12.0019 7.21524L10.6661 6.01781C9.09098 4.60597 6.67506 4.66808 5.17157 6.17157C3.68183 7.66131 3.60704 10.0473 4.97993 11.6232L11.9999 18.6543L19.0201 11.6232C20.3935 10.0467 20.319 7.66525 18.827 6.1701Z"/>
</symbol><symbol viewBox="0 0 24 24" id="id-card-line" xmlns="http://www.w3.org/2000/svg">
    <path d="M3 6H21V18H3V6ZM2 4C1.44772 4 1 4.44772 1 5V19C1 19.5523 1.44772 20 2 20H22C22.5523 20 23 19.5523 23 19V5C23 4.44772 22.5523 4 22 4H2ZM13 8H19V10H13V8ZM18 12H13V14H18V12ZM10.5 10C10.5 11.3807 9.38071 12.5 8 12.5C6.61929 12.5 5.5 11.3807 5.5 10C5.5 8.61929 6.61929 7.5 8 7.5C9.38071 7.5 10.5 8.61929 10.5 10ZM8 13.5C6.067 13.5 4.5 15.067 4.5 17H11.5C11.5 15.067 9.933 13.5 8 13.5Z"/>
</symbol><symbol viewBox="0 0 28 31" id="location" xmlns="http://www.w3.org/2000/svg">
    <path fill-rule="evenodd" clip-rule="evenodd" d="M13.244 26.0847C10.3781 22.5849 4.06636 15.0774 4.06636 9.63436C4.06636 4.3136 8.37962 0 13.7004 0C19.0211 0 23.3344 4.3136 23.3344 9.63402C23.3344 15.0915 17.0183 22.5789 14.1514 26.0915C13.9156 26.3801 13.4723 26.3744 13.244 26.0847ZM21.0159 23.4671C24.7906 24.2092 29.5879 26.1403 22.8163 28.0748C17.7994 29.508 9.60135 29.508 4.58442 28.0748C-2.18981 26.1393 2.60884 24.2061 6.38451 23.4671C7.13768 23.3196 6.91335 22.1767 6.16152 22.3239C4.00876 22.7453 0 23.8164 0 25.985C0 27.3125 1.63032 28.4423 4.26577 29.1955C9.49389 30.6893 17.9072 30.6893 23.1353 29.1955C25.7708 28.4426 27.4008 27.3128 27.4008 25.985C27.4008 23.8168 23.392 22.7456 21.2392 22.3239C20.4871 22.1767 20.2634 23.3206 21.0159 23.4671ZM13.7004 4.77709C11.0178 4.77709 8.84312 6.95175 8.84312 9.63436C8.84312 13.9476 14.0827 16.1209 17.1348 13.0688C20.1869 10.0167 18.014 4.77709 13.7004 4.77709ZM16.3106 7.02417C13.9914 4.70501 10.0093 6.35554 10.0093 9.63436C10.0093 12.9125 13.9911 14.5637 16.3106 12.2445C17.7519 10.8029 17.7519 8.46552 16.3106 7.02417ZM13.5912 24.6703L13.7004 24.8034C13.7275 24.7702 13.755 24.7366 13.7829 24.7026C16.4601 21.4323 22.1686 14.4593 22.1686 9.63436C22.1686 2.11436 13.0341 -1.67478 7.71267 3.64665C6.18004 5.17895 5.23251 7.296 5.23251 9.63436C5.23217 14.4643 10.9689 21.4686 13.5901 24.6689C13.5905 24.6694 13.5909 24.6698 13.5912 24.6703Z"/>
    <path fill-rule="evenodd" clip-rule="evenodd" d="M13.5912 24.6703L13.7004 24.8034L13.7829 24.7026C16.4601 21.4323 22.1686 14.4593 22.1686 9.63436C22.1686 2.11436 13.0341 -1.67478 7.71267 3.64665C6.18004 5.17895 5.23251 7.296 5.23251 9.63436C5.23217 14.4643 10.9689 21.4686 13.5901 24.6689L13.5912 24.6703ZM8.84312 9.63436C8.84312 6.95175 11.0178 4.77709 13.7004 4.77709C18.014 4.77709 20.1869 10.0167 17.1348 13.0688C14.0827 16.1209 8.84312 13.9476 8.84312 9.63436Z"/>
</symbol><symbol viewBox="0 0 33 32" id="nav-profile" xmlns="http://www.w3.org/2000/svg">
    <path d="M16.7941 16.5817C21.3723 16.5817 25.0843 12.8698 25.0843 8.29087C25.0843 3.71325 21.3723 0 16.7941 0C12.2152 0 8.50391 3.71325 8.50391 8.29087C8.50391 12.8698 12.2152 16.5817 16.7941 16.5817Z"/>
    <path d="M27.4116 24.569C27.0415 22.3519 25.1616 19.2872 23.8146 17.8524C23.4503 17.4642 22.8178 17.6257 22.5956 17.7632C20.9056 18.8052 18.9217 19.4132 16.7944 19.4132C14.6671 19.4132 12.6833 18.8052 10.9933 17.7632C10.7711 17.6257 10.1386 17.4642 9.77421 17.8524C8.42733 19.2872 6.54746 22.3519 6.17727 24.569C5.26777 30.0277 11.0993 32 16.7945 32C22.4896 32 28.3211 30.0277 27.4116 24.569Z"/>
</symbol><symbol viewBox="0 0 33 32" id="nav-search" xmlns="http://www.w3.org/2000/svg">
    <path d="M27.3568 24.9733L23.0328 20.6493C24.3513 18.9304 25.0648 16.8238 25.0621 14.6573C25.0621 12.0107 24.0314 9.52333 22.1601 7.652C21.2423 6.7291 20.1506 5.99741 18.9481 5.49928C17.7457 5.00115 16.4563 4.74647 15.1548 4.75C12.5088 4.75 10.0214 5.78066 8.14943 7.652C4.28743 11.5147 4.28743 17.8 8.14943 21.6627C9.06719 22.5856 10.1589 23.3173 11.3614 23.8154C12.5639 24.3136 13.8532 24.5682 15.1548 24.5647C17.3508 24.5647 19.4314 23.8453 21.1474 22.5347L25.4714 26.8593C25.7314 27.1193 26.0728 27.25 26.4141 27.25C26.7554 27.25 27.0968 27.1193 27.3568 26.8593C27.4806 26.7355 27.5789 26.5885 27.6459 26.4267C27.713 26.2649 27.7475 26.0915 27.7475 25.9163C27.7475 25.7412 27.713 25.5678 27.6459 25.406C27.5789 25.2442 27.4806 25.0971 27.3568 24.9733ZM10.0354 19.7773C7.2121 16.954 7.21276 12.3607 10.0354 9.53733C10.7063 8.86305 11.5043 8.3285 12.3831 7.96461C13.262 7.60072 14.2042 7.4147 15.1554 7.41733C16.1065 7.41472 17.0487 7.60074 17.9274 7.96464C18.8061 8.32853 19.604 8.86307 20.2748 9.53733C20.9492 10.2081 21.4839 11.0061 21.8479 11.8849C22.212 12.7638 22.398 13.7061 22.3954 14.6573C22.3954 16.5913 21.6421 18.4093 20.2748 19.7773C18.9074 21.1453 17.0894 21.8973 15.1548 21.8973C13.2214 21.8973 11.4028 21.144 10.0348 19.7773H10.0354Z"/>
</symbol><symbol viewBox="0 0 32 33" id="non-website" xmlns="http://www.w3.org/2000/svg">
    <g clip-path="url(#iclip0_124_2954)">
        <path d="M27.9998 5.92331C27.963 5.86996 27.9205 5.82078 27.8731 5.77664C26.3754 4.11547 24.5454 2.78736 22.5018 1.8783C20.4582 0.969246 18.2465 0.499512 16.0098 0.499512C13.7731 0.499512 11.5613 0.969246 9.51773 1.8783C7.47411 2.78736 5.64419 4.11547 4.14644 5.77664C4.09901 5.82078 4.05653 5.86996 4.01978 5.92331C1.43616 8.84076 0.00976562 12.603 0.00976562 16.5C0.00976562 20.397 1.43616 24.1592 4.01978 27.0766C4.05653 27.13 4.09901 27.1792 4.14644 27.2233C5.64417 28.8839 7.47389 30.2116 9.5172 31.1203C11.5605 32.029 13.7718 32.4986 16.0081 32.4986C18.2444 32.4986 20.4557 32.029 22.499 31.1203C24.5423 30.2116 26.3721 28.8839 27.8698 27.2233C27.9034 27.1901 27.9346 27.1544 27.9631 27.1166C30.5621 24.2008 32.0013 20.4329 32.0081 16.5269C32.0148 12.6209 30.5887 8.84813 27.9998 5.92331ZM11.0598 3.40331C10.2222 4.54112 9.54892 5.79116 9.05978 7.11664C8.18467 6.88047 7.32795 6.58078 6.49644 6.21998C7.82184 4.99581 9.37138 4.03938 11.0598 3.40331ZM5.07644 7.75665C6.16213 8.2793 7.29356 8.70108 8.45644 9.01665C7.8888 11.1332 7.57328 13.3094 7.51644 15.5H2.03978C2.23982 12.6699 3.29928 9.96828 5.07644 7.75665ZM2.03978 17.5H7.51644C7.57328 19.6906 7.8888 21.8668 8.45644 23.9833C7.29356 24.2989 6.16213 24.7207 5.07644 25.2433C3.29928 23.0317 2.23982 20.3301 2.03978 17.5ZM6.50978 26.78C7.34129 26.4192 8.198 26.1195 9.07311 25.8833C9.56225 27.2088 10.2355 28.4588 11.0731 29.5966C9.38471 28.9606 7.83518 28.0041 6.50978 26.78ZM14.9998 30.3266C13.4364 29.78 12.0398 27.9933 11.0431 25.44C12.3501 25.2043 13.6724 25.0639 14.9998 25.02V30.3266ZM14.9998 23.0166C13.4589 23.0653 11.9242 23.2347 10.4098 23.5233C9.87853 21.5573 9.57982 19.5357 9.51978 17.5H14.9998V23.0166ZM14.9998 15.5H9.51978C9.57982 13.4643 9.87853 11.4427 10.4098 9.47665C11.9242 9.76528 13.4589 9.93469 14.9998 9.98331V15.5ZM14.9998 7.97998C13.6724 7.93607 12.3501 7.7957 11.0431 7.55998C12.0431 5.01998 13.4364 3.22664 14.9998 2.67331V7.97998ZM29.9598 15.5H24.4831C24.4263 13.3094 24.1107 11.1332 23.5431 9.01665C24.706 8.70108 25.8374 8.2793 26.9231 7.75665C28.7003 9.96828 29.7597 12.6699 29.9598 15.5ZM25.4898 6.21998C24.6583 6.58078 23.8015 6.88047 22.9264 7.11664C22.4373 5.79116 21.764 4.54112 20.9264 3.40331C22.6148 4.03938 24.1644 4.99581 25.4898 6.21998ZM16.9998 2.67331C18.5631 3.21998 19.9598 5.00665 20.9564 7.55998C19.6495 7.7957 18.3271 7.93607 16.9998 7.97998V2.67331ZM16.9998 9.98331C18.5407 9.93469 20.0754 9.76528 21.5898 9.47665C22.121 11.4427 22.4197 13.4643 22.4798 15.5H16.9998V9.98331ZM16.9998 17.5H22.4798C22.4197 19.5357 22.121 21.5573 21.5898 23.5233C20.0754 23.2347 18.5407 23.0653 16.9998 23.0166V17.5ZM16.9998 30.3266V25.02C18.3271 25.0639 19.6495 25.2043 20.9564 25.44C19.9598 27.98 18.5631 29.78 16.9998 30.3266ZM20.9398 29.5966C21.7774 28.4588 22.4506 27.2088 22.9398 25.8833C23.8149 26.1195 24.6716 26.4192 25.5031 26.78C24.1777 28.0041 22.6282 28.9606 20.9398 29.5966ZM26.9398 25.2433C25.8541 24.7207 24.7227 24.2989 23.5598 23.9833C24.1218 21.8661 24.4317 19.6899 24.4831 17.5H29.9598C29.7597 20.3301 28.7003 23.0317 26.9231 25.2433H26.9398Z"/>
    </g>
    <defs>
        <clipPath id="iclip0_124_2954">
            <rect width="32" height="32" transform="translate(0 0.5)"/>
        </clipPath>
    </defs>
</symbol><symbol viewBox="0 0 32 33" id="phone" xmlns="http://www.w3.org/2000/svg">
    <path d="M31.8351 25.4389C30.3956 22.4339 27.9405 20.4732 24.4331 19.5982C23.9063 19.4668 23.3465 19.5973 22.926 19.9409L20.0131 22.321C19.4444 22.7857 18.6406 22.8455 18.0155 22.4599C14.9343 20.5592 12.4412 18.0662 10.5405 14.985C10.155 14.3599 10.2147 13.5561 10.6795 12.9874L13.0596 10.0746C13.4032 9.65407 13.5337 9.09443 13.4023 8.56737C12.5273 5.06023 10.5665 2.60522 7.56157 1.16549C7.07674 0.933235 6.50475 0.946242 6.03066 1.19949C4.51962 2.00644 3.07382 2.91974 1.70423 3.94641C1.17971 4.33952 0.91504 4.98973 1.02432 5.63612C2.009 11.4677 5.15982 17.6001 10.2801 22.7201C15.4005 27.8405 21.5327 30.991 27.3641 31.9758C28.0104 32.0848 28.6604 31.8202 29.0538 31.2959C30.0807 29.9263 30.9938 28.4805 31.8007 26.9694C32.0537 26.4951 32.0667 25.9231 31.8345 25.4383L31.8351 25.4389Z"/>
</symbol><symbol viewBox="0 0 24 24" id="search" xmlns="http://www.w3.org/2000/svg">
    <path d="M18.5 18.5L22 22M21 11.5C21 6.25329 16.7467 2 11.5 2C6.25329 2 2 6.25329 2 11.5C2 16.7467 6.25329 21 11.5 21C16.7467 21 21 16.7467 21 11.5Z" stroke-width="1.5" stroke-linecap="round" stroke-linejoin="round"/>
</symbol><symbol viewBox="0 0 24 24" id="search-line" xmlns="http://www.w3.org/2000/svg">
    <path d="M18.031 16.6168L22.3137 20.8995L20.8995 22.3137L16.6168 18.031C15.0769 19.263 13.124 20 11 20C6.032 20 2 15.968 2 11C2 6.032 6.032 2 11 2C15.968 2 20 6.032 20 11C20 13.124 19.263 15.0769 18.031 16.6168ZM16.0247 15.8748C17.2475 14.6146 18 12.8956 18 11C18 7.1325 14.8675 4 11 4C7.1325 4 4 7.1325 4 11C4 14.8675 7.1325 18 11 18C12.8956 18 14.6146 17.2475 15.8748 16.0247L16.0247 15.8748Z"/>
</symbol><symbol viewBox="0 0 24 24" id="user" xmlns="http://www.w3.org/2000/svg">
    <path d="M18.5588 19.5488C17.5654 16.8918 15.0036 15 12 15C8.99638 15 6.4346 16.8918 5.44117 19.5488M18.5588 19.5488C20.6672 17.7154 22 15.0134 22 12C22 6.47715 17.5228 2 12 2C6.47715 2 2 6.47715 2 12C2 15.0134 3.33285 17.7154 5.44117 19.5488M18.5588 19.5488C16.8031 21.0756 14.5095 22 12 22C9.49052 22 7.19694 21.0756 5.44117 19.5488M15 9C15 10.6569 13.6569 12 12 12C10.3431 12 9 10.6569 9 9C9 7.34315 10.3431 6 12 6C13.6569 6 15 7.34315 15 9Z" stroke-width="1.5" stroke-linejoin="round"/>
</symbol><symbol viewBox="0 0 24 24" id="user-star-line" xmlns="http://www.w3.org/2000/svg">
    <path d="M12 14V16C8.68629 16 6 18.6863 6 22H4C4 17.5817 7.58172 14 12 14ZM12 13C8.685 13 6 10.315 6 7C6 3.685 8.685 1 12 1C15.315 1 18 3.685 18 7C18 10.315 15.315 13 12 13ZM12 11C14.21 11 16 9.21 16 7C16 4.79 14.21 3 12 3C9.79 3 8 4.79 8 7C8 9.21 9.79 11 12 11ZM18 21.5L15.0611 23.0451L15.6224 19.7725L13.2447 17.4549L16.5305 16.9775L18 14L19.4695 16.9775L22.7553 17.4549L20.3776 19.7725L20.9389 23.0451L18 21.5Z"/>
</symbol><symbol id="website" enable-background="new 0 0 497 497" viewBox="0 0 497 497" xmlns="http://www.w3.org/2000/svg">
    <g>
        <path d="m497 128.5v312c0 11.046-8.954 20-20 20h-457c-11.046 0-20-8.954-20-20v-312z"/>
        <g>
            <path d="m290.498 294.5c0-23.196-18.804-42-42-42-7.031 0-13.659 1.728-19.482 4.782-13.386 7.021-19.327 21.053-19.327 37.218 0 23.196 15.613 36.457 38.809 36.457 16.214 0 30.282-3.645 37.282-17.099 3.014-5.792 4.718-12.376 4.718-19.358z"/>
            <path d="m286.468 312.47c-6.73 14.21-21.2 24.03-37.97 24.03-23.2 0-42-18.8-42-42 0-16.77 9.82-31.24 24.03-37.97-2.59 5.45-4.03 11.54-4.03 17.97 0 23.2 18.8 42 42 42 6.43 0 12.52-1.44 17.97-4.03z"/>
        </g>
        <g>
            <path d="m429.496 294.5c0-23.196-18.804-42-42-42-7.031 0-13.659 1.728-19.482 4.782-13.386 7.021-19.327 21.053-19.327 37.218 0 23.196 15.613 36.457 38.809 36.457 16.214 0 30.282-3.645 37.282-17.099 3.014-5.792 4.718-12.376 4.718-19.358z"/>
            <path d="m425.466 312.47c-6.73 14.21-21.2 24.03-37.97 24.03-23.2 0-42-18.8-42-42 0-16.77 9.82-31.24 24.03-37.97-2.59 5.45-4.03 11.54-4.03 17.97 0 23.2 18.8 42 42 42 6.43 0 12.52-1.44 17.97-4.03z"/>
        </g>
        <path d="m497 148.5v-20l-276.011-12.798-220.989 12.798v20 292c0 11.046 8.954 20 20 20h15c-8.28 0-15-6.72-15-15v-291c0-3.314 2.686-6 6-6z"/>
        <g>
            <path d="m497 56.5v72.5h-497v-72.5c0-11.046 8.954-20 20-20h457c11.046 0 20 8.954 20 20z"/>
            <g>
                <path d="m227.758 108.5c-8.255 0-14.947-6.716-14.947-15s6.692-15 14.947-15h208.315c8.255 0 14.947 6.716 14.947 15s-6.692 15-14.947 15z"/>
                <ellipse cx="160.869" cy="93.5" rx="14.947" ry="15"/>
                <path d="m171.361 104.184 12.874-12.869-13.139 1.179z"/>
                <path d="m150.592 82.608 12.562-12.516-2.693 10.408z"/>
                <ellipse cx="98.034" cy="93.5" rx="14.947" ry="15"/>
                <path d="m108.553 104.157 12.382-12.499-12.674.836z"/>
                <path d="m87.757 82.608 12.371-12.459-2.502 10.351z"/>
                <ellipse cx="32.947" cy="93.5" rx="14.947" ry="15"/>
                <path d="m43.769 103.846 12.721-13.186-13.139 1.381z"/>
                <path d="m22.67 82.608 11.622-12.038-1.753 9.93z"/>
            </g>
            <ellipse cx="173.849" cy="80.5" rx="14.947" ry="15"/>
            <path d="m217.514 82.577 12.971-12.991-3.025 14.276z"/>
            <path d="m446.83 103.915 13.149-13.179-10.185 3.381z"/>
            <ellipse cx="110.946" cy="80.5" rx="14.947" ry="15"/>
            <ellipse cx="45.495" cy="80.5" rx="14.947" ry="15"/>
            <path d="m240.737 95.5c-8.255 0-14.947-6.716-14.947-15s6.692-15 14.947-15h208.315c8.255 0 14.947 6.716 14.947 15s-6.692 15-14.947 15z"/>
        </g>
        <path d="m135.893 215 226.628 2c5.523 0 10-4.477 10-10l3.479-7v-30c0-5.523-4.477-10-10-10h-224l-6.107 5c-5.523 0-10 4.477-10 10v30c0 5.523 4.477 10 10 10z"/>
        <path d="m376 200v10c0 5.523-4.477 10-10 10h-234c-5.523 0-10-4.477-10-10v-40c0-5.523 4.477-10 10-10h10v33c0 3.866 3.134 7 7 7z"/>
        <g>
            <path d="m151.5 294.5c0-23.196-18.804-42-42-42-7.031 0-13.659 1.728-19.482 4.782-13.386 7.021-19.327 21.053-19.327 37.218 0 23.196 15.613 36.457 38.809 36.457 16.214 0 30.282-3.645 37.282-17.099 3.014-5.792 4.718-12.376 4.718-19.358z"/>
            <path d="m147.47 312.47c-6.73 14.21-21.2 24.03-37.97 24.03-23.2 0-42-18.8-42-42 0-16.77 9.82-31.24 24.03-37.97-2.59 5.45-4.03 11.54-4.03 17.97 0 23.2 18.8 42 42 42 6.43 0 12.52-1.44 17.97-4.03z"/>
        </g>
        <g>
            <g>
                <path d="m149.5 374h-70c-4.142 0-7.5-3.358-7.5-7.5s3.358-7.5 7.5-7.5h70c4.142 0 7.5 3.358 7.5 7.5s-3.358 7.5-7.5 7.5z"/>
            </g>
            <g>
                <path d="m149.5 404h-80c-4.142 0-7.5-3.358-7.5-7.5s3.358-7.5 7.5-7.5h80c4.142 0 7.5 3.358 7.5 7.5s-3.358 7.5-7.5 7.5z"/>
            </g>
            <g>
                <path d="m149.5 434h-80c-4.142 0-7.5-3.358-7.5-7.5s3.358-7.5 7.5-7.5h80c4.142 0 7.5 3.358 7.5 7.5s-3.358 7.5-7.5 7.5z"/>
            </g>
        </g>
        <g>
            <g>
                <path d="m288.5 374h-70c-4.142 0-7.5-3.358-7.5-7.5s3.358-7.5 7.5-7.5h70c4.143 0 7.5 3.358 7.5 7.5s-3.357 7.5-7.5 7.5z"/>
            </g>
            <g>
                <path d="m288.5 404h-80c-4.142 0-7.5-3.358-7.5-7.5s3.358-7.5 7.5-7.5h80c4.143 0 7.5 3.358 7.5 7.5s-3.357 7.5-7.5 7.5z"/>
            </g>
            <g>
                <path d="m288.5 434h-80c-4.142 0-7.5-3.358-7.5-7.5s3.358-7.5 7.5-7.5h80c4.143 0 7.5 3.358 7.5 7.5s-3.357 7.5-7.5 7.5z"/>
            </g>
        </g>
        <g>
            <g>
                <path d="m427.5 374h-70c-4.143 0-7.5-3.358-7.5-7.5s3.357-7.5 7.5-7.5h70c4.143 0 7.5 3.358 7.5 7.5s-3.357 7.5-7.5 7.5z"/>
            </g>
            <g>
                <path d="m427.5 404h-80c-4.143 0-7.5-3.358-7.5-7.5s3.357-7.5 7.5-7.5h80c4.143 0 7.5 3.358 7.5 7.5s-3.357 7.5-7.5 7.5z"/>
            </g>
            <g>
                <path d="m427.5 434h-80c-4.143 0-7.5-3.358-7.5-7.5s3.357-7.5 7.5-7.5h80c4.143 0 7.5 3.358 7.5 7.5s-3.357 7.5-7.5 7.5z"/>
            </g>
        </g>
    </g>
</symbol></svg>