<svg width="60" height="58" viewBox="0 0 60 58" fill="none" xmlns="http://www.w3.org/2000/svg">
<g clip-path="url(#clip0_2001_227)">
<path d="M31 45.6C31.1 46.9 31.3 50.9 31.4 52.1C31.5 53.4 31.2 54.3 30.1 54.5C29 54.3 28.6 53.4 28.8 52.1C28.9 50.9 29 46.9 29.1 45.6H31ZM40.6 46.7C40.6 46.1 40.5 46 40.2 45.7C40.1 45.6 40.7 45.3 40.8 45.3C41 45.8 40.9 46.3 40.6 46.7ZM19.3 46.6C19 46.2 18.9 45.7 19 45.2C19.2 45.3 19.7 45.6 19.6 45.6C19.4 45.9 19.3 46 19.3 46.6ZM26.1 53.5H25.7C27.4 52 26.9 47.2 27 45.1L27.3 45.2L28.2 45.4L28.6 45.5C28 49.2 29.1 53.5 26.1 53.5ZM34 53.5C31 53.5 32 49.2 31.6 45.5H31.9L32.8 45.3L33.2 45.2C33.2 47.2 32.7 52.1 34.4 53.6C34.2 53.5 34.1 53.5 34 53.5ZM24.9 51.4C24.7 51.4 24.5 51.4 24.3 51.3C25.1 50.6 25.4 46.6 25.3 44.4C25.5 44.5 25.6 44.5 25.8 44.6L26.6 45C26.5 46.7 26.4 50.2 26.1 50.8C25.8 51.2 25.4 51.4 24.9 51.4ZM35.2 51.4C34.6 51.4 34.2 51.2 33.9 50.8C33.6 50.2 33.5 46.7 33.4 45C33.8 44.8 34.3 44.6 34.8 44.5C34.7 46.7 34.9 50.7 35.8 51.4C35.6 51.3 35.4 51.4 35.2 51.4ZM6.1 57.2C3.3 56.9 2.8 54.5 2.4 51.6C2.1 49.3 2.1 47.4 1.9 45.1C2.4 44.9 3.1 44.2 3.8 43.4C4.6 50.8 3.4 55.4 6.1 57.2ZM53.5 57.2C56.2 55.4 55 50.8 55.8 43.4C56.5 44.3 57.2 44.9 57.7 45.1C57.5 47.5 57.5 49.3 57.2 51.6C56.8 54.5 56.2 56.9 53.5 57.2ZM43.1 44.7C42.8 44.2 42.5 44.2 42.1 44C42 44 42.5 43.5 42.6 43.3C43 43.7 43.2 44.2 43.1 44.7ZM39.3 45.1C39 45.1 38.7 45 38.5 44.6C38.2 44.2 37.8 43.7 38 43.3C38 43.2 38.1 43.2 38.2 43.2C38.4 43.2 38.9 43.4 39.3 43.4C39.9 43.4 40.6 44.5 40.1 44.8C39.9 45 39.6 45.1 39.3 45.1ZM16.8 44.6C16.7 44.1 16.9 43.6 17.3 43.2C17.4 43.3 18 43.8 17.8 43.9C17.5 44 17.1 44.1 16.8 44.6ZM20.6 45C20.3 45 20 44.9 19.8 44.8C19.3 44.6 20.1 43.5 20.6 43.4C21 43.3 21.5 43.2 21.8 43.2C21.9 43.2 22 43.2 22 43.3C22.1 43.7 21.7 44.2 21.5 44.6C21.2 44.9 20.9 45 20.6 45ZM41.3 44C41.2 44 41.2 44 41.3 44C41 43.9 40.8 43.6 40.5 43.4C40.2 43.2 40 43.3 39.9 43.1L39.7 42.2L41 42.3C42 42.5 41.7 44 41.3 44ZM18.6 43.9C18.1 43.9 17.9 42.4 18.9 42.3L20.2 42.2L20 43C20 43.2 19.7 43.2 19.4 43.3C19.2 43.5 18.9 43.8 18.6 43.9ZM38.5 42.9H38.1C37.7 42.9 37.2 42.8 37 42.7L37.3 42.4L37.8 41.7L38 41.4C38.5 41.6 39.2 41.9 39 42.6C38.9 42.8 38.7 42.9 38.5 42.9ZM8 54.4C6.1 54.4 5.2 52.4 5.1 51.5C4.7 49.2 4.8 45.3 4.7 43C5.2 42.6 5.8 42.1 6.7 41.4C7.5 49.2 6.3 52.7 8.4 54.4H8ZM51.6 54.4H51.3C53.4 52.7 52.2 49.2 53 41.4C53.8 42.1 54.4 42.5 55 43C54.8 45.4 55 49.2 54.6 51.5C54.4 52.3 53.5 54.4 51.6 54.4ZM22 42.6C21.8 42.6 21.5 42.6 21.3 42.5C20.9 42.4 21.1 42 21.3 41.8C21.5 41.6 21.8 41.5 22 41.4L22.3 41.8L22.8 42.5L22.9 42.6H22ZM43.9 41.9C43.5 41.5 43.3 41.4 42.9 41.4C42.8 41.4 43.1 41 43.2 40.9C43.7 41.2 43.9 41.4 43.9 41.9ZM16 41.8C16 41.3 16.2 41.1 16.7 40.8C16.8 41 17.1 41.3 17 41.3C16.6 41.4 16.4 41.4 16 41.8ZM41.4 41.8C41.1 41.8 40.8 41.7 40.7 41.5L40.1 40.1H41.4C42.2 40.1 42.4 41.2 42.2 41.5C42.2 41.7 41.8 41.8 41.4 41.8ZM18.5 41.7C18.1 41.7 17.7 41.5 17.6 41.4C17.4 41.2 17.7 40.1 18.4 40H19.7L19.1 41.4C19.1 41.7 18.8 41.7 18.5 41.7ZM20.4 41.3H20C20 40.7 20.4 40 21.1 39.9H21.2L21.4 40.4L21.7 40.9C21.5 41.1 21.2 41.2 21 41.3C20.8 41.2 20.6 41.2 20.4 41.3ZM39.7 41.2H39.5C39 41.2 38.7 41.1 38.4 40.7L38.7 40.2L38.9 39.6L39 39.7C39.2 39.8 39.6 40.1 39.8 40.4C39.8 40.5 39.9 40.5 39.9 40.6C40 40.8 40 41 39.9 41.1C39.8 41.2 39.8 41.2 39.7 41.2ZM7.5 46.6V40.7C8.3 40.3 8.9 40 9.7 39.2C9.7 40.5 9.7 41.8 9.6 43.2C9.4 45 9.1 46.4 7.5 46.6ZM52.1 46.6C50.6 46.4 50.2 45 50 43.1C50 41.8 50 40.5 49.9 39.1C50.7 39.9 51.3 40.2 52.1 40.6V46.6ZM10.3 43.1V38.6C11.1 38.3 11.6 38.1 12.3 37.5V40.5C12 41.9 11.7 42.9 10.3 43.1ZM49.3 43.1C48 42.9 47.6 41.9 47.4 40.4V37.4C48.1 38 48.6 38.3 49.4 38.5C49.3 40 49.3 41.6 49.3 43.1ZM13.1 39.6V36.6C13.6 36.4 14 36.1 14.6 35.7V37.9C14.4 38.9 14.2 39.5 13.1 39.6ZM46.5 39.6C45.5 39.5 45.2 38.8 45 37.9V35.7C45.5 36.1 46 36.4 46.5 36.6V39.6ZM30 44.9C25.2 44.9 21.3 41.3 21.3 36.9V33.5H38.7L38.8 36.9C38.7 41.3 34.8 44.9 30 44.9ZM15.2 37.4V34.7C16 34.4 16.7 33.7 17.3 33.2C17.3 33.8 17.2 35 17.2 35.6C16.6 36.6 16.3 37.2 15.2 37.4ZM44.4 37.4C43.3 37.2 43 36.6 42.4 35.7C42.4 35 42.3 33.9 42.3 33.3C42.9 33.8 43.7 34.5 44.4 34.8C44.5 35.7 44.4 36.4 44.4 37.4ZM41.8 35C40.4 34.7 40 33.9 39.2 32.9C39.2 32.2 39.2 31.3 39.1 30.7C40 31.3 40.7 31.8 41.6 32.4C41.7 33.4 41.7 34.1 41.8 35ZM17.8 35C17.9 34 17.9 33.3 18 32.4C18.9 31.7 19.6 31.2 20.5 30.5C20.4 31.2 20.4 32.1 20.4 32.7C19.6 33.9 19.2 34.6 17.8 35ZM30.9 28.2L31.1 28L29.9 26.9C30.4 26.3 31 26 31.6 26C32.2 26 32.8 26.2 33.2 26.6L38.7 31V32.8H21.2V31C21.2 31 26.8 26.2 27 26.2C27.3 26.1 27.5 26 27.8 26C28 26 28.2 26 28.6 26.1L30.9 28.2ZM16 22.5V25.9L15.9 32.1C15.9 33 15.1 35 13.7 35.6C13.9 34.8 14.1 33.1 14.2 32.3C14.4 29.8 14.6 26.8 14.8 25.5C15 24.1 15.1 23.4 16 22.5ZM46.3 35.6C44.8 35 44.1 33 44.1 32.1L44 25.8C44.1 24.1 44.1 23.9 44 22.4C44.9 23.3 45 24 45.3 25.3C45.5 26.6 45.7 29.7 45.9 32.1C45.9 33.1 46.1 34.7 46.3 35.6ZM21.2 30.2V21.9H38.8L38.7 30.2L33.6 26.1C33.4 25.9 33.1 25.8 32.8 25.6C32.5 25.5 32.1 25.4 31.8 25.3H31.6C31.4 25.3 31.1 25.3 30.9 25.4C30.6 25.5 30.3 25.6 30 25.8C29.9 25.9 29.7 26 29.6 26.1L29 25.6L28.7 25.5C28.5 25.4 28.3 25.4 28.1 25.4H28C27.7 25.4 27.5 25.4 27.2 25.5C27.1 25.6 26.9 25.6 26.8 25.7C26.4 25.9 26.1 26.2 25.7 26.5C24.3 27.6 22.9 28.8 21.6 30C21.4 30.1 21.3 30.1 21.2 30.2ZM20.6 20.7C20.5 21.9 20.6 22.8 20.6 23.4V27.9C20.6 28.6 21 30.3 19 30.8C19.2 30.1 19 28.7 19 28C19.2 26 18.9 23.5 19.1 22.7C19.3 21.7 19.8 21.1 20.6 20.7ZM41 30.8C39 30.3 39.4 28.6 39.4 27.9V20.7C40.2 21.1 40.7 21.7 40.9 22.6C41.1 23.5 40.8 26 41 27.9C41 28.7 40.8 30.1 41 30.8ZM14.5 20.2C13.8 22.4 14.2 22.4 14 24.7L13.2 34.6C13.1 35.8 12.3 36.9 10.8 37.7C11 36.6 11.2 35.9 11.3 34.8C11.5 31.5 11.5 26.2 12.3 23.9C13.1 21.5 13.4 21.1 14.5 20.2ZM49.1 37.7C47.6 36.9 46.8 35.8 46.7 34.6L46 24.7C45.8 22.3 46.2 22.4 45.5 20.2C46.6 21.1 46.9 21.5 47.7 23.8C48.5 26.1 48.5 31.5 48.7 34.7C48.7 35.9 48.9 36.6 49.1 37.7ZM11.9 18.7C11.1 21.4 11.4 21.5 11.1 24.4L10.4 36.4C10.3 38.2 9.6 39.3 7.6 40C8.2 38.9 8.1 38 8.1 36.6C8.4 32.6 8.2 26.5 9.1 23.7C10.2 20.8 10.6 19.8 11.9 18.7ZM52.4 40C50.4 39.3 49.7 38.2 49.6 36.4L48.9 24.4C48.7 21.5 48.9 21.4 48.1 18.7C49.4 19.8 49.9 20.9 50.9 23.7C51.8 26.5 51.7 32.6 51.9 36.6C51.9 38 51.7 38.9 52.4 40ZM10 16.1C8.8 19.3 8.6 19.3 8.1 22.9L7.6 37.5C7.5 39.7 6.8 41.4 4.7 42.2C5.4 40.9 5.2 39.5 5.3 37.8C5.6 32.9 4.6 27 5.7 23.4C6.7 19.8 8.3 17.1 10 16.1ZM55.3 42.2C53.3 41.4 52.5 39.7 52.4 37.5L51.9 22.9C51.4 19.3 51.2 19.3 50.1 16.1C51.8 17.2 53.4 19.8 54.4 23.4C55.4 27 54.5 32.9 54.8 37.8C54.8 39.4 54.6 40.8 55.3 42.2ZM22 21.3C21.1 19.1 20.9 16.2 21.9 14.3C22.4 14.4 22.4 14.5 22.9 14.7C21.8 16.9 22.1 19.6 23.2 21.3H22ZM37.5 21.3C38.6 19.7 39 17 37.8 14.7C38.2 14.5 38.3 14.5 38.8 14.3C39.8 16.2 39.6 19.1 38.7 21.3H37.5ZM26.8 21.3C25.6 19.4 25.5 16.8 26.4 15.1C26.9 14.6 27.7 14 28.4 13.6C28.8 14.5 29.1 15.1 30 16V21.3H26.8ZM30.8 21.3V16C31.6 15.1 31.9 14.5 32.3 13.6C33 14 33.8 14.6 34.3 15.1C35.1 16.8 35.1 19.4 33.9 21.3H30.8ZM23.8 21.3C22.4 19.7 21.7 15.1 25.5 13.1C25.8 13.8 26 14.2 26.1 14.9C25 17.1 25 19 26.1 21.3H23.8ZM34.6 21.3C35.7 18.9 35.8 17.1 34.6 14.9C34.8 14.3 34.9 13.8 35.2 13.1C39 15.1 38.2 19.6 36.9 21.3H34.6ZM8.6 11.8C6.5 15.1 5.1 16.8 4.6 21.3V39.3C4.6 42 3.2 44 1.2 45C1.8 43.3 2.2 41.6 2.2 39.5C2.4 33.4 1.3 24 3.1 19.1C4.8 14.3 7.1 12.3 8.6 11.8ZM58.8 45C56.7 44 55.4 42 55.4 39.3V21.3C54.9 16.8 53.5 15.1 51.4 11.8C52.9 12.3 55.2 14.3 57 19.2C58.8 24 57.7 33.5 57.8 39.6C57.8 41.6 58.2 43.3 58.8 45ZM26.5 14.3C26.1 13.8 26 13.3 25.9 12.7C26.5 11.8 26.6 11.2 27.7 9.8C27.9 10.2 28.1 10.4 28.4 10.8C28.4 11.7 28.3 12.6 28 13.3C27.5 13.8 27.2 14 26.5 14.3ZM34.2 14.3C33.4 14 33.2 13.8 32.6 13.2C32.4 12.5 32.3 11.6 32.3 10.7C32.6 10.3 32.6 10 32.8 9.6C33.9 10.9 34.2 11.7 34.8 12.6C34.7 13.3 34.7 13.8 34.2 14.3ZM30.4 15.8C29.5 15 29.2 14.6 28.9 13.7C29 10.5 30.1 9.4 30.4 8.8C30.8 9.4 31.8 10.5 31.9 13.7C31.6 14.6 31.2 14.9 30.4 15.8ZM27.7 3.8C27.5 3.8 27.3 3.7 27.1 3.4C27.3 3.3 27.6 3.2 27.9 3.2C28.2 3.2 28.4 3.3 28.4 3.5C28.2 3.5 28 3.8 27.7 3.8ZM2.2 19.3C2.1 16 2.7 12.1 6.6 7C7.6 5.7 10.9 2.9 16 2.7C20.9 4.6 13 8.1 17.1 11.1C17.5 11.4 19.1 11.3 18.4 12C19 13 20.1 13.6 21.1 14.2C20.2 16.6 20.2 18.1 20.7 19.9C19.7 20.2 18.7 21.3 18.4 22.2C18.4 25 18.7 27.7 18.4 30.5C18.2 31.9 17.2 32.9 16.5 33.2L16.4 23.4C16.6 22.3 16.9 21.1 17.4 20.5C15.8 21 15.2 22.2 14.6 23.5C14.4 21.7 14.7 20.3 15.2 19C13.9 19.6 12.8 20.8 11.9 22.6C11.7 20.7 12.2 18.7 13.3 16.7C11.3 18.1 9.9 19.9 9 22C8.7 20.1 9.8 17.4 11.7 14.2C8.8 15.7 7.1 18 5.4 22C5.6 16.6 7.7 13.5 10.3 10.6C7.1 11.2 4.8 13.3 2.2 19.3ZM43.4 33.2C42.7 32.9 41.6 31.9 41.5 30.5C41.2 27.7 41.5 25 41.5 22.2C41.2 21.5 40.6 20.7 39.7 20.2C40.1 18.4 40.1 16.3 39.3 14C40.4 13.5 41.4 13 42 12C41.3 11.3 42.4 11.4 42.9 11.1C47 8.1 39.1 4.6 44 2.7C49 2.9 52.3 5.7 53.3 7C57.2 12.1 57.8 16 57.7 19.3C55.2 13.3 52.8 11.2 49.7 10.6C52.2 13.5 54.4 16.6 54.6 22C52.9 18 51.2 15.8 48.3 14.2C50.2 17.4 51.3 20.2 51 22C50.1 19.9 48.7 18.2 46.6 16.8C47.7 18.8 48.2 20.8 48 22.7C47.1 20.9 46 19.6 44.7 19.1C45.2 20.4 45.5 21.8 45.3 23.6C44.6 22.3 44.1 21.1 42.5 20.6C43 21.2 43.3 22.3 43.5 23.5L43.4 33.2ZM30.5 2.3C29.6 2.2 29.7 2 30.2 2C30.4 2 30.5 2 30.7 2.1C30.7 2.2 30.6 2.3 30.5 2.3ZM26.1 3.7C25.7 3.1 25.9 1.8 27.2 1.6H27.5C27.7 1.6 27.9 1.6 28.1 1.7C28.1 1.9 28 1.8 28 2.1C28.1 2.1 28.3 2.2 28.4 2.2C28.4 2.4 28.3 2.6 28.3 2.7C27.7 2.6 26.8 3.1 26.1 3.7ZM30.2 2.7C30.8 2.6 31.2 2.4 31.4 1.7C30.5 1.7 29.7 1.6 29 1.3C28.9 1 29 0.8 29.5 0.8C31 0.9 32.3 1.1 34 1.2C34.3 1.3 33.9 1.7 32.7 2.2C33.9 2.4 33.6 5.1 35 8.2C35.9 10.2 37.2 11.6 38.9 11.7H39C39.7 11.7 40.1 11.3 40.2 10.7C41.1 11.1 41.7 11.9 40.9 12.5C39.9 13.3 38.7 13.8 37.6 14.2C36.5 13.6 35.2 12.2 32.8 8.9C32.4 9.5 32.1 10.1 32 10.7C31.6 9.9 31.1 9 30.5 8.2C29.7 9 29.3 9.9 28.9 10.7L27.8 8.9C26.3 10.7 25.6 12.3 23.2 14.3C21.4 13.7 20.3 13.1 19.3 12.1C19.4 11.4 19.4 11.3 20.5 10.8C20.4 11.3 21.1 11.8 21.8 11.8H22.1C25.3 10.2 27.9 8.1 28.3 4.3C28.4 4.2 28.6 3.9 29.2 3.5C28.9 2.8 28.4 2.3 29.1 2C29.5 1.9 29.2 2.5 30.2 2.7ZM29.5 0C28.9 0 28.3 0.4 28.3 1.1H27.2C26.5 1.2 25.8 1.6 25.5 2.3C25.1 3.2 25.5 3.8 26 4.6C26.3 4.3 26.6 4 27 3.8C27 4.1 27.4 4.1 27.6 4.3C27.5 5.1 27.2 5.9 26.9 6.6L26.6 7C26.4 7.3 26.2 7.6 25.9 7.9C25.6 8.2 25.4 8.5 25.1 8.7L23.9 9.6C23.2 10.1 22.5 10.4 21.8 10.8H21.7C21.5 10.8 21.2 10.7 21 10.5V9.4L19.9 9.9C19.5 10.1 19.1 10.3 18.9 10.6L18.7 10.5C18.4 10.4 18 10.3 17.7 10.2C17.6 10.2 17.5 10.2 17.4 10.1C16.6 9.7 16.3 9 16.7 8C17 7.2 17.5 6.5 17.8 5.8C18.8 3.8 18 2.6 16 1.9H15.4C14.9 1.9 14.5 2 14 2.1C13.6 2.2 13.1 2.3 12.7 2.4C12.3 2.5 11.9 2.6 11.5 2.8C11 3 10.5 3.2 10.1 3.4C9.7 3.6 9.3 3.8 8.9 4.1C8.4 4.4 8 4.7 7.6 5C7.1 5.4 6.6 5.8 6.2 6.3C5.8 6.8 5.4 7.3 5 7.9L4.5 8.8C4.2 9.2 4 9.7 3.7 10.1C3.4 10.7 3.1 11.2 2.9 11.8C2.7 12.3 2.5 12.9 2.3 13.4C2.1 14 2 14.5 1.9 15C1.8 15.5 1.7 16 1.7 16.5C1.6 17.2 1.6 17.8 1.6 18.5L1.7 22V21.9C1.6 22.8 1.5 23.6 1.5 24.5C1.3 27.7 1.5 31 1.6 34.2V36.2C1.6 37.5 1.6 38.8 1.5 40.2C1.4 41.1 1.3 42 1.1 42.9C0.8 44 0.4 45.1 0 46.1L1.3 45.4C1.4 46.9 1.5 48.3 1.6 49.8C1.7 50.9 1.8 52 2 53.1C2.1 53.7 2.3 54.2 2.5 54.8C2.6 55 2.7 55.2 2.8 55.5C2.9 55.7 3 55.9 3.2 56.1C3.4 56.3 3.5 56.5 3.7 56.6C3.9 56.8 4.1 56.9 4.3 57C4.5 57.1 4.8 57.2 5 57.3C5.3 57.4 5.5 57.5 5.8 57.5L8.5 58L6.2 56.3L5.9 56C5.7 55.8 5.6 55.6 5.5 55.4L5.3 54.9C5.1 54.2 5 53.6 4.9 52.9L5 53C5.2 53.4 5.5 53.7 5.8 54C6 54.1 6.1 54.2 6.3 54.4C6.5 54.5 6.7 54.6 6.8 54.7C7 54.8 7.2 54.8 7.4 54.9H8L9.7 54.8L8.4 53.6L8.3 53.5C8.2 53.3 8.1 53.2 8 53C7.9 52.8 7.8 52.6 7.8 52.4C7.5 51.4 7.5 50.3 7.5 49.2V47.2C7.7 47.2 7.9 47.1 8.1 47.1C8.3 47 8.4 47 8.6 46.9C8.9 46.7 9.2 46.5 9.4 46.2L9.6 45.9C10 45.2 10.1 44.5 10.2 43.7C11.2 43.6 11.9 43.2 12.3 42.3C12.4 42.1 12.5 41.8 12.6 41.6L12.7 41.1C12.8 40.8 12.8 40.6 12.8 40.3C13.5 40.2 14.1 40.1 14.6 39.4C14.8 39.1 14.9 38.7 15.1 38.4L15.2 38H15.4L15.9 37.9L16.5 37.6L16.8 37.3C17.2 36.9 17.5 36.4 17.8 35.9V35.7H18.1L18.6 35.6L19.2 35.3L19.5 35C19.7 34.7 20.4 33.6 20.6 33.6V37.9C20.7 38.3 20.7 38.7 20.8 39H20.6L20.3 39.2L20 39.5C19.8 39.6 19.5 39.6 19.3 39.6H18.5C18.1 39.6 17.7 39.7 17.3 40.1C17.2 40.2 17.1 40.4 17 40.5C17 40.1 16.9 40 16.7 40C16.5 40 16.3 40.1 16 40.3C15.7 40.5 15.5 40.8 15.4 41.2V41.5L15.3 43.4L16.5 42.2C16.6 42.1 16.7 42 16.8 42H17.1C17.2 42.2 17.5 42.3 17.7 42.3L17.5 42.7C17.4 42.6 17.3 42.5 17.1 42.5C16.9 42.5 16.7 42.6 16.4 43C16.2 43.4 16 43.7 16 44.1V44.4L16.4 46.2L17.3 44.8C17.4 44.6 17.6 44.6 17.8 44.5C17.9 44.5 18 44.4 18.1 44.4L18.5 44.5C18.4 44.8 18.3 45.2 18.3 45.5C18.3 45.9 18.3 46.2 18.5 46.5L18.6 46.7L19.9 48.3V46.4C19.9 46.3 19.9 46.2 20 46.1C20.2 45.8 20.3 45.8 20.3 45.5H21L21.4 45.4L21.8 45.2C22.1 44.9 22.3 44.6 22.5 44.3L22.6 44.1C22.7 43.9 22.7 43.7 22.8 43.4L23.7 43.2C24 43.5 24.3 43.7 24.7 44C24.7 44.5 24.7 45.1 24.8 45.6C24.8 47 24.7 48.4 24.4 49.8C24.3 50.1 24.2 50.5 24 50.8L23 51.8C23.6 51.9 24.3 52 24.9 52.1H25C25.4 52.1 25.8 52.1 26.1 51.9C26 52.3 25.8 52.7 25.5 53L24.4 54.1C25 54.1 25.6 54.2 26.1 54.2C26.9 54.2 27.7 54 28.3 53.2C28.4 53.6 28.5 53.8 28.7 54.2C29.1 54.8 29.6 55 30.3 55.2C31 55 31.6 54.7 32 54C32.1 53.8 32.2 53.6 32.2 53.4C32.4 53.7 32.7 53.8 33 54C33.4 54.2 33.8 54.3 34.3 54.3C34.6 54.3 34.9 54.3 35.2 54.2C35.5 54.2 35.8 54.1 36.1 54.1L34.9 53C34.6 52.7 34.5 52.3 34.3 51.9C34.6 52.1 35 52.1 35.4 52.1H35.7L37.4 51.9L36.3 50.9C36.1 50.6 36 50.2 35.9 49.9C35.6 48.5 35.5 47.1 35.5 45.7C35.5 45.1 35.5 44.6 35.6 44C35.9 43.8 36.2 43.6 36.5 43.3L37.4 43.6C37.4 43.9 37.5 44.2 37.7 44.5C37.9 44.8 38.1 45.2 38.4 45.4L38.7 45.6C38.9 45.7 39 45.7 39.2 45.8H39.7V46.1L40 46.4C40 46.5 40 46.5 40.1 46.6V48.6L41.4 47L41.7 46.4C41.8 46.1 41.8 45.9 41.7 45.6C41.7 45.3 41.6 45 41.5 44.7L41.9 44.6C42 44.6 42.1 44.7 42.3 44.7C42.4 44.8 42.6 44.8 42.7 44.9L43.6 46.5L44 44.7V44.3C44 44.2 44 44 43.9 43.9C43.8 43.6 43.7 43.4 43.6 43.2C43.3 42.8 43.1 42.6 42.9 42.6C42.8 42.6 42.6 42.7 42.5 42.8L42.3 42.4L42.9 42.1C43 42.1 43.2 42.1 43.3 42.2C43.4 42.2 43.5 42.3 43.5 42.4L44.9 43.8L44.7 41.9C44.7 41.8 44.7 41.7 44.6 41.5C44.5 41.1 44.3 40.9 44 40.7C43.7 40.5 43.5 40.4 43.4 40.4C43.3 40.4 43.2 40.5 42.9 40.6C42.8 40.4 42.7 40.2 42.5 40L41.9 39.7H41.7L40 39.6L39.6 39.2L39.4 39.1H39L39.2 38.3L39.3 37.4V33.8C39.5 34.1 39.7 34.4 39.9 34.6C40 34.8 40.2 34.9 40.3 35C40.5 35.1 40.6 35.3 40.8 35.4L41.2 35.6L41.7 35.7V35.9C42 36.3 42.2 36.6 42.5 37C42.6 37.2 42.8 37.3 42.9 37.4C43.1 37.5 43.2 37.7 43.4 37.8L43.8 38L44.3 38.1L44.4 38.3L44.7 39.2C44.8 39.4 44.9 39.5 45 39.7L45.3 40L45.7 40.2L46.1 40.3L46.6 40.4V40.6C46.7 41 46.7 41.3 46.8 41.7C46.9 42 47 42.2 47.1 42.4C47.6 43.3 48.3 43.7 49.2 43.8C49.3 44.4 49.4 45 49.6 45.5C49.8 45.8 49.9 46.1 50.2 46.4C50.3 46.5 50.4 46.6 50.6 46.7C50.9 46.9 51.2 47 51.5 47.1L51.9 47.2V48.4C51.9 49.5 51.9 50.6 51.7 51.7C51.6 52 51.6 52.3 51.5 52.7L51.2 53.3C51.1 53.5 51 53.6 50.8 53.7L49.5 54.9L51.2 55H51.8C52 55 52.2 54.9 52.4 54.8C52.7 54.7 53 54.5 53.3 54.3C53.4 54.2 53.6 54.1 53.7 53.9C53.9 53.6 54.1 53.4 54.3 53C54.2 53.8 54.1 54.5 53.8 55.3L53.6 55.8V56L53.3 56.3L51 58L53.8 57.6C54.1 57.5 54.3 57.5 54.6 57.4C54.8 57.3 55.1 57.2 55.3 57.1C55.5 57 55.7 56.8 55.9 56.7L56.4 56.2C56.6 55.9 56.7 55.7 56.9 55.4C57.1 55 57.2 54.6 57.3 54.2C57.6 53 57.8 51.8 57.9 50.5C58.1 48.8 58.1 47 58.2 45.3L60 46.2L59.3 44.5C59.1 43.9 58.9 43.4 58.8 42.8C58.6 42 58.5 41.2 58.4 40.3C58.3 38.8 58.3 37.2 58.4 35.7C58.5 33.6 58.5 31.5 58.6 29.5V25.3C58.6 24.2 58.5 23.1 58.3 22.1L58.4 18.9C58.4 18.2 58.4 17.6 58.3 16.9C58.3 16.4 58.2 15.9 58.1 15.5L57.8 14C57.6 13.5 57.5 12.9 57.3 12.4C57.1 11.8 56.8 11.3 56.5 10.7C56.3 10.3 56 9.8 55.8 9.4L54.6 7.6C54.2 7 54 6.7 53.7 6.3C52.9 5.4 52 4.7 51 4.1L50.4 3.7C50 3.5 49.5 3.3 49.1 3L47.6 2.4C47.2 2.3 46.8 2.2 46.3 2.1C45.8 2 45.4 1.9 44.9 1.9L43.8 1.8C42.3 2.4 41.2 3.3 41.8 5.1C41.9 5.4 42 5.7 42.2 6C42.5 6.6 42.9 7.2 43.2 7.9C43.6 8.8 43.4 9.4 42.7 10.1L42.4 10.4C42.1 10.5 41.8 10.5 41.5 10.7C41.3 10.5 41.1 10.3 40.8 10.1L39.7 9.6L39.5 10.5C39.5 10.6 39.4 10.8 39.3 10.8C39.2 10.8 39.1 10.9 39 10.9C38.9 10.9 38.7 10.9 38.6 10.8C38 10.7 37.6 10.4 37.1 10L36.9 9.8C36.3 9.2 35.9 8.5 35.6 7.8L35.4 7.3C35.1 6.6 34.9 5.8 34.7 5C34.6 4.4 34.4 3.9 34.3 3.3C34.2 2.9 34.1 2.6 33.9 2.2C34.2 2 34.4 1.9 34.6 1.6L34.8 1.2V0.9L34.6 0.6L34.4 0.5L34 0.4H33.5C32.2 0.3 30.8 0.1 29.5 0Z" fill="white"/>
<path d="M28.9 38.4C28.8 38.1 28.8 37.8 28.8 37.5C28.8 36.7 29 36.1 29.3 35.6C29.4 35.4 29.6 35.2 29.7 35.1C29.8 35 29.8 35 29.9 35H30.1C30.2 35 30.3 35.1 30.4 35.3C30.6 35.5 30.8 35.8 30.9 36.2C31 36.6 31.1 37.1 31.1 37.6C31.1 37.9 31.1 38.2 31 38.5L30.5 39.9C30.4 40 30.4 40.2 30.4 40.3C30.4 40.4 30.4 40.5 30.5 40.6L30.8 40.9C30.9 41 31.1 41 31.3 41H31.4L33.1 39.7C34.1 39.1 35.1 38.9 35.9 38.9C36.2 38.9 36.4 38.9 36.6 39C36.8 39 36.9 39.1 37 39.2V39.3C37 39.4 36.9 39.5 36.7 39.7C36.5 39.9 36.2 40.2 35.8 40.5C35.4 40.7 34.9 41 34.3 41.1C34.1 41.1 33.8 41.2 33.4 41.2H32.6C32.2 41.2 31.8 41.3 31.5 41.5C31.3 41.6 31.2 41.7 31.1 41.9C31 42.1 31 42.3 31 42.5C31 42.7 31 42.8 31.1 43V43.2H29.7V43C29.7 42.9 29.8 42.7 29.8 42.5C29.8 42.3 29.8 42.1 29.7 41.9C29.6 41.8 29.5 41.6 29.4 41.5C29.2 41.3 29 41.2 28.7 41.2C27.9 41 27.5 41 27 41C26.6 41 26.2 41 25.9 40.9C25 40.7 24.2 40.3 23.8 39.9L23.3 39.4C23.2 39.3 23.2 39.2 23.2 39.2V39.1C23.2 39.1 23.4 39 23.5 38.9C23.7 38.9 23.9 38.8 24.2 38.8C24.9 38.8 25.9 39 26.9 39.6L28.7 40.9H28.8C29 40.9 29.2 40.8 29.4 40.7L29.6 40.5C29.6 40.4 29.7 40.3 29.7 40.2C29.7 40.1 29.7 39.9 29.6 39.8L28.9 38.4ZM30 34.5C29.9 34.5 29.8 34.5 29.7 34.6C29.6 34.7 29.4 34.8 29.3 35C29.1 35.3 28.9 35.6 28.7 36C28.5 36.4 28.4 36.9 28.4 37.5C28.4 37.8 28.4 38.2 28.5 38.5L29.1 39.9C29.1 40 29.2 40.1 29.2 40.2V40.3L29.1 40.4C29 40.4 29 40.5 28.8 40.5L27.2 39.3C26.1 38.7 25.1 38.5 24.3 38.5C24 38.5 23.8 38.5 23.6 38.6C23.4 38.7 23.2 38.7 23.1 38.8L23 38.9V39.1C23 39.2 23 39.3 23.1 39.4C23.2 39.6 23.3 39.7 23.4 39.9C23.9 40.4 24.8 41.1 26.1 41.4C26.4 41.5 26.7 41.5 27.1 41.5H27.9C28.3 41.5 28.7 41.6 28.9 41.8L29.2 42.1C29.3 42.2 29.3 42.4 29.3 42.5C29.3 42.6 29.3 42.7 29.2 42.9C29.2 43 29.1 43.2 29.1 43.4V43.7L29.3 43.6H31L31.2 43.7V43.4C31.2 43.2 31.2 43 31.1 42.9C31.1 42.8 31 42.6 31 42.5C31 42.3 31 42.2 31.1 42.1C31.1 42 31.2 41.9 31.3 41.9C31.4 41.8 31.6 41.7 31.9 41.6C32.2 41.5 32.7 41.5 33.1 41.5C33.5 41.5 33.9 41.5 34.2 41.4C35.2 41.2 36 40.7 36.5 40.3C36.8 40.1 37 39.9 37.1 39.7C37.2 39.6 37.2 39.5 37.3 39.4C37.3 39.3 37.4 39.2 37.4 39.1V38.9L37.3 38.8C37.2 38.7 37 38.6 36.8 38.6C36.6 38.5 36.3 38.5 36 38.5C35.2 38.5 34.2 38.7 33.1 39.3L31.5 40.5C31.3 40.5 31.2 40.4 31.2 40.4L31.1 40.3V40.2C31.1 40.1 31.1 40 31.2 39.9L31.8 38.5C31.9 38.2 31.9 37.8 31.9 37.5C31.9 36.7 31.7 35.9 31.3 35.4C31.1 35.1 31 34.9 30.8 34.8C30.7 34.7 30.6 34.7 30.5 34.6C30.2 34.5 30.1 34.5 30 34.5Z" fill="white"/>
</g>
<defs>
<clipPath id="clip0_2001_227">
<rect width="60" height="58" fill="white"/>
</clipPath>
</defs>
</svg>
