<?xml version="1.0" encoding="utf-8"?><svg viewBox="0 0 512 512" xmlns="http://www.w3.org/2000/svg" xmlns:xlink="http://www.w3.org/1999/xlink"><style>:root>svg{display:none}:root>svg:target{display:block}</style><svg fill="none" viewBox="0 0 14 14" id="arrow-right" xmlns="http://www.w3.org/2000/svg">
    <path d="M.6 6.2h9.736L5.864 1.728 7 .6 13.4 7 7 13.4l-1.128-1.128L10.336 7.8H.6V6.2Z" fill="#EAEAEA"/>
</svg><svg fill="none" viewBox="0 0 17 24" id="arrow-right-nav" xmlns="http://www.w3.org/2000/svg">
    <path fill-rule="evenodd" clip-rule="evenodd" d="M9.97 7.47a.75.75 0 0 1 1.06 0l4 4a.75.75 0 0 1 0 1.06l-4 4a.75.75 0 1 1-1.06-1.06L13.44 12 9.97 8.53a.75.75 0 0 1 0-1.06Z" fill="#fff"/>
</svg><svg fill="none" viewBox="0 0 24 24" id="download" xmlns="http://www.w3.org/2000/svg">
    <path fill-rule="evenodd" clip-rule="evenodd" d="M10.615 1.973c-.06 0-.107.049-.107.11v6.465c0 1.15-.916 2.082-2.046 2.082H6.909c.38.675 1.035 1.63 2.149 2.83 1.697 1.825 2.843 2.584 3.364 2.87.556-.33 1.79-1.198 3.496-3.173.943-1.092 1.567-1.924 1.976-2.527h-1.57c-1.131 0-2.047-.932-2.047-2.082V2.082c0-.06-.048-.11-.108-.11h-3.554Zm-2.046.11C8.57.932 9.485 0 10.615 0h3.554c1.13 0 2.046.932 2.046 2.082v6.466c0 .06.049.11.108.11h2.947c.76 0 1.456.804 1.053 1.673-.28.605-1.022 1.897-2.949 4.128-2.228 2.58-3.81 3.515-4.374 3.794-.33.162-.717.178-1.067.027-.565-.243-2.035-1.047-4.283-3.465-2.132-2.294-2.836-3.902-3.063-4.624-.264-.842.405-1.533 1.112-1.533h2.763c.059 0 .107-.05.107-.11V2.082Zm-5.6 15.56c.536 0 .97.442.97.987v2.85c0 .302.24.547.538.547h16.046a.543.543 0 0 0 .538-.547v-2.85c0-.545.434-.986.97-.986.535 0 .969.441.969.986v2.85c0 1.392-1.109 2.52-2.477 2.52H4.477C3.109 24 2 22.872 2 21.48v-2.85c0-.545.434-.986.97-.986Z" fill="#fff"/>
</svg><svg fill="none" viewBox="0 0 32 33" id="email" xmlns="http://www.w3.org/2000/svg">
    <path d="m0 6.883 1.524 1.118 12.686 9.25a3.038 3.038 0 0 0 3.58 0L30.477 8 32 6.883c-.492-1.39-1.802-2.383-3.33-2.383H3.33C1.803 4.5.493 5.494 0 6.883Z" fill="#fff"/>
    <path d="M18.76 19.291a4.748 4.748 0 0 1-5.52 0L1.714 11.063 0 9.833v13.83a3.507 3.507 0 0 0 3.503 3.504h24.994A3.507 3.507 0 0 0 32 23.663V9.833l-1.714 1.229-11.526 8.23Z" fill="#fff"/>
</svg><svg fill="none" viewBox="0 0 24 25" id="heart" xmlns="http://www.w3.org/2000/svg">
    <path fill-rule="evenodd" clip-rule="evenodd" d="M12.692 7.584a1 1 0 0 1-1.384 0l-.693-.665A4.5 4.5 0 0 0 3 10.166c0 2.383 1.29 4.35 3.152 5.967 1.863 1.618 4.091 2.691 5.423 3.239.278.114.572.114.85 0 1.332-.548 3.56-1.62 5.423-3.239C19.71 14.517 21 12.55 21 10.167a4.5 4.5 0 0 0-7.615-3.248l-.693.665ZM12 5.476a6.5 6.5 0 0 0-11 4.69c0 6.369 6.97 9.886 9.814 11.055a3.096 3.096 0 0 0 2.372 0C16.03 20.051 23 16.535 23 10.167a6.5 6.5 0 0 0-11-4.69Z" fill="#141718"/>
</svg><svg fill="none" viewBox="0 0 24 24" id="heart-line" xmlns="http://www.w3.org/2000/svg">
    <path d="M12.001 4.529a5.998 5.998 0 0 1 8.242.228 6 6 0 0 1 .236 8.236l-8.48 8.492-8.478-8.492a6 6 0 0 1 8.48-8.464Zm6.826 1.641a3.998 3.998 0 0 0-5.49-.153l-1.335 1.198-1.336-1.197a4 4 0 0 0-5.686 5.605L12 18.654l7.02-7.03a4 4 0 0 0-.193-5.454Z" fill="#000"/>
</svg><svg fill="none" viewBox="0 0 24 24" id="id-card-line" xmlns="http://www.w3.org/2000/svg">
    <path d="M3 6h18v12H3V6ZM2 4a1 1 0 0 0-1 1v14a1 1 0 0 0 1 1h20a1 1 0 0 0 1-1V5a1 1 0 0 0-1-1H2Zm11 4h6v2h-6V8Zm5 4h-5v2h5v-2Zm-7.5-2a2.5 2.5 0 1 1-5 0 2.5 2.5 0 0 1 5 0ZM8 13.5A3.5 3.5 0 0 0 4.5 17h7A3.5 3.5 0 0 0 8 13.5Z" fill="#000"/>
</svg><svg fill="none" viewBox="0 0 33 16" id="invest-standart-arrow" xmlns="http://www.w3.org/2000/svg">
    <path d="M32.707 8.707a1 1 0 0 0 0-1.414L26.343.929a1 1 0 1 0-1.414 1.414L30.586 8l-5.657 5.657a1 1 0 0 0 1.414 1.414l6.364-6.364ZM0 9h32V7H0v2Z" fill="#fff"/>
</svg><svg fill="none" viewBox="0 0 100 96" id="invest-standart-committee" xmlns="http://www.w3.org/2000/svg">
    <path d="M6.4 11.6c0 6.4 5.2 11.6 11.6 11.6 6.4 0 11.6-5.2 11.6-11.6C29.6 5.2 24.4 0 18 0 11.6 0 6.4 5.2 6.4 11.6ZM50 23.2c6.4 0 11.6-5.2 11.6-11.6C61.6 5.2 56.4 0 50 0c-6.4 0-11.6 5.2-11.6 11.6 0 6.4 5.2 11.6 11.6 11.6ZM34 38v6h32v-6c0-5.2-2.4-10.4-7.6-13.6-2.4 1.6-5.6 2.8-8.4 2.8-3.2 0-6-.8-8.4-2.4C36.8 27.6 34 32.4 34 38ZM30 38c0-2.8.8-5.6 1.6-8-1.2-2.4-2.8-4-5.2-5.6-2.4 2-5.2 2.8-8.4 2.8s-6-.8-8.4-2.4C4.8 27.6 2 32.4 2 38v6h28v-6ZM98 44v-6c0-5.2-2.4-10.4-7.6-13.6-5.2 3.6-12 3.6-17.2 0-2 1.2-4 3.2-5.2 5.6 1.2 2.4 1.6 5.2 1.6 8v6H98ZM70.4 11.6c0 6.4 5.2 11.6 11.6 11.6 6.4 0 11.6-5.2 11.6-11.6C93.6 5.2 88.4 0 82 0c-6.4 0-11.6 5.2-11.6 11.6ZM86.8 96c3.2 0 6-2.8 6-6V64H7.2v26c0 3.2 2.8 6 6 6h73.6ZM94 48H6c-3.2 0-6 2.8-6 6s2.8 6 6 6h88c3.2 0 6-2.8 6-6s-2.8-6-6-6Z" fill="#fff"/>
</svg><svg fill="none" viewBox="0 0 73 100" id="invest-standart-license" xmlns="http://www.w3.org/2000/svg">
    <path d="M72.714 17a2.63 2.63 0 0 0-.069-.112l-.028-.047c-.029-.042-.06-.082-.09-.122l-.043-.056c-.034-.041-.071-.08-.108-.12-.014-.014-.026-.03-.04-.043L56.466.662l-.044-.04c-.039-.036-.078-.073-.12-.108-.017-.014-.037-.027-.055-.041-.04-.031-.08-.063-.123-.09l-.046-.03A3.446 3.446 0 0 0 56 .306V13a4 4 0 0 0 4 4h12.714ZM55 .004A2.314 2.314 0 0 0 54.863 0H2.267A2.265 2.265 0 0 0 0 2.262v95.476A2.265 2.265 0 0 0 2.267 100h68.466A2.265 2.265 0 0 0 73 97.738V18.1c0-.034 0-.067-.002-.1H59a4 4 0 0 1-4-4V.004ZM52.305 36H34.083a2.5 2.5 0 0 1 0-5h18.222a2.5 2.5 0 0 1 0 5ZM31.722 62H13.5a2.5 2.5 0 0 1 0-5h18.222a2.5 2.5 0 0 1 0 5Zm-18.05-18h40c1.428 0 2.55 1.02 2.55 2.449A2.526 2.526 0 0 1 53.672 49h-40c-1.43 0-2.45-1.123-2.45-2.551 0-1.429 1.02-2.449 2.45-2.449Zm1.056-13.284h.315c.854 0 1.62.325 2.302.977.681.651 1.022 1.464 1.022 2.437 0 .958-.34 1.748-1.022 2.37-.681.62-1.523.932-2.527.932-1.093 0-2.002-.438-2.729-1.314-.726-.876-1.089-2.123-1.089-3.74 0-1.483.318-2.871.955-4.167.636-1.295 1.415-2.32 2.335-3.077.921-.756 1.741-1.134 2.46-1.134.48 0 .854.142 1.123.427.27.284.404.651.404 1.1 0 .66-.292 1.146-.876 1.46-.793.435-1.422.944-1.886 1.528-.465.584-.727 1.317-.787 2.2Zm9.928 0h.292c.839 0 1.599.325 2.28.977.681.651 1.022 1.464 1.022 2.437 0 .943-.34 1.737-1.022 2.38-.681.645-1.524.967-2.527.967-1.108 0-2.021-.45-2.74-1.348-.719-.898-1.078-2.149-1.078-3.751 0-1.153.187-2.239.561-3.257.375-1.018.858-1.905 1.45-2.662.59-.756 1.227-1.355 1.908-1.796.682-.442 1.292-.663 1.83-.663.495 0 .873.139 1.135.416.262.276.393.647.393 1.111 0 .674-.292 1.16-.876 1.46-.823.465-1.445.977-1.864 1.539-.42.561-.674 1.291-.764 2.19ZM53.387 72.99c.725 3.064 4.658 9.226 7.64 12.975l-5.496-1.334-2.562 5.443c-.001-.001-1.114.327-3.003-7.446-.953 5.421-2.766 6.706-2.767 6.706l-1.226-5.719-5.916 1.867c2.579-3.35 4.79-9.22 5.263-12.199l-.125-.329-1.415-.085-.069-1.416-1.319-.518.373-1.369-1.095-.9.778-1.186-.763-1.195 1.106-.887-.357-1.372 1.326-.503.086-1.415 1.416-.067.519-1.319 1.367.373.901-1.095 1.186.777 1.194-.762.888 1.106 1.372-.356.502 1.325 1.415.085.067 1.416 1.321.517-.375 1.369 1.096.9-.777 1.186.763 1.195-1.107.887.357 1.373-1.327.502-.085 1.415-1.152.055Zm-4.29-8.595a3.085 3.085 0 0 0-3.082 3.084c0 .952.444 1.794 1.125 2.36.334.278.725.485 1.156.602.257.07.522.119.8.119.488 0 .943-.124 1.353-.326.2-.1.385-.22.559-.358a3.065 3.065 0 0 0 1.17-2.4c0-1.698-1.383-3.081-3.082-3.081Z" fill="#fff"/>
</svg><svg fill="none" viewBox="0 0 101 101" id="invest-standart-map" xmlns="http://www.w3.org/2000/svg">
    <path d="M82.609 58.432c-3.211.257-6.498.402-9.635.333a48.13 48.13 0 0 1-5.298-.432c-.078 3.141-.158 6.397-.238 9.716l6.491-.052s7.451-.697 7.761.753c.29 1.358.368 4.353 2.369 5.016.142.046.265.115.425.133.768.105 1.278.493 1.615 1.03.302-.03 3.202-.705 3.498-.74l-1.582-16.013c-.922.096-4.462.181-5.406.256ZM53.993 63.642l-2.223 4.381-2.223-4.381-5.44-10.72a55.005 55.005 0 0 0-6.382-.782c-.1 1.515-.203 3.069-.31 4.662 6.183 2.828 5.865 5.394 4.684 9.923a54.673 54.673 0 0 0-.617 2.59c4.916.627 9.38 1.831 13.733 3.021.571.156 1.13.301 1.695.453.51-1.168 1.19-2.218 2.116-2.883 3.132-2.248 5.858-1.925 6.294-1.854.084-3.45.166-6.828.248-10.068a89.237 89.237 0 0 1-7.834-1.719l-3.741 7.377ZM48.467 79.832c1.672.94 4.4 1.033 6.978.82a3.307 3.307 0 0 1 .013-.68s.057-2.576.774-5.214c-.524-.14-1.058-.279-1.578-.42-4.279-1.168-8.668-2.353-13.465-2.963-.275 4.27 2.55 5.866 6.093 7.8l1.185.657ZM21.493 54.366c-.134.045-.265.087-.397.132-1.04.353-2.042.723-2.983 1.107-1.08.44-2.08.888-3.011 1.33l-2.299 17.676c.92-.467 1.925-.952 3.028-1.439a58.08 58.08 0 0 1 2.997-1.207c4.458-1.667 9.867-3.038 15.676-3.089.232-3.553.462-7.036.682-10.377-7.206-3.01-13.628-4.1-13.693-4.11v-.023Z" fill="#fff"/>
    <path d="M39.691 66.118c.941-3.605 1.233-4.856-2.45-6.69-.204 3.075-.413 6.258-.625 9.49.807.028 1.6.075 2.383.14.222-1.081.466-2.069.692-2.94ZM26.466 52.999a73.866 73.866 0 0 1 8.887 2.92c.086-1.306.172-2.597.257-3.85-.27-.003-.53-.022-.801-.022-2.893.003-5.695.374-8.343.952ZM68.173 39.289c-.02.735-.04 1.499-.063 2.29 0 .08-.004.154-.007.233l-.075 2.77c-.093 3.528-.196 7.463-.3 11.663 1.713.232 3.46.404 5.293.444 3.055.071 6.26-.07 9.392-.317a149.4 149.4 0 0 0 2.804-.25c.95-.095 1.886-.198 2.8-.307L86.43 39.047H68.18l-.006.242ZM65.068 41.81l-1.405 2.77-4.968 9.789c2.287.6 4.585 1.113 6.927 1.525.103-4.068.204-7.884.296-11.314.025-.956.051-1.879.076-2.77l.02-.787c.01-.396.023-.766.033-1.148l-.507 1-.472.935ZM89.977 76.538c-.91.12-1.843.234-2.796.341l-.581.067c-.004.943-.214 2.002-.563 3.028-.738 2.177 1.234 4.73-.838 5.852-.543.295-1.352.497-2.578.56-5.898.305-5.588 0-8.384 2.747-.813.8-1.292 1.64-1.715 2.391-.83 1.477-1.455 2.604-3.944 2.4-.5-.04-1.085-.14-1.752-.299-.021.948-.044 1.885-.066 2.81 2.177.41 4.35.656 6.547.656H91.92l-1.943-20.553ZM38.469 41.81l-.043-.084-.007.084c-.061.893-.123 1.812-.186 2.77-.12 1.735-.243 3.57-.37 5.488 1.748.105 3.434.291 5.072.541l-3.06-6.027-1.406-2.772ZM15.507 75.645a59.746 59.746 0 0 0-3.037 1.519L9.5 99.994l5.14-3.368c.092-.06 8.282-5.35 18.486-6.597l.18-2.8c.06-.927.122-1.862.181-2.8.292-4.486.584-9.017.875-13.469-5.879.075-11.41 1.614-15.846 3.38-1.078.43-2.073.868-3.01 1.305ZM21.398 52.181c.167-.052.327-.111.497-.163l.007-.035.063.012c3.856-1.175 8.234-2.022 12.848-2.022.32 0 .624.02.94.026.128-1.892.249-3.702.368-5.417.064-.956.13-1.879.19-2.77.065-.92.124-1.816.186-2.662l.006-.107.07-.976-2.37-4.674c-8.725.798-16.326 5.44-16.662 5.65h-.11l-2.004 15.419c.934-.42 1.943-.835 2.999-1.239a49.996 49.996 0 0 1 2.972-1.042ZM59.34 88.779c.078-.275.16-.55.308-.87 1.04-2.251-1.399-3.297-2.984-4.917a29.86 29.86 0 0 1-3.302.198c-2.226 0-4.468-.308-6.13-1.24l-1.16-.639c-3.687-2.016-7.77-4.325-7.34-10.193a50.917 50.917 0 0 0-2.251-.125c-.29 4.416-.582 8.894-.867 13.297-.06.928-.121 1.849-.179 2.768-.06.931-.121 1.854-.179 2.775.672-.042 1.352-.07 2.036-.07 6.341 0 12.551 1.906 18.558 3.75 3 .92 5.916 1.817 8.809 2.481.022-.939.043-1.884.067-2.838v-.07c-4.276-1.146-6.051-1.994-5.386-4.307ZM68.475 29.684a18.874 18.874 0 0 0 1.389-2.792l.033-.066h-.009c.81-2.101 1.276-4.374 1.276-6.755C71.164 9.539 62.483 1 51.77 1 41.06 1 32.376 9.539 32.376 20.07c0 2.382.464 4.655 1.276 6.756h-.01l.034.066a18.762 18.762 0 0 0 1.658 3.267l1.58 3.113v.002l1.844 3.636 1.083 2.13.062.122 1.343 2.648 1.405 2.77 3.336 6.575 1.21 2.383 4.575 9.013 3.521-6.94.961-1.895 4.635-9.136 1.405-2.77.863-1.7.427-.843.115-.226 2.527-4.98 1.98-3.902c.096-.156.175-.32.27-.475Zm-16.705.202c-5.302 0-9.602-4.224-9.602-9.437 0-5.216 4.3-9.444 9.602-9.444 5.3 0 9.601 4.228 9.601 9.444-.002 5.213-4.301 9.437-9.601 9.437Z" fill="#fff"/>
</svg><svg fill="none" viewBox="0 0 100 100" id="invest-standart-tasks" xmlns="http://www.w3.org/2000/svg">
    <g clip-path="url(#la)" fill="#fff">
        <path d="M95.357 13.693h-3.413v69.38c0 3.498-2.862 6.36-6.36 6.36H13.98c-3.498 0-6.36-2.862-6.36-6.36v-69.38H4.206a4.238 4.238 0 0 0-4.24 4.24v75.125a4.238 4.238 0 0 0 4.24 4.24h91.15a4.238 4.238 0 0 0 4.24-4.24V17.933a4.238 4.238 0 0 0-4.24-4.24Z"/>
        <path d="M13.987 85.193h33.675V3.603H13.987c-1.17 0-2.12.95-2.12 2.12v77.35c0 1.17.95 2.12 2.12 2.12Zm28.42-13.137H31.19a2.12 2.12 0 0 1 0-4.24h11.218a2.12 2.12 0 0 1 0 4.24Zm0-16.075H31.19a2.12 2.12 0 0 1 0-4.24h11.218a2.12 2.12 0 0 1 0 4.24Zm2.12-18.195c0 1.171-.95 2.12-2.12 2.12H31.19a2.12 2.12 0 0 1 0-4.24h11.218c1.17 0 2.12.95 2.12 2.12ZM23.654 17.023a2.117 2.117 0 0 1 2.993.156l3.91 4.338 8.755-9.093a2.12 2.12 0 0 1 3.053 2.941L32.033 26.097a2.12 2.12 0 0 1-1.527.648h-.035a2.121 2.121 0 0 1-1.54-.7L23.5 20.017a2.119 2.119 0 0 1 .155-2.994Zm-3.417 18.644h4.152a2.12 2.12 0 0 1 0 4.24h-4.152a2.12 2.12 0 0 1 0-4.24Zm0 16.074h4.152a2.12 2.12 0 0 1 0 4.24h-4.152a2.12 2.12 0 0 1 0-4.24Zm0 16.075h4.152a2.12 2.12 0 0 1 0 4.24h-4.152a2.12 2.12 0 0 1 0-4.24ZM87.696 83.073V5.723a2.12 2.12 0 0 0-2.12-2.12H51.901v81.59h33.675c1.171 0 2.12-.95 2.12-2.12ZM68.374 72.056H57.156a2.12 2.12 0 0 1 0-4.24h11.218a2.12 2.12 0 0 1 0 4.24Zm0-16.075H57.156a2.12 2.12 0 0 1 0-4.24h11.218a2.12 2.12 0 0 1 0 4.24Zm0-16.075H57.156a2.12 2.12 0 0 1 0-4.24h11.218a2.12 2.12 0 0 1 0 4.24Zm.486-18.686-3.763 3.762a2.113 2.113 0 0 1-1.498.62 2.12 2.12 0 0 1-1.499-3.619l3.762-3.76L62.1 14.46a2.12 2.12 0 1 1 2.997-2.998l3.763 3.762 3.762-3.762a2.119 2.119 0 1 1 2.998 2.998l-3.763 3.761 3.763 3.762a2.12 2.12 0 1 1-2.998 2.998L68.86 21.22Zm10.466 50.836h-4.152a2.12 2.12 0 0 1 0-4.24h4.152a2.12 2.12 0 0 1 0 4.24Zm0-16.075h-4.152a2.12 2.12 0 0 1 0-4.24h4.152a2.12 2.12 0 0 1 0 4.24Zm0-16.075h-4.152a2.12 2.12 0 0 1 0-4.24h4.152a2.12 2.12 0 0 1 0 4.24Z"/>
    </g>
    <defs>
        <clipPath id="la">
            <path fill="#fff" d="M0 0h100v100H0z"/>
        </clipPath>
    </defs>
</svg><svg fill="none" viewBox="0 0 100 62" id="invest-standart-team" xmlns="http://www.w3.org/2000/svg">
    <path d="M75 59.014v2.775H25v-2.775a24.964 24.964 0 0 1 7.322-17.66A25.012 25.012 0 0 1 50 34.038c6.63 0 12.99 2.632 17.678 7.316A24.964 24.964 0 0 1 75 59.014ZM50 28.488c2.747 0 5.432-.814 7.716-2.338A13.863 13.863 0 0 0 59.821 4.8a13.893 13.893 0 0 0-15.136-3.008 13.886 13.886 0 0 0-6.233 5.11 13.866 13.866 0 0 0 1.727 17.521A13.895 13.895 0 0 0 50 28.488Zm-30.556 11.1a19.454 19.454 0 0 0-13.749 5.69A19.417 19.417 0 0 0 0 59.014v2.775h19.444v-2.775a30.507 30.507 0 0 1 6.167-18.426 19.657 19.657 0 0 0-6.167-1Zm0-5.55a11.118 11.118 0 0 0 10.266-6.852A11.092 11.092 0 0 0 27.3 15.089a11.114 11.114 0 0 0-12.109-2.407 11.11 11.11 0 0 0-4.986 4.089 11.093 11.093 0 0 0 1.382 14.016 11.116 11.116 0 0 0 7.856 3.251Zm61.111 5.55c-2.095.003-4.177.34-6.166 1a30.506 30.506 0 0 1 6.166 18.426v2.775H100v-2.775a19.417 19.417 0 0 0-5.695-13.736 19.454 19.454 0 0 0-13.75-5.69Zm0-5.55a11.119 11.119 0 0 0 10.266-6.852 11.09 11.09 0 0 0-2.409-12.097 11.114 11.114 0 0 0-12.109-2.407 11.11 11.11 0 0 0-4.986 4.089 11.093 11.093 0 0 0 1.382 14.016 11.116 11.116 0 0 0 7.856 3.251Z" fill="#fff"/>
</svg><svg fill="none" viewBox="0 0 28 31" id="location" xmlns="http://www.w3.org/2000/svg">
    <path fill-rule="evenodd" clip-rule="evenodd" d="M13.244 26.085c-2.866-3.5-9.178-11.008-9.178-16.45C4.066 4.313 8.38 0 13.7 0c5.321 0 9.634 4.314 9.634 9.634 0 5.457-6.316 12.945-9.183 16.457a.583.583 0 0 1-.907-.006Zm7.772-2.618c3.775.742 8.572 2.673 1.8 4.608-5.017 1.433-13.215 1.433-18.232 0-6.774-1.936-1.975-3.869 1.8-4.608.754-.147.53-1.29-.222-1.143C4.009 22.745 0 23.816 0 25.985c0 1.328 1.63 2.457 4.266 3.21 5.228 1.494 13.641 1.494 18.87 0 2.635-.752 4.265-1.882 4.265-3.21 0-2.168-4.009-3.24-6.162-3.661-.752-.147-.976.997-.223 1.143ZM13.7 4.777a4.857 4.857 0 0 0-4.857 4.857c0 4.314 5.24 6.487 8.292 3.435 3.052-3.052.879-8.292-3.435-8.292Zm2.61 2.247c-2.319-2.319-6.3-.668-6.3 2.61s3.981 4.93 6.3 2.61a3.692 3.692 0 0 0 0-5.22ZM13.592 24.67l.11.133.082-.1c2.677-3.27 8.386-10.244 8.386-15.069 0-7.52-9.135-11.309-14.456-5.987a8.44 8.44 0 0 0-2.48 5.987c0 4.83 5.736 11.835 8.357 15.035l.001.001Z" fill="#fff"/>
    <path fill-rule="evenodd" clip-rule="evenodd" d="m13.591 24.67.11.133.082-.1c2.677-3.27 8.386-10.244 8.386-15.069 0-7.52-9.135-11.309-14.456-5.987a8.44 8.44 0 0 0-2.48 5.987c0 4.83 5.736 11.835 8.357 15.035l.001.001ZM8.843 9.634A4.857 4.857 0 0 1 13.7 4.777c4.314 0 6.487 5.24 3.435 8.292-3.052 3.052-8.292.879-8.292-3.435Z" fill="#fff"/>
</svg><svg fill="none" viewBox="0 0 33 32" id="nav-profile" xmlns="http://www.w3.org/2000/svg">
    <path d="M16.794 16.582a8.29 8.29 0 1 0 0-16.582 8.29 8.29 0 0 0 0 16.582ZM27.412 24.569c-.37-2.217-2.25-5.282-3.597-6.717-.365-.388-.997-.226-1.22-.089a11.016 11.016 0 0 1-11.602 0c-.222-.137-.854-.299-1.219.09-1.347 1.434-3.227 4.499-3.597 6.716C5.267 30.028 11.1 32 16.794 32c5.696 0 11.527-1.972 10.618-7.431Z" fill="#EF6817"/>
</svg><svg fill="none" viewBox="0 0 33 32" id="nav-search" xmlns="http://www.w3.org/2000/svg">
    <path d="m27.357 24.973-4.324-4.324a9.825 9.825 0 0 0 2.03-5.992 9.842 9.842 0 0 0-2.903-7.005 9.842 9.842 0 0 0-7.005-2.902 9.844 9.844 0 0 0-7.006 2.902c-3.862 3.863-3.862 10.148 0 14.01a9.84 9.84 0 0 0 7.006 2.903c2.196 0 4.276-.72 5.992-2.03l4.324 4.324a1.33 1.33 0 0 0 1.886 0 1.333 1.333 0 0 0 0-1.886Zm-17.322-5.196c-2.823-2.823-2.822-7.416 0-10.24a7.195 7.195 0 0 1 5.12-2.12 7.193 7.193 0 0 1 5.12 2.12 7.194 7.194 0 0 1 2.12 5.12 7.195 7.195 0 0 1-2.12 5.12 7.19 7.19 0 0 1-5.12 2.12 7.198 7.198 0 0 1-5.12-2.12Z" fill="#EF6817"/>
</svg><svg fill="none" viewBox="0 0 32 33" id="non-website" xmlns="http://www.w3.org/2000/svg">
    <g clip-path="url(#qa)">
        <path d="M28 5.923a.894.894 0 0 0-.127-.146 15.973 15.973 0 0 0-23.727 0 .89.89 0 0 0-.126.146 15.953 15.953 0 0 0 0 21.154c.037.053.079.102.126.146a15.973 15.973 0 0 0 23.817-.106A15.957 15.957 0 0 0 28 5.923Zm-16.94-2.52a15.056 15.056 0 0 0-2 3.714 18.643 18.643 0 0 1-2.564-.897 14 14 0 0 1 4.564-2.817ZM5.076 7.757c1.086.522 2.218.944 3.38 1.26a27.814 27.814 0 0 0-.94 6.483H2.04a13.93 13.93 0 0 1 3.036-7.743ZM2.04 17.5h5.476c.057 2.19.373 4.367.94 6.483a19.674 19.674 0 0 0-3.38 1.26A13.93 13.93 0 0 1 2.04 17.5Zm4.47 9.28c.831-.36 1.688-.66 2.563-.897a15.055 15.055 0 0 0 2 3.714A14 14 0 0 1 6.51 26.78ZM15 30.327c-1.564-.547-2.96-2.334-3.957-4.887A27.396 27.396 0 0 1 15 25.02v5.307Zm0-7.31c-1.541.048-3.076.218-4.59.506a26.03 26.03 0 0 1-.89-6.023H15v5.517Zm0-7.517H9.52c.06-2.036.359-4.057.89-6.023 1.514.288 3.049.458 4.59.506V15.5Zm0-7.52a27.395 27.395 0 0 1-3.957-.42c1-2.54 2.393-4.333 3.957-4.887V7.98Zm14.96 7.52h-5.477a27.814 27.814 0 0 0-.94-6.483 19.667 19.667 0 0 0 3.38-1.26A13.93 13.93 0 0 1 29.96 15.5Zm-4.47-9.28c-.832.36-1.688.66-2.564.897a15.055 15.055 0 0 0-2-3.714A14 14 0 0 1 25.49 6.22ZM17 2.673c1.563.547 2.96 2.334 3.956 4.887-1.306.236-2.629.376-3.956.42V2.673Zm0 7.31a29.483 29.483 0 0 0 4.59-.506c.531 1.966.83 3.987.89 6.023H17V9.983Zm0 7.517h5.48a26.038 26.038 0 0 1-.89 6.023 29.496 29.496 0 0 0-4.59-.506V17.5Zm0 12.827V25.02c1.327.044 2.65.184 3.956.42-.996 2.54-2.393 4.34-3.956 4.887Zm3.94-.73a15.057 15.057 0 0 0 2-3.714c.875.236 1.732.536 2.563.897a14 14 0 0 1-4.563 2.817Zm6-4.354a19.674 19.674 0 0 0-3.38-1.26c.562-2.117.872-4.293.923-6.483h5.477a13.93 13.93 0 0 1-3.037 7.743h.017Z" fill="#fff"/>
    </g>
    <defs>
        <clipPath id="qa">
            <path fill="#fff" transform="translate(0 .5)" d="M0 0h32v32H0z"/>
        </clipPath>
    </defs>
</svg><svg fill="none" viewBox="0 0 32 33" id="phone" xmlns="http://www.w3.org/2000/svg">
    <path d="M31.835 25.439c-1.44-3.005-3.895-4.966-7.402-5.84a1.727 1.727 0 0 0-1.507.342l-2.913 2.38a1.728 1.728 0 0 1-1.998.139 22.625 22.625 0 0 1-7.475-7.475 1.728 1.728 0 0 1 .14-1.998l2.38-2.912c.343-.42.474-.98.342-1.508-.875-3.507-2.835-5.962-5.84-7.402A1.7 1.7 0 0 0 6.03 1.2a33.552 33.552 0 0 0-4.327 2.747 1.748 1.748 0 0 0-.68 1.69C2.01 11.468 5.16 17.6 10.28 22.72c5.12 5.12 11.253 8.271 17.084 9.256a1.75 1.75 0 0 0 1.69-.68 33.519 33.519 0 0 0 2.747-4.327 1.702 1.702 0 0 0 .034-1.53Z" fill="#fff"/>
</svg><svg fill="none" viewBox="0 0 24 24" id="search" xmlns="http://www.w3.org/2000/svg">
    <path d="M18.5 18.5 22 22m-1-10.5a9.5 9.5 0 1 0-19 0 9.5 9.5 0 0 0 19 0Z" stroke="#141718" stroke-width="1.5" stroke-linecap="round" stroke-linejoin="round"/>
</svg><svg fill="none" viewBox="0 0 24 24" id="search-line" xmlns="http://www.w3.org/2000/svg">
    <path d="m18.031 16.617 4.283 4.282-1.415 1.415-4.282-4.283A8.96 8.96 0 0 1 11 20c-4.968 0-9-4.032-9-9s4.032-9 9-9 9 4.032 9 9a8.96 8.96 0 0 1-1.969 5.617Zm-2.006-.742A6.977 6.977 0 0 0 18 11c0-3.867-3.133-7-7-7s-7 3.133-7 7 3.133 7 7 7a6.977 6.977 0 0 0 4.875-1.975l.15-.15Z" fill="#000"/>
</svg><svg fill="none" viewBox="0 0 16 16" id="tab-arrow" xmlns="http://www.w3.org/2000/svg">
    <path d="m5.707 1.293 6.364 6.364a1 1 0 0 1 0 1.414l-6.364 6.364a1 1 0 1 1-1.414-1.414l5.571-5.657-5.571-5.657a1 1 0 0 1 1.414-1.414Z" fill="#21201F"/>
</svg><svg fill="none" viewBox="0 0 24 24" id="user" xmlns="http://www.w3.org/2000/svg">
    <path d="M18.559 19.549a7.003 7.003 0 0 0-13.118 0m13.118 0A9.976 9.976 0 0 0 22 12c0-5.523-4.477-10-10-10S2 6.477 2 12a9.977 9.977 0 0 0 3.441 7.549m13.118 0A9.961 9.961 0 0 1 12 22a9.961 9.961 0 0 1-6.559-2.451M15 9a3 3 0 1 1-6 0 3 3 0 0 1 6 0Z" stroke="#141718" stroke-width="1.5" stroke-linejoin="round"/>
</svg><svg fill="none" viewBox="0 0 24 24" id="user-star-line" xmlns="http://www.w3.org/2000/svg">
    <path d="M12 14v2a6 6 0 0 0-6 6H4a8 8 0 0 1 8-8Zm0-1c-3.315 0-6-2.685-6-6s2.685-6 6-6 6 2.685 6 6-2.685 6-6 6Zm0-2c2.21 0 4-1.79 4-4s-1.79-4-4-4-4 1.79-4 4 1.79 4 4 4Zm6 10.5-2.939 1.545.561-3.273-2.377-2.317 3.286-.477L18 14l1.47 2.977 3.285.478-2.377 2.318.56 3.272L18 21.5Z" fill="#000"/>
</svg><svg viewBox="0 0 497 497" id="website" xmlns="http://www.w3.org/2000/svg">
    <path d="M497 128.5v312c0 11.046-8.954 20-20 20H20c-11.046 0-20-8.954-20-20v-312z" fill="#faf8f8"/>
    <path d="M290.498 294.5c0-23.196-18.804-42-42-42a41.823 41.823 0 0 0-19.482 4.782c-13.386 7.021-19.327 21.053-19.327 37.218 0 23.196 15.613 36.457 38.809 36.457 16.214 0 30.282-3.645 37.282-17.099a41.814 41.814 0 0 0 4.718-19.358z" fill="#dc4955"/>
    <path d="M286.468 312.47c-6.73 14.21-21.2 24.03-37.97 24.03-23.2 0-42-18.8-42-42 0-16.77 9.82-31.24 24.03-37.97-2.59 5.45-4.03 11.54-4.03 17.97 0 23.2 18.8 42 42 42 6.43 0 12.52-1.44 17.97-4.03z" fill="#d82f3c"/>
    <path d="M429.496 294.5c0-23.196-18.804-42-42-42a41.823 41.823 0 0 0-19.482 4.782c-13.386 7.021-19.327 21.053-19.327 37.218 0 23.196 15.613 36.457 38.809 36.457 16.214 0 30.282-3.645 37.282-17.099a41.814 41.814 0 0 0 4.718-19.358z" fill="#b7e546"/>
    <path d="M425.466 312.47c-6.73 14.21-21.2 24.03-37.97 24.03-23.2 0-42-18.8-42-42 0-16.77 9.82-31.24 24.03-37.97-2.59 5.45-4.03 11.54-4.03 17.97 0 23.2 18.8 42 42 42 6.43 0 12.52-1.44 17.97-4.03z" fill="#abd641"/>
    <path d="M497 148.5v-20l-276.011-12.798L0 128.5v312c0 11.046 8.954 20 20 20h15c-8.28 0-15-6.72-15-15v-291a6 6 0 0 1 6-6z" fill="#f0e9e6"/>
    <path d="M497 56.5V129H0V56.5c0-11.046 8.954-20 20-20h457c11.046 0 20 8.954 20 20z" fill="#5d748a"/>
    <g fill="#3f597d">
        <path d="M227.758 108.5c-8.255 0-14.947-6.716-14.947-15s6.692-15 14.947-15h208.315c8.255 0 14.947 6.716 14.947 15s-6.692 15-14.947 15z"/>
        <ellipse cx="160.869" cy="93.5" rx="14.947" ry="15"/>
        <path d="m171.361 104.184 12.874-12.869-13.139 1.179zM150.592 82.608l12.562-12.516-2.693 10.408z"/>
        <ellipse cx="98.034" cy="93.5" rx="14.947" ry="15"/>
        <path d="m108.553 104.157 12.382-12.499-12.674.836zM87.757 82.608l12.371-12.459L97.626 80.5z"/>
        <ellipse cx="32.947" cy="93.5" rx="14.947" ry="15"/>
        <path d="M43.769 103.846 56.49 90.66l-13.139 1.381zM22.67 82.608 34.292 70.57l-1.753 9.93z"/>
    </g>
    <ellipse cx="173.849" cy="80.5" fill="#b7e546" rx="14.947" ry="15"/>
    <path d="m217.514 82.577 12.971-12.991-3.025 14.276zM446.83 103.915l13.149-13.179-10.185 3.381z" fill="#3f597d"/>
    <ellipse cx="110.946" cy="80.5" fill="#ffbf54" rx="14.947" ry="15"/>
    <ellipse cx="45.495" cy="80.5" fill="#dc4955" rx="14.947" ry="15"/>
    <path d="M240.737 95.5c-8.255 0-14.947-6.716-14.947-15s6.692-15 14.947-15h208.315c8.255 0 14.947 6.716 14.947 15s-6.692 15-14.947 15z" fill="#faf8f8"/>
    <path d="m135.893 215 226.628 2c5.523 0 10-4.477 10-10l3.479-7v-30c0-5.523-4.477-10-10-10H142l-6.107 5c-5.523 0-10 4.477-10 10v30c0 5.523 4.477 10 10 10z" fill="#aad8de"/>
    <path d="M376 200v10c0 5.523-4.477 10-10 10H132c-5.523 0-10-4.477-10-10v-40c0-5.523 4.477-10 10-10h10v33a7 7 0 0 0 7 7z" fill="#94ccd4"/>
    <path d="M151.5 294.5c0-23.196-18.804-42-42-42a41.823 41.823 0 0 0-19.482 4.782c-13.386 7.021-19.327 21.053-19.327 37.218 0 23.196 15.613 36.457 38.809 36.457 16.214 0 30.282-3.645 37.282-17.099A41.814 41.814 0 0 0 151.5 294.5z" fill="#ffbf54"/>
    <path d="M147.47 312.47c-6.73 14.21-21.2 24.03-37.97 24.03-23.2 0-42-18.8-42-42 0-16.77 9.82-31.24 24.03-37.97-2.59 5.45-4.03 11.54-4.03 17.97 0 23.2 18.8 42 42 42 6.43 0 12.52-1.44 17.97-4.03z" fill="#ffa442"/>
    <path d="M149.5 374h-70a7.5 7.5 0 0 1 0-15h70a7.5 7.5 0 0 1 0 15zM149.5 404h-80a7.5 7.5 0 0 1 0-15h80a7.5 7.5 0 0 1 0 15zM149.5 434h-80a7.5 7.5 0 0 1 0-15h80a7.5 7.5 0 0 1 0 15zM288.5 374h-70a7.5 7.5 0 0 1 0-15h70c4.143 0 7.5 3.358 7.5 7.5s-3.357 7.5-7.5 7.5zM288.5 404h-80a7.5 7.5 0 0 1 0-15h80c4.143 0 7.5 3.358 7.5 7.5s-3.357 7.5-7.5 7.5zM288.5 434h-80a7.5 7.5 0 0 1 0-15h80c4.143 0 7.5 3.358 7.5 7.5s-3.357 7.5-7.5 7.5zM427.5 374h-70c-4.143 0-7.5-3.358-7.5-7.5s3.357-7.5 7.5-7.5h70c4.143 0 7.5 3.358 7.5 7.5s-3.357 7.5-7.5 7.5zM427.5 404h-80c-4.143 0-7.5-3.358-7.5-7.5s3.357-7.5 7.5-7.5h80c4.143 0 7.5 3.358 7.5 7.5s-3.357 7.5-7.5 7.5zM427.5 434h-80c-4.143 0-7.5-3.358-7.5-7.5s3.357-7.5 7.5-7.5h80c4.143 0 7.5 3.358 7.5 7.5s-3.357 7.5-7.5 7.5z" fill="#f0e9e6"/>
</svg></svg>