<?xml version="1.0" encoding="utf-8"?><svg viewBox="0 0 512 512" xmlns="http://www.w3.org/2000/svg" xmlns:xlink="http://www.w3.org/1999/xlink"><style>:root>svg{display:none}:root>svg:target{display:block}</style><svg fill="none" viewBox="0 0 14 14" id="arrow-right" xmlns="http://www.w3.org/2000/svg">
    <path d="M.6 6.2h9.736L5.864 1.728 7 .6 13.4 7 7 13.4l-1.128-1.128L10.336 7.8H.6V6.2Z" fill="#EAEAEA"/>
</svg><svg fill="none" viewBox="0 0 32 33" id="email" xmlns="http://www.w3.org/2000/svg">
    <path d="m0 6.883 1.524 1.118 12.686 9.25a3.038 3.038 0 0 0 3.58 0L30.477 8 32 6.883c-.492-1.39-1.802-2.383-3.33-2.383H3.33C1.803 4.5.493 5.494 0 6.883Z" fill="#fff"/>
    <path d="M18.76 19.291a4.748 4.748 0 0 1-5.52 0L1.714 11.063 0 9.833v13.83a3.507 3.507 0 0 0 3.503 3.504h24.994A3.507 3.507 0 0 0 32 23.663V9.833l-1.714 1.229-11.526 8.23Z" fill="#fff"/>
</svg><svg fill="none" viewBox="0 0 24 25" id="heart" xmlns="http://www.w3.org/2000/svg">
    <path fill-rule="evenodd" clip-rule="evenodd" d="M12.692 7.584a1 1 0 0 1-1.384 0l-.693-.665A4.5 4.5 0 0 0 3 10.166c0 2.383 1.29 4.35 3.152 5.967 1.863 1.618 4.091 2.691 5.423 3.239.278.114.572.114.85 0 1.332-.548 3.56-1.62 5.423-3.239C19.71 14.517 21 12.55 21 10.167a4.5 4.5 0 0 0-7.615-3.248l-.693.665ZM12 5.476a6.5 6.5 0 0 0-11 4.69c0 6.369 6.97 9.886 9.814 11.055a3.096 3.096 0 0 0 2.372 0C16.03 20.051 23 16.535 23 10.167a6.5 6.5 0 0 0-11-4.69Z" fill="#141718"/>
</svg><svg fill="none" viewBox="0 0 24 24" id="heart-line" xmlns="http://www.w3.org/2000/svg">
    <path d="M12.001 4.529a5.998 5.998 0 0 1 8.242.228 6 6 0 0 1 .236 8.236l-8.48 8.492-8.478-8.492a6 6 0 0 1 8.48-8.464Zm6.826 1.641a3.998 3.998 0 0 0-5.49-.153l-1.335 1.198-1.336-1.197a4 4 0 0 0-5.686 5.605L12 18.654l7.02-7.03a4 4 0 0 0-.193-5.454Z" fill="#000"/>
</svg><svg fill="none" viewBox="0 0 24 24" id="id-card-line" xmlns="http://www.w3.org/2000/svg">
    <path d="M3 6h18v12H3V6ZM2 4a1 1 0 0 0-1 1v14a1 1 0 0 0 1 1h20a1 1 0 0 0 1-1V5a1 1 0 0 0-1-1H2Zm11 4h6v2h-6V8Zm5 4h-5v2h5v-2Zm-7.5-2a2.5 2.5 0 1 1-5 0 2.5 2.5 0 0 1 5 0ZM8 13.5A3.5 3.5 0 0 0 4.5 17h7A3.5 3.5 0 0 0 8 13.5Z" fill="#000"/>
</svg><svg fill="none" viewBox="0 0 28 31" id="location" xmlns="http://www.w3.org/2000/svg">
    <path fill-rule="evenodd" clip-rule="evenodd" d="M13.244 26.085c-2.866-3.5-9.178-11.008-9.178-16.45C4.066 4.313 8.38 0 13.7 0c5.321 0 9.634 4.314 9.634 9.634 0 5.457-6.316 12.945-9.183 16.457a.583.583 0 0 1-.907-.006Zm7.772-2.618c3.775.742 8.572 2.673 1.8 4.608-5.017 1.433-13.215 1.433-18.232 0-6.774-1.936-1.975-3.869 1.8-4.608.754-.147.53-1.29-.222-1.143C4.009 22.745 0 23.816 0 25.985c0 1.328 1.63 2.457 4.266 3.21 5.228 1.494 13.641 1.494 18.87 0 2.635-.752 4.265-1.882 4.265-3.21 0-2.168-4.009-3.24-6.162-3.661-.752-.147-.976.997-.223 1.143ZM13.7 4.777a4.857 4.857 0 0 0-4.857 4.857c0 4.314 5.24 6.487 8.292 3.435 3.052-3.052.879-8.292-3.435-8.292Zm2.61 2.247c-2.319-2.319-6.3-.668-6.3 2.61s3.981 4.93 6.3 2.61a3.692 3.692 0 0 0 0-5.22ZM13.592 24.67l.11.133.082-.1c2.677-3.27 8.386-10.244 8.386-15.069 0-7.52-9.135-11.309-14.456-5.987a8.44 8.44 0 0 0-2.48 5.987c0 4.83 5.736 11.835 8.357 15.035l.001.001Z" fill="#fff"/>
    <path fill-rule="evenodd" clip-rule="evenodd" d="m13.591 24.67.11.133.082-.1c2.677-3.27 8.386-10.244 8.386-15.069 0-7.52-9.135-11.309-14.456-5.987a8.44 8.44 0 0 0-2.48 5.987c0 4.83 5.736 11.835 8.357 15.035l.001.001ZM8.843 9.634A4.857 4.857 0 0 1 13.7 4.777c4.314 0 6.487 5.24 3.435 8.292-3.052 3.052-8.292.879-8.292-3.435Z" fill="#fff"/>
</svg><svg fill="none" viewBox="0 0 33 32" id="nav-profile" xmlns="http://www.w3.org/2000/svg">
    <path d="M16.794 16.582a8.29 8.29 0 1 0 0-16.582 8.29 8.29 0 0 0 0 16.582ZM27.412 24.569c-.37-2.217-2.25-5.282-3.597-6.717-.365-.388-.997-.226-1.22-.089a11.016 11.016 0 0 1-11.602 0c-.222-.137-.854-.299-1.219.09-1.347 1.434-3.227 4.499-3.597 6.716C5.267 30.028 11.1 32 16.794 32c5.696 0 11.527-1.972 10.618-7.431Z" fill="#EF6817"/>
</svg><svg fill="none" viewBox="0 0 33 32" id="nav-search" xmlns="http://www.w3.org/2000/svg">
    <path d="m27.357 24.973-4.324-4.324a9.825 9.825 0 0 0 2.03-5.992 9.842 9.842 0 0 0-2.903-7.005 9.842 9.842 0 0 0-7.005-2.902 9.844 9.844 0 0 0-7.006 2.902c-3.862 3.863-3.862 10.148 0 14.01a9.84 9.84 0 0 0 7.006 2.903c2.196 0 4.276-.72 5.992-2.03l4.324 4.324a1.33 1.33 0 0 0 1.886 0 1.333 1.333 0 0 0 0-1.886Zm-17.322-5.196c-2.823-2.823-2.822-7.416 0-10.24a7.195 7.195 0 0 1 5.12-2.12 7.193 7.193 0 0 1 5.12 2.12 7.194 7.194 0 0 1 2.12 5.12 7.195 7.195 0 0 1-2.12 5.12 7.19 7.19 0 0 1-5.12 2.12 7.198 7.198 0 0 1-5.12-2.12Z" fill="#EF6817"/>
</svg><svg fill="none" viewBox="0 0 32 33" id="non-website" xmlns="http://www.w3.org/2000/svg">
    <g clip-path="url(#ia)">
        <path d="M28 5.923a.894.894 0 0 0-.127-.146 15.973 15.973 0 0 0-23.727 0 .89.89 0 0 0-.126.146 15.953 15.953 0 0 0 0 21.154c.037.053.079.102.126.146a15.973 15.973 0 0 0 23.817-.106A15.957 15.957 0 0 0 28 5.923Zm-16.94-2.52a15.056 15.056 0 0 0-2 3.714 18.643 18.643 0 0 1-2.564-.897 14 14 0 0 1 4.564-2.817ZM5.076 7.757c1.086.522 2.218.944 3.38 1.26a27.814 27.814 0 0 0-.94 6.483H2.04a13.93 13.93 0 0 1 3.036-7.743ZM2.04 17.5h5.476c.057 2.19.373 4.367.94 6.483a19.674 19.674 0 0 0-3.38 1.26A13.93 13.93 0 0 1 2.04 17.5Zm4.47 9.28c.831-.36 1.688-.66 2.563-.897a15.055 15.055 0 0 0 2 3.714A14 14 0 0 1 6.51 26.78ZM15 30.327c-1.564-.547-2.96-2.334-3.957-4.887A27.396 27.396 0 0 1 15 25.02v5.307Zm0-7.31c-1.541.048-3.076.218-4.59.506a26.03 26.03 0 0 1-.89-6.023H15v5.517Zm0-7.517H9.52c.06-2.036.359-4.057.89-6.023 1.514.288 3.049.458 4.59.506V15.5Zm0-7.52a27.395 27.395 0 0 1-3.957-.42c1-2.54 2.393-4.333 3.957-4.887V7.98Zm14.96 7.52h-5.477a27.814 27.814 0 0 0-.94-6.483 19.667 19.667 0 0 0 3.38-1.26A13.93 13.93 0 0 1 29.96 15.5Zm-4.47-9.28c-.832.36-1.688.66-2.564.897a15.055 15.055 0 0 0-2-3.714A14 14 0 0 1 25.49 6.22ZM17 2.673c1.563.547 2.96 2.334 3.956 4.887-1.306.236-2.629.376-3.956.42V2.673Zm0 7.31a29.483 29.483 0 0 0 4.59-.506c.531 1.966.83 3.987.89 6.023H17V9.983Zm0 7.517h5.48a26.038 26.038 0 0 1-.89 6.023 29.496 29.496 0 0 0-4.59-.506V17.5Zm0 12.827V25.02c1.327.044 2.65.184 3.956.42-.996 2.54-2.393 4.34-3.956 4.887Zm3.94-.73a15.057 15.057 0 0 0 2-3.714c.875.236 1.732.536 2.563.897a14 14 0 0 1-4.563 2.817Zm6-4.354a19.674 19.674 0 0 0-3.38-1.26c.562-2.117.872-4.293.923-6.483h5.477a13.93 13.93 0 0 1-3.037 7.743h.017Z" fill="#fff"/>
    </g>
    <defs>
        <clipPath id="ia">
            <path fill="#fff" transform="translate(0 .5)" d="M0 0h32v32H0z"/>
        </clipPath>
    </defs>
</svg><svg fill="none" viewBox="0 0 32 33" id="phone" xmlns="http://www.w3.org/2000/svg">
    <path d="M31.835 25.439c-1.44-3.005-3.895-4.966-7.402-5.84a1.727 1.727 0 0 0-1.507.342l-2.913 2.38a1.728 1.728 0 0 1-1.998.139 22.625 22.625 0 0 1-7.475-7.475 1.728 1.728 0 0 1 .14-1.998l2.38-2.912c.343-.42.474-.98.342-1.508-.875-3.507-2.835-5.962-5.84-7.402A1.7 1.7 0 0 0 6.03 1.2a33.552 33.552 0 0 0-4.327 2.747 1.748 1.748 0 0 0-.68 1.69C2.01 11.468 5.16 17.6 10.28 22.72c5.12 5.12 11.253 8.271 17.084 9.256a1.75 1.75 0 0 0 1.69-.68 33.519 33.519 0 0 0 2.747-4.327 1.702 1.702 0 0 0 .034-1.53Z" fill="#fff"/>
</svg><svg fill="none" viewBox="0 0 24 24" id="search" xmlns="http://www.w3.org/2000/svg">
    <path d="M18.5 18.5 22 22m-1-10.5a9.5 9.5 0 1 0-19 0 9.5 9.5 0 0 0 19 0Z" stroke="#141718" stroke-width="1.5" stroke-linecap="round" stroke-linejoin="round"/>
</svg><svg fill="none" viewBox="0 0 24 24" id="search-line" xmlns="http://www.w3.org/2000/svg">
    <path d="m18.031 16.617 4.283 4.282-1.415 1.415-4.282-4.283A8.96 8.96 0 0 1 11 20c-4.968 0-9-4.032-9-9s4.032-9 9-9 9 4.032 9 9a8.96 8.96 0 0 1-1.969 5.617Zm-2.006-.742A6.977 6.977 0 0 0 18 11c0-3.867-3.133-7-7-7s-7 3.133-7 7 3.133 7 7 7a6.977 6.977 0 0 0 4.875-1.975l.15-.15Z" fill="#000"/>
</svg><svg fill="none" viewBox="0 0 24 24" id="user" xmlns="http://www.w3.org/2000/svg">
    <path d="M18.559 19.549a7.003 7.003 0 0 0-13.118 0m13.118 0A9.976 9.976 0 0 0 22 12c0-5.523-4.477-10-10-10S2 6.477 2 12a9.977 9.977 0 0 0 3.441 7.549m13.118 0A9.961 9.961 0 0 1 12 22a9.961 9.961 0 0 1-6.559-2.451M15 9a3 3 0 1 1-6 0 3 3 0 0 1 6 0Z" stroke="#141718" stroke-width="1.5" stroke-linejoin="round"/>
</svg><svg fill="none" viewBox="0 0 24 24" id="user-star-line" xmlns="http://www.w3.org/2000/svg">
    <path d="M12 14v2a6 6 0 0 0-6 6H4a8 8 0 0 1 8-8Zm0-1c-3.315 0-6-2.685-6-6s2.685-6 6-6 6 2.685 6 6-2.685 6-6 6Zm0-2c2.21 0 4-1.79 4-4s-1.79-4-4-4-4 1.79-4 4 1.79 4 4 4Zm6 10.5-2.939 1.545.561-3.273-2.377-2.317 3.286-.477L18 14l1.47 2.977 3.285.478-2.377 2.318.56 3.272L18 21.5Z" fill="#000"/>
</svg><svg viewBox="0 0 497 497" id="website" xmlns="http://www.w3.org/2000/svg">
    <path d="M497 128.5v312c0 11.046-8.954 20-20 20H20c-11.046 0-20-8.954-20-20v-312z" fill="#faf8f8"/>
    <path d="M290.498 294.5c0-23.196-18.804-42-42-42a41.823 41.823 0 0 0-19.482 4.782c-13.386 7.021-19.327 21.053-19.327 37.218 0 23.196 15.613 36.457 38.809 36.457 16.214 0 30.282-3.645 37.282-17.099a41.814 41.814 0 0 0 4.718-19.358z" fill="#dc4955"/>
    <path d="M286.468 312.47c-6.73 14.21-21.2 24.03-37.97 24.03-23.2 0-42-18.8-42-42 0-16.77 9.82-31.24 24.03-37.97-2.59 5.45-4.03 11.54-4.03 17.97 0 23.2 18.8 42 42 42 6.43 0 12.52-1.44 17.97-4.03z" fill="#d82f3c"/>
    <path d="M429.496 294.5c0-23.196-18.804-42-42-42a41.823 41.823 0 0 0-19.482 4.782c-13.386 7.021-19.327 21.053-19.327 37.218 0 23.196 15.613 36.457 38.809 36.457 16.214 0 30.282-3.645 37.282-17.099a41.814 41.814 0 0 0 4.718-19.358z" fill="#b7e546"/>
    <path d="M425.466 312.47c-6.73 14.21-21.2 24.03-37.97 24.03-23.2 0-42-18.8-42-42 0-16.77 9.82-31.24 24.03-37.97-2.59 5.45-4.03 11.54-4.03 17.97 0 23.2 18.8 42 42 42 6.43 0 12.52-1.44 17.97-4.03z" fill="#abd641"/>
    <path d="M497 148.5v-20l-276.011-12.798L0 128.5v312c0 11.046 8.954 20 20 20h15c-8.28 0-15-6.72-15-15v-291a6 6 0 0 1 6-6z" fill="#f0e9e6"/>
    <path d="M497 56.5V129H0V56.5c0-11.046 8.954-20 20-20h457c11.046 0 20 8.954 20 20z" fill="#5d748a"/>
    <g fill="#3f597d">
        <path d="M227.758 108.5c-8.255 0-14.947-6.716-14.947-15s6.692-15 14.947-15h208.315c8.255 0 14.947 6.716 14.947 15s-6.692 15-14.947 15z"/>
        <ellipse cx="160.869" cy="93.5" rx="14.947" ry="15"/>
        <path d="m171.361 104.184 12.874-12.869-13.139 1.179zM150.592 82.608l12.562-12.516-2.693 10.408z"/>
        <ellipse cx="98.034" cy="93.5" rx="14.947" ry="15"/>
        <path d="m108.553 104.157 12.382-12.499-12.674.836zM87.757 82.608l12.371-12.459L97.626 80.5z"/>
        <ellipse cx="32.947" cy="93.5" rx="14.947" ry="15"/>
        <path d="M43.769 103.846 56.49 90.66l-13.139 1.381zM22.67 82.608 34.292 70.57l-1.753 9.93z"/>
    </g>
    <ellipse cx="173.849" cy="80.5" fill="#b7e546" rx="14.947" ry="15"/>
    <path d="m217.514 82.577 12.971-12.991-3.025 14.276zM446.83 103.915l13.149-13.179-10.185 3.381z" fill="#3f597d"/>
    <ellipse cx="110.946" cy="80.5" fill="#ffbf54" rx="14.947" ry="15"/>
    <ellipse cx="45.495" cy="80.5" fill="#dc4955" rx="14.947" ry="15"/>
    <path d="M240.737 95.5c-8.255 0-14.947-6.716-14.947-15s6.692-15 14.947-15h208.315c8.255 0 14.947 6.716 14.947 15s-6.692 15-14.947 15z" fill="#faf8f8"/>
    <path d="m135.893 215 226.628 2c5.523 0 10-4.477 10-10l3.479-7v-30c0-5.523-4.477-10-10-10H142l-6.107 5c-5.523 0-10 4.477-10 10v30c0 5.523 4.477 10 10 10z" fill="#aad8de"/>
    <path d="M376 200v10c0 5.523-4.477 10-10 10H132c-5.523 0-10-4.477-10-10v-40c0-5.523 4.477-10 10-10h10v33a7 7 0 0 0 7 7z" fill="#94ccd4"/>
    <path d="M151.5 294.5c0-23.196-18.804-42-42-42a41.823 41.823 0 0 0-19.482 4.782c-13.386 7.021-19.327 21.053-19.327 37.218 0 23.196 15.613 36.457 38.809 36.457 16.214 0 30.282-3.645 37.282-17.099A41.814 41.814 0 0 0 151.5 294.5z" fill="#ffbf54"/>
    <path d="M147.47 312.47c-6.73 14.21-21.2 24.03-37.97 24.03-23.2 0-42-18.8-42-42 0-16.77 9.82-31.24 24.03-37.97-2.59 5.45-4.03 11.54-4.03 17.97 0 23.2 18.8 42 42 42 6.43 0 12.52-1.44 17.97-4.03z" fill="#ffa442"/>
    <path d="M149.5 374h-70a7.5 7.5 0 0 1 0-15h70a7.5 7.5 0 0 1 0 15zM149.5 404h-80a7.5 7.5 0 0 1 0-15h80a7.5 7.5 0 0 1 0 15zM149.5 434h-80a7.5 7.5 0 0 1 0-15h80a7.5 7.5 0 0 1 0 15zM288.5 374h-70a7.5 7.5 0 0 1 0-15h70c4.143 0 7.5 3.358 7.5 7.5s-3.357 7.5-7.5 7.5zM288.5 404h-80a7.5 7.5 0 0 1 0-15h80c4.143 0 7.5 3.358 7.5 7.5s-3.357 7.5-7.5 7.5zM288.5 434h-80a7.5 7.5 0 0 1 0-15h80c4.143 0 7.5 3.358 7.5 7.5s-3.357 7.5-7.5 7.5zM427.5 374h-70c-4.143 0-7.5-3.358-7.5-7.5s3.357-7.5 7.5-7.5h70c4.143 0 7.5 3.358 7.5 7.5s-3.357 7.5-7.5 7.5zM427.5 404h-80c-4.143 0-7.5-3.358-7.5-7.5s3.357-7.5 7.5-7.5h80c4.143 0 7.5 3.358 7.5 7.5s-3.357 7.5-7.5 7.5zM427.5 434h-80c-4.143 0-7.5-3.358-7.5-7.5s3.357-7.5 7.5-7.5h80c4.143 0 7.5 3.358 7.5 7.5s-3.357 7.5-7.5 7.5z" fill="#f0e9e6"/>
</svg></svg>