<svg width="24" height="24" viewBox="0 0 24 24" fill="none" xmlns="http://www.w3.org/2000/svg">
<path fill-rule="evenodd" clip-rule="evenodd" d="M10.6154 1.9726C10.5559 1.9726 10.5077 2.02167 10.5077 2.08219V8.54795C10.5077 9.69791 9.5916 10.6301 8.46154 10.6301H6.90897C7.28927 11.3049 7.94354 12.2604 9.05795 13.4592C10.7555 15.2853 11.9009 16.0444 12.4218 16.3307C12.978 16.0002 14.2128 15.1324 15.918 13.1572C16.8614 12.0646 17.4852 11.2335 17.8939 10.6301H16.3231C15.193 10.6301 14.2769 9.69791 14.2769 8.54795V2.08219C14.2769 2.02167 14.2287 1.9726 14.1692 1.9726H10.6154ZM8.56923 2.08219C8.56923 0.932229 9.48533 0 10.6154 0H14.1692C15.2993 0 16.2154 0.932229 16.2154 2.08219V8.54795C16.2154 8.60847 16.2636 8.65753 16.3231 8.65753H19.2696C20.0305 8.65753 20.7257 9.46215 20.3228 10.331C20.0421 10.9363 19.3007 12.2279 17.3743 14.4592C15.1463 17.0398 13.5647 17.9745 13 18.2525C12.6698 18.415 12.2833 18.4315 11.9329 18.2803C11.368 18.0367 9.89818 17.2335 7.64974 14.8148C5.51752 12.5211 4.81369 10.9129 4.58731 10.1913C4.32309 9.34893 4.99208 8.65753 5.69882 8.65753H8.46154C8.52102 8.65753 8.56923 8.60847 8.56923 8.54795V2.08219ZM2.96923 17.6438C3.50452 17.6438 3.93846 18.0854 3.93846 18.6301V21.4795C3.93846 21.7821 4.17954 22.0274 4.47692 22.0274H20.5231C20.8205 22.0274 21.0615 21.7821 21.0615 21.4795V18.6301C21.0615 18.0854 21.4955 17.6438 22.0308 17.6438C22.5661 17.6438 23 18.0854 23 18.6301V21.4795C23 22.8715 21.891 24 20.5231 24H4.47692C3.10896 24 2 22.8715 2 21.4795V18.6301C2 18.0854 2.43394 17.6438 2.96923 17.6438Z" fill="white"/>
</svg>
