<svg width="32" height="33" viewBox="0 0 32 33" fill="none" xmlns="http://www.w3.org/2000/svg">
<path d="M0 6.88327L1.52353 8.00098L14.21 17.2501C15.2817 18.0248 16.7183 18.0307 17.79 17.2501L30.4765 8.00098L32 6.88327C31.5076 5.49354 30.1984 4.5 28.6691 4.5H3.33092C1.80159 4.5 0.492386 5.49354 0 6.88327Z" fill="white"/>
<path d="M18.76 19.2915C17.9372 19.8802 16.9657 20.1773 16 20.1773C15.0343 20.1773 14.0629 19.8802 13.24 19.2915L1.71429 11.062L0 9.83337V23.6635C0 25.5951 1.57143 27.1667 3.50286 27.1667H28.4971C30.4286 27.1667 32 25.5951 32 23.6635V9.83337L30.2857 11.062L18.76 19.2915Z" fill="white"/>
</svg>
