<svg width="100" height="96" viewBox="0 0 100 96" fill="none" xmlns="http://www.w3.org/2000/svg">
<path d="M6.40039 11.6C6.40039 18 11.6004 23.2 18.0004 23.2C24.4004 23.2 29.6004 18 29.6004 11.6C29.6004 5.2 24.4004 0 18.0004 0C11.6004 0 6.40039 5.2 6.40039 11.6Z" fill="white"/>
<path d="M50.0004 23.2C56.4004 23.2 61.6004 18 61.6004 11.6C61.6004 5.2 56.4004 0 50.0004 0C43.6004 0 38.4004 5.2 38.4004 11.6C38.4004 18 43.6004 23.2 50.0004 23.2Z" fill="white"/>
<path d="M34.0005 38V44H66.0005V38C66.0005 32.8 63.6005 27.6 58.4005 24.4C56.0005 26 52.8005 27.2 50.0005 27.2C46.8005 27.2 44.0005 26.4 41.6005 24.8C36.8005 27.6 34.0005 32.4 34.0005 38Z" fill="white"/>
<path d="M30 38C30 35.2 30.8 32.4 31.6 30C30.4 27.6 28.8 26 26.4 24.4C24 26.4 21.2 27.2 18 27.2C14.8 27.2 12 26.4 9.6 24.8C4.8 27.6 2 32.4 2 38V44H30V38Z" fill="white"/>
<path d="M98 44V38C98 32.8 95.6 27.6 90.4 24.4C85.2 28 78.4 28 73.2 24.4C71.2 25.6 69.2 27.6 68 30C69.2 32.4 69.6 35.2 69.6 38V44H98Z" fill="white"/>
<path d="M70.3999 11.6C70.3999 18 75.5999 23.2 81.9999 23.2C88.3999 23.2 93.5999 18 93.5999 11.6C93.5999 5.2 88.3999 0 81.9999 0C75.5999 0 70.3999 5.2 70.3999 11.6Z" fill="white"/>
<path d="M86.8002 96C90.0002 96 92.8002 93.2 92.8002 90V64H7.2002V90C7.2002 93.2 10.0002 96 13.2002 96H86.8002Z" fill="white"/>
<path d="M94 48H6C2.8 48 0 50.8 0 54C0 57.2 2.8 60 6 60H94C97.2 60 100 57.2 100 54C100 50.8 97.2 48 94 48Z" fill="white"/>
</svg>
