<svg width="100" height="100" viewBox="0 0 100 100" fill="none" xmlns="http://www.w3.org/2000/svg">
<g clip-path="url(#clip0_124_2319)">
<path d="M95.3569 13.6932H91.944V83.0736C91.944 86.5712 89.0822 89.433 85.5846 89.433H13.9786C10.481 89.433 7.61923 86.5712 7.61923 83.0736V13.6932H4.20631C1.87464 13.6932 -0.0332031 15.5799 -0.0332031 17.9328V93.0577C-0.0332031 95.4106 1.87464 97.2973 4.20631 97.2973H95.3569C97.6886 97.2973 99.5964 95.4106 99.5964 93.0577V17.9328C99.5964 15.5799 97.6886 13.6932 95.3569 13.6932Z" fill="white"/>
<path d="M13.9869 85.1931H47.6619V3.60358H13.9869C12.8162 3.60358 11.8672 4.55274 11.8672 5.7234V83.0732C11.8672 84.2439 12.8162 85.1931 13.9869 85.1931ZM42.4071 72.0559H31.1891C30.0186 72.0559 29.0694 71.1067 29.0694 69.936C29.0694 68.7655 30.0186 67.8163 31.1891 67.8163H42.4071C43.5777 67.8163 44.5268 68.7655 44.5268 69.936C44.5268 71.1067 43.5777 72.0559 42.4071 72.0559ZM42.4071 55.9805H31.1891C30.0186 55.9805 29.0694 55.0313 29.0694 53.8607C29.0694 52.6902 30.0186 51.741 31.1891 51.741H42.4071C43.5777 51.741 44.5268 52.6902 44.5268 53.8607C44.5268 55.0313 43.5777 55.9805 42.4071 55.9805ZM44.5268 37.7864C44.5268 38.9571 43.5777 39.9063 42.4071 39.9063H31.1891C30.0186 39.9063 29.0694 38.9571 29.0694 37.7864C29.0694 36.6158 30.0186 35.6666 31.1891 35.6666H42.4071C43.5777 35.6666 44.5268 36.6158 44.5268 37.7864ZM23.6541 17.0234C24.5244 16.2377 25.8639 16.3081 26.6474 17.1786L30.5567 21.5165L39.3123 12.4237C40.1247 11.5821 41.4651 11.5563 42.3098 12.3677C43.1523 13.1792 43.1781 14.5216 42.3656 15.3652L32.0318 26.0966C31.6322 26.5117 31.0805 26.7455 30.5051 26.7455C30.4937 26.7455 30.4812 26.7455 30.4699 26.7455C29.8819 26.7352 29.3241 26.4817 28.9307 26.0449L23.4988 20.0167C22.7142 19.1473 22.7846 17.8069 23.6541 17.0234ZM20.2374 35.6666H24.389C25.5595 35.6666 26.5087 36.6158 26.5087 37.7864C26.5087 38.9571 25.5595 39.9063 24.389 39.9063H20.2374C19.0667 39.9063 18.1175 38.9571 18.1175 37.7864C18.1175 36.6158 19.0667 35.6666 20.2374 35.6666ZM20.2374 51.741H24.389C25.5595 51.741 26.5087 52.6902 26.5087 53.8607C26.5087 55.0313 25.5595 55.9805 24.389 55.9805H20.2374C19.0667 55.9805 18.1175 55.0313 18.1175 53.8607C18.1175 52.6902 19.0667 51.741 20.2374 51.741ZM20.2374 67.8163H24.389C25.5595 67.8163 26.5087 68.7655 26.5087 69.936C26.5087 71.1067 25.5595 72.0559 24.389 72.0559H20.2374C19.0667 72.0559 18.1175 71.1067 18.1175 69.936C18.1175 68.7655 19.0667 67.8163 20.2374 67.8163Z" fill="white"/>
<path d="M87.6961 83.0732V5.7234C87.6961 4.55274 86.7471 3.60358 85.5764 3.60358H51.9014V85.1931H85.5764C86.7471 85.1931 87.6961 84.2439 87.6961 83.0732ZM68.3742 72.0559H57.1562C55.9856 72.0559 55.0365 71.1067 55.0365 69.936C55.0365 68.7655 55.9856 67.8163 57.1562 67.8163H68.3742C69.5447 67.8163 70.4939 68.7655 70.4939 69.936C70.4939 71.1067 69.5447 72.0559 68.3742 72.0559ZM68.3742 55.9805H57.1562C55.9856 55.9805 55.0365 55.0313 55.0365 53.8607C55.0365 52.6902 55.9856 51.741 57.1562 51.741H68.3742C69.5447 51.741 70.4939 52.6902 70.4939 53.8607C70.4939 55.0313 69.5447 55.9805 68.3742 55.9805ZM68.3742 39.9063H57.1562C55.9856 39.9063 55.0365 38.9571 55.0365 37.7864C55.0365 36.6158 55.9856 35.6666 57.1562 35.6666H68.3742C69.5447 35.6666 70.4939 36.6158 70.4939 37.7864C70.4939 38.9571 69.5447 39.9063 68.3742 39.9063ZM68.8596 21.2199L65.0971 24.9819C64.6831 25.3959 64.1408 25.6029 63.5985 25.6029C63.056 25.6029 62.5137 25.3959 62.0996 24.9819C61.2717 24.1538 61.2717 22.8125 62.0996 21.9844L65.8619 18.2225L62.0996 14.4606C61.2717 13.6325 61.2717 12.2912 62.0996 11.4631C62.9277 10.635 64.2691 10.635 65.0971 11.4631L68.8596 15.2251L72.622 11.4631C73.4499 10.635 74.7914 10.635 75.6195 11.4631C76.4474 12.2912 76.4474 13.6325 75.6195 14.4606L71.8572 18.2225L75.6195 21.9844C76.4474 22.8125 76.4474 24.1538 75.6195 24.9819C75.2054 25.3959 74.6631 25.6029 74.1207 25.6029C73.5783 25.6029 73.036 25.3959 72.622 24.9819L68.8596 21.2199ZM79.3259 72.0559H75.1743C74.0038 72.0559 73.0546 71.1067 73.0546 69.936C73.0546 68.7655 74.0038 67.8163 75.1743 67.8163H79.3259C80.4966 67.8163 81.4458 68.7655 81.4458 69.936C81.4458 71.1067 80.4966 72.0559 79.3259 72.0559ZM79.3259 55.9805H75.1743C74.0038 55.9805 73.0546 55.0313 73.0546 53.8607C73.0546 52.6902 74.0038 51.741 75.1743 51.741H79.3259C80.4966 51.741 81.4458 52.6902 81.4458 53.8607C81.4458 55.0313 80.4966 55.9805 79.3259 55.9805ZM79.3259 39.9063H75.1743C74.0038 39.9063 73.0546 38.9571 73.0546 37.7864C73.0546 36.6158 74.0038 35.6666 75.1743 35.6666H79.3259C80.4966 35.6666 81.4458 36.6158 81.4458 37.7864C81.4458 38.9571 80.4966 39.9063 79.3259 39.9063Z" fill="white"/>
</g>
<defs>
<clipPath id="clip0_124_2319">
<rect width="100" height="100" fill="white"/>
</clipPath>
</defs>
</svg>
