<svg width="101" height="101" viewBox="0 0 101 101" fill="none" xmlns="http://www.w3.org/2000/svg">
<path d="M82.6085 58.4321C79.3978 58.6886 76.111 58.8341 72.9742 58.7654C71.15 58.725 69.3957 58.5614 67.6763 58.3331C67.5982 61.4742 67.5181 64.7304 67.438 68.0493L73.9294 67.9968C73.9294 67.9968 81.3801 67.2999 81.6903 68.7502C81.9799 70.1077 82.058 73.1033 84.0588 73.7659C84.2006 73.8124 84.3238 73.881 84.4841 73.8992C85.2523 74.0043 85.7618 74.3921 86.0987 74.9294C86.4007 74.8991 89.3012 74.2244 89.597 74.1881L88.0153 58.1755C87.0929 58.2725 83.5535 58.3573 82.6085 58.4321Z" fill="white"/>
<path d="M53.9927 63.642L51.7701 68.0234L49.5474 63.642L44.1077 52.9219C42.0576 52.5563 39.9418 52.2735 37.7252 52.1401C37.6246 53.6551 37.5219 55.2085 37.415 56.8023C43.5983 59.6303 43.2799 62.1957 42.0987 66.7245C41.8974 67.4921 41.6817 68.3688 41.4824 69.3142C46.3982 69.9424 50.8621 71.1463 55.215 72.3361C55.7861 72.4916 56.3448 72.6371 56.9098 72.7886C57.4192 71.621 58.0992 70.5706 59.0256 69.906C62.1583 67.6578 64.8843 67.981 65.3198 68.0517C65.404 64.6015 65.4862 61.2241 65.5684 57.984C62.8712 57.5255 60.2664 56.9336 57.7335 56.265L53.9927 63.642Z" fill="white"/>
<path d="M48.4671 79.8323C50.1393 80.7716 52.8673 80.8645 55.4454 80.6524C55.4269 80.4383 55.4289 80.212 55.4577 79.9716C55.4577 79.9716 55.5152 77.3961 56.2321 74.758C55.7083 74.6186 55.1742 74.4793 54.6545 74.3379C50.3755 73.1703 45.9856 71.9846 41.189 71.3745C40.9137 75.6448 43.7383 77.2406 47.2818 79.1758L48.4671 79.8323Z" fill="white"/>
<path d="M21.4926 54.3663C21.3591 54.4108 21.2276 54.4532 21.0962 54.4976C20.0567 54.8511 19.0543 55.2208 18.1134 55.6046C17.0329 56.045 16.0325 56.4934 15.1019 56.9358L12.8032 74.6108C13.7235 74.1442 14.728 73.6594 15.8312 73.1725C16.7679 72.7625 17.7765 72.3564 18.8283 71.9646C23.286 70.2981 28.6948 68.9265 34.5042 68.876C34.7363 65.3228 34.9664 61.8403 35.1862 58.4993C27.9799 55.4895 21.5584 54.3987 21.4926 54.3886V54.3663Z" fill="white"/>
<path d="M39.6914 66.1183C40.6322 62.5126 40.9239 61.2623 37.2407 59.4281C37.0373 62.5025 36.8278 65.6861 36.6162 68.9181C37.4235 68.9463 38.2165 68.9928 38.9991 69.0574C39.221 67.9767 39.4654 66.989 39.6914 66.1183Z" fill="white"/>
<path d="M26.4663 52.9989C28.8574 53.6211 31.9799 54.5624 35.3529 55.9198C35.4392 54.6129 35.5255 53.3221 35.6097 52.0697C35.3406 52.0657 35.0797 52.0475 34.8086 52.0475C31.9162 52.0495 29.1142 52.4212 26.4663 52.9989Z" fill="white"/>
<path d="M68.1733 39.289C68.1528 40.0243 68.1322 40.7879 68.1096 41.5797C68.1096 41.6585 68.1055 41.7332 68.1035 41.812C68.0788 42.7049 68.0542 43.626 68.0275 44.5814C67.935 48.1104 67.8323 52.0453 67.7275 56.2449C69.4408 56.4772 71.1889 56.6489 73.0213 56.6893C76.076 56.76 79.2806 56.6186 82.4133 56.3722C83.3562 56.2974 84.2929 56.2126 85.2173 56.1217C86.1664 56.0268 87.1031 55.9237 88.0172 55.8146L86.4293 39.0466H68.1795C68.1774 39.1234 68.1754 39.2042 68.1733 39.289Z" fill="white"/>
<path d="M65.0676 41.8104L63.6625 44.5798L58.6953 54.3687C60.9817 54.9687 63.2804 55.4818 65.6222 55.8938C65.7249 51.8256 65.8256 48.0098 65.918 44.5798C65.9427 43.6244 65.9694 42.7012 65.994 41.8104C66.0002 41.5498 66.0084 41.2791 66.0146 41.0226C66.0248 40.6267 66.0372 40.257 66.0474 39.8752L65.54 40.8751L65.0676 41.8104Z" fill="white"/>
<path d="M89.9768 76.538C89.0667 76.6571 88.1341 76.7723 87.1809 76.8793C86.9858 76.9016 86.7947 76.9238 86.5996 76.946C86.5955 77.8894 86.3859 78.9478 86.0367 79.974C85.2993 82.1515 87.2713 84.7048 85.1986 85.8259C84.6563 86.1209 83.8469 86.3228 82.6205 86.3855C76.7228 86.6905 77.033 86.3855 74.2372 89.1327C73.4237 89.9326 72.9451 90.7729 72.5219 91.5243C71.692 93.001 71.0675 94.1281 68.5778 93.9241C68.0786 93.8837 67.4931 93.7847 66.8255 93.6252C66.805 94.5725 66.7824 95.5098 66.7598 96.435C68.9373 96.845 71.1106 97.0915 73.3066 97.0915H91.9201L89.9768 76.538Z" fill="white"/>
<path d="M38.4688 41.8104L38.4257 41.7256C38.4236 41.7539 38.4215 41.7821 38.4195 41.8104C38.3579 42.7033 38.2962 43.6224 38.2326 44.5798C38.1134 46.315 37.9902 48.1492 37.8628 50.0682C39.6109 50.1732 41.2975 50.3591 42.9347 50.6095L39.8759 44.5819L38.4688 41.8104Z" fill="white"/>
<path d="M15.5066 75.6447C14.3768 76.1719 13.3599 76.685 12.4704 77.1637L9.5 99.9938L14.6397 96.6265C14.7321 96.5659 22.9224 91.2755 33.1258 90.0291C33.1854 89.0999 33.2449 88.1687 33.3066 87.2294C33.3661 86.3022 33.4278 85.367 33.4873 84.4297C33.779 79.9433 34.0707 75.4124 34.3624 70.9603C28.4832 71.0351 22.9511 72.5743 18.516 74.3398C17.4376 74.77 16.4433 75.2084 15.5066 75.6447Z" fill="white"/>
<path d="M21.3984 52.1811C21.5648 52.1286 21.725 52.07 21.8955 52.0175L21.9017 51.9831C21.9099 51.9851 21.9449 51.9912 21.9654 51.9952C25.8212 50.8196 30.1988 49.9732 34.8126 49.9732C35.1331 49.9732 35.4371 49.9934 35.7534 49.9995C35.8808 48.1067 36.002 46.2968 36.1211 44.5818C36.1848 43.6264 36.2506 42.7032 36.3101 41.8124C36.3759 40.8913 36.4354 39.9964 36.4971 39.1501C36.4991 39.1157 36.5012 39.0773 36.5032 39.043C36.5279 38.7077 36.5505 38.3905 36.5731 38.0673L34.2025 33.3931C25.4781 34.191 17.8775 38.8329 17.5406 39.043H17.4317L15.4268 54.4617C16.3614 54.0415 17.3701 53.6274 18.4259 53.2234C19.3729 52.8578 20.361 52.5083 21.3984 52.1811Z" fill="white"/>
<path d="M59.3402 88.7789C59.4183 88.5042 59.5005 88.2295 59.6484 87.9083C60.6878 85.658 58.2494 84.6116 56.6636 82.9916C55.6159 83.1088 54.4963 83.1896 53.3624 83.1896C51.1356 83.1896 48.8944 82.8825 47.2325 81.9493L46.0719 81.311C42.3846 79.295 38.3028 76.9861 38.7321 71.118C37.9926 71.0595 37.2407 71.0191 36.4807 70.9928C36.191 75.4085 35.8993 79.8869 35.6138 84.2905C35.5542 85.2176 35.4926 86.1388 35.4351 87.0579C35.3755 87.9891 35.3139 88.9122 35.2563 89.8333C35.9281 89.7909 36.608 89.7626 37.2921 89.7626C43.6335 89.7626 49.8435 91.6695 55.8501 93.5138C58.8493 94.4329 61.7663 95.3298 64.6586 95.9943C64.6812 95.055 64.7018 94.1097 64.7264 93.1562C64.7264 93.132 64.7264 93.1098 64.7264 93.0855C60.4495 91.9402 58.6747 91.0918 59.3402 88.7789Z" fill="white"/>
<path d="M68.4751 29.684C69.0071 28.7932 69.4817 27.868 69.8638 26.8924L69.8966 26.8257H69.8884C70.6978 24.7249 71.1641 22.4524 71.1641 20.0708C71.1641 9.53854 62.4829 1 51.77 1C41.0592 1 32.376 9.53854 32.376 20.0708C32.376 22.4524 32.8402 24.7249 33.6517 26.8257H33.6414L33.6763 26.8924C34.1241 28.0397 34.6788 29.1305 35.3341 30.1587L36.9138 33.2715V33.2735L38.7585 36.9095L39.8411 39.0406L39.9027 39.1618L41.2462 41.8101L42.6513 44.5795L45.9874 51.1546L47.1973 53.5382L51.7721 62.5514L55.293 55.6107L56.2544 53.7159L60.8888 44.5795L62.2939 41.8101L63.1567 40.1092L63.5839 39.2669L63.699 39.0406L66.2257 34.0613L68.206 30.1587C68.3025 30.0032 68.3806 29.8395 68.4751 29.684ZM51.77 29.886C46.468 29.886 42.1685 25.6622 42.1685 20.4486C42.1685 15.2329 46.468 11.0051 51.77 11.0051C57.07 11.0051 61.3715 15.2329 61.3715 20.4486C61.3695 25.6622 57.07 29.886 51.77 29.886Z" fill="white"/>
</svg>
