<svg width="100" height="62" viewBox="0 0 100 62" fill="none" xmlns="http://www.w3.org/2000/svg">
<path d="M75 59.0144V61.7895H25V59.0144C25 52.3903 27.6339 46.0375 32.3223 41.3536C37.0107 36.6697 43.3696 34.0383 50 34.0383C56.6304 34.0383 62.9893 36.6697 67.6777 41.3536C72.3661 46.0375 75 52.3903 75 59.0144ZM50 28.4881C52.747 28.4881 55.4322 27.6743 57.7163 26.1496C60.0003 24.6249 61.7804 22.4578 62.8317 19.9224C63.8829 17.387 64.1579 14.5971 63.622 11.9055C63.0861 9.21385 61.7633 6.74146 59.8209 4.80092C57.8785 2.86038 55.4038 1.53886 52.7096 1.00347C50.0154 0.468076 47.2228 0.742859 44.6849 1.79307C42.1471 2.84328 39.9779 4.62175 38.4518 6.90358C36.9257 9.18541 36.1111 11.8681 36.1111 14.6125C36.1111 18.2925 37.5744 21.8218 40.1791 24.424C42.7837 27.0262 46.3164 28.4881 50 28.4881ZM19.4444 39.5885C14.2875 39.5885 9.34169 41.6352 5.69515 45.2782C2.0486 48.9213 0 53.8623 0 59.0144L0 61.7895H19.4444V59.0144C19.4363 52.3651 21.6016 45.8949 25.6111 40.5876C23.6221 39.928 21.5402 39.5907 19.4444 39.5885ZM19.4444 34.0383C21.642 34.0383 23.7902 33.3873 25.6174 32.1675C27.4447 30.9478 28.8688 29.2141 29.7098 27.1858C30.5507 25.1574 30.7708 22.9255 30.3421 20.7722C29.9133 18.6189 28.8551 16.641 27.3012 15.0886C25.7473 13.5362 23.7675 12.4789 21.6121 12.0506C19.4568 11.6223 17.2227 11.8421 15.1924 12.6823C13.1621 13.5225 11.4268 14.9453 10.2059 16.7707C8.98499 18.5962 8.33333 20.7423 8.33333 22.9378C8.33333 25.8818 9.50396 28.7053 11.5877 30.787C13.6714 32.8688 16.4976 34.0383 19.4444 34.0383ZM80.5555 39.5885C78.4598 39.5907 76.3779 39.928 74.3889 40.5876C78.3984 45.8949 80.5637 52.3651 80.5555 59.0144V61.7895H100V59.0144C100 53.8623 97.9514 48.9213 94.3049 45.2782C90.6583 41.6352 85.7125 39.5885 80.5555 39.5885ZM80.5555 34.0383C82.7531 34.0383 84.9013 33.3873 86.7286 32.1675C88.5558 30.9478 89.9799 29.2141 90.8209 27.1858C91.6619 25.1574 91.8819 22.9255 91.4532 20.7722C91.0244 18.6189 89.9662 16.641 88.4123 15.0886C86.8584 13.5362 84.8786 12.4789 82.7232 12.0506C80.5679 11.6223 78.3338 11.8421 76.3035 12.6823C74.2732 13.5225 72.5379 14.9453 71.317 16.7707C70.0961 18.5962 69.4444 20.7423 69.4444 22.9378C69.4444 25.8818 70.6151 28.7053 72.6988 30.787C74.7825 32.8688 77.6087 34.0383 80.5555 34.0383Z" fill="white"/>
</svg>
