<svg width="73" height="100" viewBox="0 0 73 100" fill="none" xmlns="http://www.w3.org/2000/svg">
<path d="M72.7139 17C72.6922 16.9619 72.6688 16.9248 72.6452 16.8878C72.6355 16.8724 72.6271 16.8563 72.6169 16.8412C72.5885 16.7989 72.5572 16.7591 72.5262 16.719C72.5119 16.7004 72.4992 16.681 72.4842 16.6629C72.45 16.6215 72.413 16.5828 72.3761 16.5439C72.3623 16.5294 72.35 16.5138 72.336 16.4995L56.4664 0.66244C56.4521 0.64819 56.4365 0.63597 56.422 0.6224C56.383 0.58552 56.3442 0.54864 56.3027 0.51448C56.2846 0.49977 56.2651 0.48688 56.2467 0.47262C56.2066 0.44163 56.1665 0.41041 56.1243 0.38213C56.1091 0.37217 56.093 0.36357 56.0778 0.35385C56.052 0.337452 56.0262 0.321187 56 0.305496V13C56 15.2091 57.7909 17 60 17H72.7139ZM55 0.00408113C54.9546 0.00139378 54.909 0 54.8633 0H2.26708C1.01497 0 0 1.01312 0 2.26244V97.7376C0 98.9869 1.01497 100 2.26708 100H70.7329C71.9848 100 73 98.9869 73 97.7376V18.0996C73 18.0663 72.9993 18.0331 72.9978 18H59C56.7909 18 55 16.2091 55 14V0.00408113ZM52.305 36H34.0828C32.7021 36 31.5828 34.8807 31.5828 33.5C31.5828 32.1193 32.7021 31 34.0828 31H52.305C53.6857 31 54.805 32.1193 54.805 33.5C54.805 34.8807 53.6857 36 52.305 36ZM31.7222 62H13.5C12.1193 62 11 60.8807 11 59.5C11 58.1193 12.1193 57 13.5 57H31.7222C33.1029 57 34.2222 58.1193 34.2222 59.5C34.2222 60.8807 33.1029 62 31.7222 62ZM13.6712 44H53.6712C55.0998 44 56.2222 45.0204 56.2222 46.449C56.2222 47.8775 55.0998 49 53.6712 49H13.6712C12.2426 49 11.2222 47.8775 11.2222 46.449C11.2222 45.0204 12.2426 44 13.6712 44ZM14.7285 30.7158H15.043C15.8965 30.7158 16.6639 31.0415 17.3452 31.6929C18.0265 32.3442 18.3672 33.1566 18.3672 34.1299C18.3672 35.0882 18.0265 35.8781 17.3452 36.4995C16.6639 37.1209 15.8216 37.4316 14.8184 37.4316C13.7253 37.4316 12.8156 36.9937 12.0894 36.1177C11.3631 35.2417 11 33.9951 11 32.3779C11 30.8955 11.3182 29.5067 11.9546 28.2114C12.591 26.9162 13.3696 25.8905 14.2905 25.1343C15.2114 24.3781 16.0312 24 16.75 24C17.2292 24 17.6035 24.1423 17.8731 24.4268C18.1426 24.7113 18.2773 25.0781 18.2773 25.5273C18.2773 26.1862 17.9853 26.6729 17.4014 26.9873C16.6077 27.4216 15.9788 27.9307 15.5147 28.5147C15.0505 29.0986 14.7884 29.8323 14.7285 30.7158ZM24.6562 30.7158H24.9482C25.7868 30.7158 26.5467 31.0415 27.228 31.6929C27.9093 32.3442 28.25 33.1566 28.25 34.1299C28.25 35.0732 27.9093 35.8669 27.228 36.5107C26.5467 37.1546 25.7044 37.4766 24.7012 37.4766C23.5931 37.4766 22.6797 37.0274 21.9609 36.1289C21.2422 35.2305 20.8828 33.9801 20.8828 32.3779C20.8828 31.2249 21.07 30.1393 21.4443 29.1211C21.8187 28.1029 22.3016 27.2157 22.8931 26.4595C23.4845 25.7033 24.1209 25.1043 24.8022 24.6626C25.4836 24.2209 26.0938 24 26.6328 24C27.127 24 27.505 24.1385 27.7671 24.4155C28.0291 24.6925 28.1602 25.0632 28.1602 25.5273C28.1602 26.2012 27.8682 26.6878 27.2842 26.9873C26.4606 27.4515 25.8392 27.9644 25.4199 28.5259C25.0007 29.0874 24.7461 29.8174 24.6562 30.7158ZM53.387 72.99C54.112 76.054 58.045 82.216 61.027 85.965L55.531 84.631L52.969 90.074C52.968 90.073 51.855 90.401 49.966 82.628C49.013 88.049 47.2 89.334 47.199 89.334L45.973 83.615L40.057 85.482C42.636 82.132 44.847 76.262 45.32 73.283L45.195 72.954L43.78 72.869L43.711 71.453L42.392 70.935L42.765 69.566L41.67 68.666L42.448 67.48L41.685 66.285L42.791 65.398L42.434 64.026L43.76 63.523L43.846 62.108L45.262 62.041L45.781 60.722L47.148 61.095L48.049 60L49.235 60.777L50.429 60.015L51.317 61.121L52.689 60.765L53.191 62.09L54.606 62.175L54.673 63.591L55.994 64.108L55.619 65.477L56.715 66.377L55.938 67.563L56.701 68.758L55.594 69.645L55.951 71.018L54.624 71.52L54.539 72.935L53.387 72.99ZM49.0962 64.395C47.397 64.395 46.0144 65.777 46.015 67.4786C46.015 68.4313 46.4589 69.273 47.1399 69.8388C47.474 70.1165 47.8646 70.3239 48.2957 70.441C48.5528 70.5107 48.8179 70.5598 49.0968 70.5598C49.5838 70.5598 50.0386 70.4355 50.4485 70.2336C50.6486 70.1341 50.8342 70.014 51.0076 69.8758C51.7153 69.3106 52.178 68.4507 52.178 67.4768C52.178 65.7776 50.7954 64.395 49.0962 64.395Z" fill="white"/>
</svg>
