<svg width="28" height="31" viewBox="0 0 28 31" fill="none" xmlns="http://www.w3.org/2000/svg">
<path fill-rule="evenodd" clip-rule="evenodd" d="M13.244 26.0847C10.3781 22.5849 4.06636 15.0774 4.06636 9.63436C4.06636 4.3136 8.37962 0 13.7004 0C19.0211 0 23.3344 4.3136 23.3344 9.63402C23.3344 15.0915 17.0183 22.5789 14.1514 26.0915C13.9156 26.3801 13.4723 26.3744 13.244 26.0847ZM21.0159 23.4671C24.7906 24.2092 29.5879 26.1403 22.8163 28.0748C17.7994 29.508 9.60135 29.508 4.58442 28.0748C-2.18981 26.1393 2.60884 24.2061 6.38451 23.4671C7.13768 23.3196 6.91335 22.1767 6.16152 22.3239C4.00876 22.7453 0 23.8164 0 25.985C0 27.3125 1.63032 28.4423 4.26577 29.1955C9.49389 30.6893 17.9072 30.6893 23.1353 29.1955C25.7708 28.4426 27.4008 27.3128 27.4008 25.985C27.4008 23.8168 23.392 22.7456 21.2392 22.3239C20.4871 22.1767 20.2634 23.3206 21.0159 23.4671ZM13.7004 4.77709C11.0178 4.77709 8.84312 6.95175 8.84312 9.63436C8.84312 13.9476 14.0827 16.1209 17.1348 13.0688C20.1869 10.0167 18.014 4.77709 13.7004 4.77709ZM16.3106 7.02417C13.9914 4.70501 10.0093 6.35554 10.0093 9.63436C10.0093 12.9125 13.9911 14.5637 16.3106 12.2445C17.7519 10.8029 17.7519 8.46552 16.3106 7.02417ZM13.5912 24.6703L13.7004 24.8034C13.7275 24.7702 13.755 24.7366 13.7829 24.7026C16.4601 21.4323 22.1686 14.4593 22.1686 9.63436C22.1686 2.11436 13.0341 -1.67478 7.71267 3.64665C6.18004 5.17895 5.23251 7.296 5.23251 9.63436C5.23217 14.4643 10.9689 21.4686 13.5901 24.6689C13.5905 24.6694 13.5909 24.6698 13.5912 24.6703Z" fill="white"/>
<path fill-rule="evenodd" clip-rule="evenodd" d="M13.5912 24.6703L13.7004 24.8034L13.7829 24.7026C16.4601 21.4323 22.1686 14.4593 22.1686 9.63436C22.1686 2.11436 13.0341 -1.67478 7.71267 3.64665C6.18004 5.17895 5.23251 7.296 5.23251 9.63436C5.23217 14.4643 10.9689 21.4686 13.5901 24.6689L13.5912 24.6703ZM8.84312 9.63436C8.84312 6.95175 11.0178 4.77709 13.7004 4.77709C18.014 4.77709 20.1869 10.0167 17.1348 13.0688C14.0827 16.1209 8.84312 13.9476 8.84312 9.63436Z" fill="white"/>
</svg>
