<svg width="33" height="32" viewBox="0 0 33 32" fill="none" xmlns="http://www.w3.org/2000/svg">
<path d="M16.7941 16.5817C21.3723 16.5817 25.0843 12.8698 25.0843 8.29087C25.0843 3.71325 21.3723 0 16.7941 0C12.2152 0 8.50391 3.71325 8.50391 8.29087C8.50391 12.8698 12.2152 16.5817 16.7941 16.5817Z" fill="#EF6817"/>
<path d="M27.4116 24.569C27.0415 22.3519 25.1616 19.2872 23.8146 17.8524C23.4503 17.4642 22.8178 17.6257 22.5956 17.7632C20.9056 18.8052 18.9217 19.4132 16.7944 19.4132C14.6671 19.4132 12.6833 18.8052 10.9933 17.7632C10.7711 17.6257 10.1386 17.4642 9.77421 17.8524C8.42733 19.2872 6.54746 22.3519 6.17727 24.569C5.26777 30.0277 11.0993 32 16.7945 32C22.4896 32 28.3211 30.0277 27.4116 24.569Z" fill="#EF6817"/>
</svg>
