<svg width="33" height="32" viewBox="0 0 33 32" fill="none" xmlns="http://www.w3.org/2000/svg">
<path d="M27.3568 24.9733L23.0328 20.6493C24.3513 18.9304 25.0648 16.8238 25.0621 14.6573C25.0621 12.0107 24.0314 9.52333 22.1601 7.652C21.2423 6.7291 20.1506 5.99741 18.9481 5.49928C17.7457 5.00115 16.4563 4.74647 15.1548 4.75C12.5088 4.75 10.0214 5.78066 8.14943 7.652C4.28743 11.5147 4.28743 17.8 8.14943 21.6627C9.06719 22.5856 10.1589 23.3173 11.3614 23.8154C12.5639 24.3136 13.8532 24.5682 15.1548 24.5647C17.3508 24.5647 19.4314 23.8453 21.1474 22.5347L25.4714 26.8593C25.7314 27.1193 26.0728 27.25 26.4141 27.25C26.7554 27.25 27.0968 27.1193 27.3568 26.8593C27.4806 26.7355 27.5789 26.5885 27.6459 26.4267C27.713 26.2649 27.7475 26.0915 27.7475 25.9163C27.7475 25.7412 27.713 25.5678 27.6459 25.406C27.5789 25.2442 27.4806 25.0971 27.3568 24.9733ZM10.0354 19.7773C7.2121 16.954 7.21276 12.3607 10.0354 9.53733C10.7063 8.86305 11.5043 8.3285 12.3831 7.96461C13.262 7.60072 14.2042 7.4147 15.1554 7.41733C16.1065 7.41472 17.0487 7.60074 17.9274 7.96464C18.8061 8.32853 19.604 8.86307 20.2748 9.53733C20.9492 10.2081 21.4839 11.0061 21.8479 11.8849C22.212 12.7638 22.398 13.7061 22.3954 14.6573C22.3954 16.5913 21.6421 18.4093 20.2748 19.7773C18.9074 21.1453 17.0894 21.8973 15.1548 21.8973C13.2214 21.8973 11.4028 21.144 10.0348 19.7773H10.0354Z" fill="#EF6817"/>
</svg>
