<svg width="32" height="33" viewBox="0 0 32 33" fill="none" xmlns="http://www.w3.org/2000/svg">
<g clip-path="url(#clip0_124_2954)">
<path d="M27.9998 5.92331C27.963 5.86996 27.9205 5.82078 27.8731 5.77664C26.3754 4.11547 24.5454 2.78736 22.5018 1.8783C20.4582 0.969246 18.2465 0.499512 16.0098 0.499512C13.7731 0.499512 11.5613 0.969246 9.51773 1.8783C7.47411 2.78736 5.64419 4.11547 4.14644 5.77664C4.09901 5.82078 4.05653 5.86996 4.01978 5.92331C1.43616 8.84076 0.00976562 12.603 0.00976562 16.5C0.00976562 20.397 1.43616 24.1592 4.01978 27.0766C4.05653 27.13 4.09901 27.1792 4.14644 27.2233C5.64417 28.8839 7.47389 30.2116 9.5172 31.1203C11.5605 32.029 13.7718 32.4986 16.0081 32.4986C18.2444 32.4986 20.4557 32.029 22.499 31.1203C24.5423 30.2116 26.3721 28.8839 27.8698 27.2233C27.9034 27.1901 27.9346 27.1544 27.9631 27.1166C30.5621 24.2008 32.0013 20.4329 32.0081 16.5269C32.0148 12.6209 30.5887 8.84813 27.9998 5.92331ZM11.0598 3.40331C10.2222 4.54112 9.54892 5.79116 9.05978 7.11664C8.18467 6.88047 7.32795 6.58078 6.49644 6.21998C7.82184 4.99581 9.37138 4.03938 11.0598 3.40331ZM5.07644 7.75665C6.16213 8.2793 7.29356 8.70108 8.45644 9.01665C7.8888 11.1332 7.57328 13.3094 7.51644 15.5H2.03978C2.23982 12.6699 3.29928 9.96828 5.07644 7.75665ZM2.03978 17.5H7.51644C7.57328 19.6906 7.8888 21.8668 8.45644 23.9833C7.29356 24.2989 6.16213 24.7207 5.07644 25.2433C3.29928 23.0317 2.23982 20.3301 2.03978 17.5ZM6.50978 26.78C7.34129 26.4192 8.198 26.1195 9.07311 25.8833C9.56225 27.2088 10.2355 28.4588 11.0731 29.5966C9.38471 28.9606 7.83518 28.0041 6.50978 26.78ZM14.9998 30.3266C13.4364 29.78 12.0398 27.9933 11.0431 25.44C12.3501 25.2043 13.6724 25.0639 14.9998 25.02V30.3266ZM14.9998 23.0166C13.4589 23.0653 11.9242 23.2347 10.4098 23.5233C9.87853 21.5573 9.57982 19.5357 9.51978 17.5H14.9998V23.0166ZM14.9998 15.5H9.51978C9.57982 13.4643 9.87853 11.4427 10.4098 9.47665C11.9242 9.76528 13.4589 9.93469 14.9998 9.98331V15.5ZM14.9998 7.97998C13.6724 7.93607 12.3501 7.7957 11.0431 7.55998C12.0431 5.01998 13.4364 3.22664 14.9998 2.67331V7.97998ZM29.9598 15.5H24.4831C24.4263 13.3094 24.1107 11.1332 23.5431 9.01665C24.706 8.70108 25.8374 8.2793 26.9231 7.75665C28.7003 9.96828 29.7597 12.6699 29.9598 15.5ZM25.4898 6.21998C24.6583 6.58078 23.8015 6.88047 22.9264 7.11664C22.4373 5.79116 21.764 4.54112 20.9264 3.40331C22.6148 4.03938 24.1644 4.99581 25.4898 6.21998ZM16.9998 2.67331C18.5631 3.21998 19.9598 5.00665 20.9564 7.55998C19.6495 7.7957 18.3271 7.93607 16.9998 7.97998V2.67331ZM16.9998 9.98331C18.5407 9.93469 20.0754 9.76528 21.5898 9.47665C22.121 11.4427 22.4197 13.4643 22.4798 15.5H16.9998V9.98331ZM16.9998 17.5H22.4798C22.4197 19.5357 22.121 21.5573 21.5898 23.5233C20.0754 23.2347 18.5407 23.0653 16.9998 23.0166V17.5ZM16.9998 30.3266V25.02C18.3271 25.0639 19.6495 25.2043 20.9564 25.44C19.9598 27.98 18.5631 29.78 16.9998 30.3266ZM20.9398 29.5966C21.7774 28.4588 22.4506 27.2088 22.9398 25.8833C23.8149 26.1195 24.6716 26.4192 25.5031 26.78C24.1777 28.0041 22.6282 28.9606 20.9398 29.5966ZM26.9398 25.2433C25.8541 24.7207 24.7227 24.2989 23.5598 23.9833C24.1218 21.8661 24.4317 19.6899 24.4831 17.5H29.9598C29.7597 20.3301 28.7003 23.0317 26.9231 25.2433H26.9398Z" fill="white"/>
</g>
<defs>
<clipPath id="clip0_124_2954">
<rect width="32" height="32" fill="white" transform="translate(0 0.5)"/>
</clipPath>
</defs>
</svg>
