<svg width="32" height="33" viewBox="0 0 32 33" fill="none" xmlns="http://www.w3.org/2000/svg">
<path d="M31.8351 25.4389C30.3956 22.4339 27.9405 20.4732 24.4331 19.5982C23.9063 19.4668 23.3465 19.5973 22.926 19.9409L20.0131 22.321C19.4444 22.7857 18.6406 22.8455 18.0155 22.4599C14.9343 20.5592 12.4412 18.0662 10.5405 14.985C10.155 14.3599 10.2147 13.5561 10.6795 12.9874L13.0596 10.0746C13.4032 9.65407 13.5337 9.09443 13.4023 8.56737C12.5273 5.06023 10.5665 2.60522 7.56157 1.16549C7.07674 0.933235 6.50475 0.946242 6.03066 1.19949C4.51962 2.00644 3.07382 2.91974 1.70423 3.94641C1.17971 4.33952 0.91504 4.98973 1.02432 5.63612C2.009 11.4677 5.15982 17.6001 10.2801 22.7201C15.4005 27.8405 21.5327 30.991 27.3641 31.9758C28.0104 32.0848 28.6604 31.8202 29.0538 31.2959C30.0807 29.9263 30.9938 28.4805 31.8007 26.9694C32.0537 26.4951 32.0667 25.9231 31.8345 25.4383L31.8351 25.4389Z" fill="white"/>
</svg>
